<?xml version="1.0" encoding="utf-8"?>
<!-- Generator: Adobe Illustrator 21.1.0, SVG Export Plug-In . SVG Version: 6.00 Build 0)  -->
<svg version="1.1" id="Layer_1" xmlns="http://www.w3.org/2000/svg" xmlns:xlink="http://www.w3.org/1999/xlink" x="0px" y="0px"
	 viewBox="0 0 115.6 100.9" style="enable-background:new 0 0 115.6 100.9;" xml:space="preserve">
<style type="text/css">
	.st0{fill:#FFFFFF;}
	.st1{fill:#6AB265;}
	.st2{fill:#C7CF42;}
	.st3{fill:#B0B0B2;}
</style>
<g>
	<polygon class="st0" points="57.4,98.9 16.2,61.5 57.4,61.5 98.6,61.5 	"/>
	<path d="M57.4,100.9c-0.5,0-1-0.2-1.3-0.5L14.9,63c-0.6-0.6-0.8-1.4-0.5-2.2c0.3-0.8,1-1.3,1.9-1.3h82.4c0.8,0,1.6,0.5,1.9,1.3
		c0.3,0.8,0.1,1.6-0.5,2.2l-41.2,37.4C58.4,100.7,57.9,100.9,57.4,100.9z M21.4,63.5l36,32.7l36-32.7H21.4z"/>
</g>
<polygon class="st1" points="57.4,98.9 39.2,61.5 57.4,61.5 75.5,61.5 "/>
<path d="M57.4,100.9L57.4,100.9c-0.8,0-1.5-0.4-1.8-1.1L37.4,62.4c-0.3-0.6-0.3-1.4,0.1-1.9c0.4-0.6,1-0.9,1.7-0.9h36.3
	c0.7,0,1.3,0.4,1.7,0.9c0.4,0.6,0.4,1.3,0.1,1.9L59.2,99.8C58.9,100.5,58.2,100.9,57.4,100.9z M42.4,63.5l15,30.8l15-30.8H42.4z"/>
<g>
	<path d="M98.6,63.6H16.2c-0.8,0-1.5-0.4-1.8-1.1c-0.3-0.7-0.3-1.5,0.2-2.1L26,45.8c0.4-0.5,1-0.8,1.6-0.8h59.7
		c0.6,0,1.2,0.3,1.6,0.8l11.3,14.6c0.5,0.6,0.6,1.4,0.2,2.1C100,63.2,99.3,63.6,98.6,63.6z M20.3,59.6h74.2L86.3,49H28.5L20.3,59.6z
		"/>
</g>
<g>
	<polygon class="st2" points="57.4,46.9 39.2,61.6 57.4,61.6 75.5,61.6 	"/>
	<path d="M75.5,63.6H39.2L38,60.1l18.2-14.8h2.5l18.2,14.8L75.5,63.6z M44.9,59.6h25L57.4,49.5L44.9,59.6z"/>
</g>
<g>
	<polygon class="st2" points="39.1,61.6 27.6,47 27.5,47 16.2,61.6 	"/>
	<path d="M39.1,63.6H16.2c-0.8,0-1.5-0.4-1.8-1.1c-0.3-0.7-0.3-1.5,0.2-2.1L26,45.8c0.8-1,2.4-1,3.2,0l11.5,14.6
		c0.5,0.6,0.6,1.4,0.2,2.1C40.6,63.2,39.9,63.6,39.1,63.6z M20.3,59.6H35l-7.4-9.4L20.3,59.6z"/>
</g>
<g>
	<polygon class="st2" points="75.7,61.6 87.2,47 87.2,47 98.6,61.6 	"/>
	<path d="M98.6,63.6H75.7c-0.8,0-1.5-0.4-1.8-1.1c-0.3-0.7-0.2-1.5,0.2-2.1l11.5-14.6c0.8-1,2.4-1,3.2,0l11.3,14.6
		c0.5,0.6,0.6,1.4,0.2,2.1C100,63.2,99.3,63.6,98.6,63.6z M79.8,59.6h14.7l-7.3-9.4L79.8,59.6z"/>
</g>
<g>
	<g>
		<rect x="57.2" y="23" transform="matrix(0.7071 -0.7071 0.7071 0.7071 1.5707 53.8253)" class="st1" width="17.1" height="4"/>
	</g>
	<g>
		<rect x="63.8" y="16.5" transform="matrix(0.7071 -0.7071 0.7071 0.7071 1.5715 53.827)" class="st1" width="4" height="17.1"/>
	</g>
</g>
<g>
	<g>
		<rect x="38.3" y="30.8" transform="matrix(0.7072 -0.707 0.707 0.7072 -10.4152 40.4265)" class="st1" width="10.6" height="4"/>
	</g>
	<g>
		
			<rect x="41.6" y="27.5" transform="matrix(0.7071 -0.7071 0.7071 0.7071 -10.4141 40.4325)" class="st1" width="4" height="10.6"/>
	</g>
</g>
<g>
	<g>
		<rect x="55.7" class="st3" width="4.5" height="9.8"/>
	</g>
	<g>
		<rect x="37.5" y="3.2" transform="matrix(0.9397 -0.342 0.342 0.9397 -0.3628 14.0635)" class="st3" width="4.5" height="9.8"/>
	</g>
	<g>
		<rect x="21.4" y="12.4" transform="matrix(0.7661 -0.6427 0.6427 0.7661 -5.582 19.222)" class="st3" width="4.5" height="9.8"/>
	</g>
	<g>
		<rect x="9.4" y="26.5" transform="matrix(0.5 -0.866 0.866 0.5 -21.4009 25.8189)" class="st3" width="4.5" height="9.8"/>
	</g>
	<g>
		<rect x="3" y="43.9" transform="matrix(0.1737 -0.9848 0.9848 0.1737 -43.7487 45.549)" class="st3" width="4.5" height="9.8"/>
	</g>
	<g>
		<rect x="0.3" y="65.1" transform="matrix(0.9848 -0.1736 0.1736 0.9848 -11.6159 1.9272)" class="st3" width="9.8" height="4.5"/>
	</g>
	<g>
		<rect x="6.6" y="82.6" transform="matrix(0.866 -0.5 0.5 0.866 -40.8702 17.1131)" class="st3" width="9.8" height="4.5"/>
	</g>
	<g>
		
			<rect x="101.7" y="80.2" transform="matrix(0.5002 -0.8659 0.8659 0.5002 -21.7398 132.5387)" class="st3" width="4.5" height="9.8"/>
	</g>
	<g>
		
			<rect x="108.1" y="62.8" transform="matrix(0.1739 -0.9848 0.9848 0.1739 24.4736 164.5806)" class="st3" width="4.5" height="9.8"/>
	</g>
	<g>
		
			<rect x="105.5" y="46.9" transform="matrix(0.9848 -0.1736 0.1736 0.9848 -6.859 19.9099)" class="st3" width="9.8" height="4.5"/>
	</g>
	<g>
		
			<rect x="99.2" y="29.5" transform="matrix(0.8662 -0.4996 0.4996 0.8662 -1.9271 56.2586)" class="st3" width="9.8" height="4.5"/>
	</g>
	<g>
		<rect x="87.3" y="15.3" transform="matrix(0.643 -0.7659 0.7659 0.643 19.5321 76.8857)" class="st3" width="9.8" height="4.5"/>
	</g>
	<g>
		<rect x="71.3" y="5.9" transform="matrix(0.3423 -0.9396 0.9396 0.3423 42.4461 76.9855)" class="st3" width="9.8" height="4.5"/>
	</g>
</g>
</svg>
