<?xml version="1.0" encoding="utf-8"?>
<!-- Generator: Adobe Illustrator 21.1.0, SVG Export Plug-In . SVG Version: 6.00 Build 0)  -->
<svg version="1.1" id="Isolation_Mode" xmlns="http://www.w3.org/2000/svg" xmlns:xlink="http://www.w3.org/1999/xlink" x="0px"
	 y="0px" viewBox="0 0 120.6 102.4" style="enable-background:new 0 0 120.6 102.4;" xml:space="preserve">
<style type="text/css">
	.st0{fill:#B0B0B2;}
	.st1{fill:#6AB265;}
	.st2{fill:#C7CF42;}
</style>
<g>
	<g>
		<rect x="36" y="14.7" class="st0" width="4" height="4"/>
	</g>
	<g>
		<path class="st0" d="M32.4,18.7h-3.6v-4h3.6V18.7z M25.3,18.7h-3.6v-4h3.6V18.7z M18.2,18.7h-3.6v-4h3.6V18.7z M11.1,18.7H7.6v-4
			h3.6V18.7z"/>
	</g>
	<g>
		<rect y="14.7" class="st0" width="4" height="4"/>
	</g>
	<g>
		<rect y="7.6" class="st0" width="4" height="3.6"/>
	</g>
	<g>
		<rect class="st0" width="4" height="4"/>
	</g>
	<g>
		<path class="st0" d="M32.4,4h-3.6V0h3.6V4z M25.3,4h-3.6V0h3.6V4z M18.2,4h-3.6V0h3.6V4z M11.1,4H7.6V0h3.6V4z"/>
	</g>
	<g>
		<rect x="36" class="st0" width="4" height="4"/>
	</g>
	<g>
		<rect x="36" y="7.6" class="st0" width="4" height="3.6"/>
	</g>
</g>
<polygon points="70.3,12.1 69.3,12.1 32,12.1 32,24.2 36,24.2 36,16.1 69.3,16.1 70.3,16.1 70.8,16.1 70.8,24.2 74.8,24.2 
	74.8,12.1 "/>
<rect x="16.7" y="31.3" class="st1" width="73.5" height="46.3"/>
<rect x="48.2" y="25" class="st2" width="10.5" height="58.8"/>
<g>
	<g>
		<path d="M46.2,56.7H23.3c-8.7,0-14.5-6.8-14.5-16.8V29.6h4v10.3c0,6.2,2.8,12.8,10.5,12.8h22.9V56.7z"/>
	</g>
	<g>
		<path d="M83.5,56.7H61.2v-4h22.3c7.8,0,10.5-6.7,10.5-12.9V29.5h4v10.3C98.1,49.9,92.2,56.7,83.5,56.7z"/>
	</g>
</g>
<g>
	<g>
		<g>
			<g>
				<rect x="55.4" y="25.5" width="4" height="19.9"/>
			</g>
			<g>
				<rect x="47.4" y="25.5" width="4" height="19.9"/>
			</g>
		</g>
		<g>
			<g>
				<rect x="55.4" y="63.9" width="4" height="18.9"/>
			</g>
			<g>
				<rect x="47.4" y="63.9" width="4" height="18.9"/>
			</g>
		</g>
		<g>
			<path d="M58.2,66.4h-9.6c-2,0-3.6-1.6-3.6-3.6V47.5c0-2,1.6-3.6,3.6-3.6h9.6c2,0,3.6,1.6,3.6,3.6v15.3
				C61.9,64.8,60.2,66.4,58.2,66.4z M49,62.4h8.9V47.9H49V62.4z"/>
		</g>
		<g>
			<rect x="51.4" y="58" width="4" height="5.4"/>
		</g>
	</g>
</g>
<g>
	<path d="M98.2,85.5H8.7V23.3h89.5V85.5z M12.7,81.5h81.5V27.3H12.7V81.5z"/>
</g>
<g>
	<g>
		
			<rect x="104.6" y="87.5" transform="matrix(0.7071 -0.7071 0.7071 0.7071 -30.1215 106.2023)" class="st0" width="17.1" height="4"/>
	</g>
	<g>
		
			<rect x="111.1" y="80.9" transform="matrix(0.7071 -0.7071 0.7071 0.7071 -30.121 106.2056)" class="st0" width="4" height="17.1"/>
	</g>
</g>
<g>
	<g>
		<rect x="85.7" y="95.2" transform="matrix(0.7072 -0.707 0.707 0.7072 -42.1055 92.7909)" class="st0" width="10.6" height="4"/>
	</g>
	<g>
		<rect x="89" y="91.9" transform="matrix(0.7071 -0.7071 0.7071 0.7071 -42.1057 92.8048)" class="st0" width="4" height="10.6"/>
	</g>
</g>
</svg>
