<?xml version="1.0" encoding="utf-8"?>
<!-- Generator: Adobe Illustrator 21.1.0, SVG Export Plug-In . SVG Version: 6.00 Build 0)  -->
<svg version="1.1" id="Layer_1" xmlns="http://www.w3.org/2000/svg" xmlns:xlink="http://www.w3.org/1999/xlink" x="0px" y="0px"
	 viewBox="0 0 95.9 100.5" style="enable-background:new 0 0 95.9 100.5;" xml:space="preserve">
<style type="text/css">
	.st0{fill:#C7CF42;}
	.st1{fill:#FFFFFF;}
	.st2{fill:#6AB265;}
	.st3{fill:#B0B0B2;}
</style>
<path class="st0" d="M87.6,57.4l0-8.5l-5-1.1c-0.3-1-0.6-2.1-1-3.1l3.8-3.4L81.1,34l-5.2,1.7c-0.7-0.7-1.4-1.4-2.1-2l1.7-5.1
	l-7.3-4.2l-3.7,4.1c-0.9-0.3-1.8-0.5-2.8-0.7l-1.1-5.3h-8.5l-1.1,5.3c-1,0.2-2,0.5-3,0.8l-3.5-3.9L37,28.9l1.5,4.8
	c-0.9,0.7-1.7,1.5-2.5,2.4l-4.5-1.5l-4.2,7.4l3.4,3c-0.4,1.2-0.8,2.5-1.1,3.7l-4.2,0.9v8.5l4,0.8c0.2,1.4,0.6,2.8,1.1,4.2l-2.8,2.5
	l4.2,7.4l3.5-1.1c1,1.2,2.1,2.3,3.3,3.3l-1.1,3.3l7.3,4.2l2.4-2.7c1.5,0.5,3,0.9,4.5,1.1l0.7,3.4h8.5l0.8-3.7
	c1.5-0.3,2.9-0.8,4.3-1.3l2.5,2.8l7.4-4.2l-1.3-3.9c1-0.9,1.9-1.9,2.8-3l3.9,1.3l4.2-7.4l-3.5-3.1c0.3-1.2,0.6-2.3,0.8-3.6
	L87.6,57.4z M70.4,54.3c0,7.9-6.4,14.3-14.3,14.3c-7.9,0-14.3-6.4-14.3-14.3c0-7.9,6.4-14.3,14.3-14.3
	C64.1,40.1,70.4,46.5,70.4,54.3z"/>
<g>
	<path class="st1" d="M51,95.4c0,1.7-1.4,3.1-3.1,3.1H5.1c-1.7,0-3.1-1.4-3.1-3.1V5.1C2,3.4,3.4,2,5.1,2H48C49.6,2,51,3.4,51,5.1
		V95.4z"/>
	<path d="M48,100.5H5.1c-2.8,0-5.1-2.3-5.1-5.1V5.1C0,2.3,2.3,0,5.1,0H48C50.7,0,53,2.3,53,5.1v90.4C53,98.2,50.7,100.5,48,100.5z
		 M5.1,4C4.5,4,4,4.5,4,5.1v90.4c0,0.6,0.5,1.1,1.1,1.1H48c0.6,0,1.1-0.5,1.1-1.1V5.1C49,4.5,48.5,4,48,4H5.1z"/>
</g>
<rect x="7.3" y="15" class="st2" width="38.4" height="69.7"/>
<g>
	<g>
		<rect x="18.3" y="6.8" width="16.4" height="4"/>
	</g>
</g>
<g>
	<rect x="24.5" y="88.5" class="st3" width="4" height="4"/>
</g>
<g>
	<g>
		<rect x="84.6" y="79.8" class="st3" width="4" height="15.9"/>
	</g>
	<g>
		<rect x="78.7" y="85.8" class="st3" width="15.9" height="4"/>
	</g>
</g>
<g>
	<g>
		<rect x="91.9" y="15" class="st3" width="4" height="4"/>
	</g>
	<g>
		<path class="st3" d="M88.3,19h-3.6v-4h3.6V19z M81.2,19h-3.6v-4h3.6V19z M74.1,19h-3.6v-4h3.6V19z M67,19h-3.6v-4H67V19z"/>
	</g>
	<g>
		<rect x="55.9" y="15" class="st3" width="4" height="4"/>
	</g>
	<g>
		<rect x="55.9" y="7.9" class="st3" width="4" height="3.6"/>
	</g>
	<g>
		<rect x="55.9" y="0.3" class="st3" width="4" height="4"/>
	</g>
	<g>
		<path class="st3" d="M88.3,4.3h-3.6v-4h3.6V4.3z M81.2,4.3h-3.6v-4h3.6V4.3z M74.1,4.3h-3.6v-4h3.6V4.3z M67,4.3h-3.6v-4H67V4.3z"
			/>
	</g>
	<g>
		<rect x="91.9" y="0.3" class="st3" width="4" height="4"/>
	</g>
	<g>
		<rect x="91.9" y="7.9" class="st3" width="4" height="3.6"/>
	</g>
</g>
<g>
	<rect x="57.2" y="43.7" width="21.3" height="4"/>
</g>
<g>
	<rect x="57.2" y="52" width="17.3" height="4"/>
</g>
<path class="st1" d="M36.5,43.2c0,2.2-1.8,4-4,4h-12c-2.2,0-4-1.8-4-4v-12c0-2.2,1.8-4,4-4h12c2.2,0,4,1.8,4,4V43.2z"/>
<g>
	<g>
		<polygon class="st3" points="26.5,43.5 29,47.9 31.5,52.2 26.5,52.2 21.5,52.2 24,47.9 		"/>
		<path class="st3" d="M35,54.2H18l8.5-14.7L35,54.2z M24.9,50.2h3.1l-1.6-2.7L24.9,50.2z"/>
	</g>
	<g>
		<rect x="25.1" y="52.9" class="st3" width="4" height="5.9"/>
	</g>
</g>
</svg>
