<?xml version="1.0" encoding="utf-8"?>
<!-- Generator: Adobe Illustrator 21.1.0, SVG Export Plug-In . SVG Version: 6.00 Build 0)  -->
<svg version="1.1" id="Layer_1" xmlns="http://www.w3.org/2000/svg" xmlns:xlink="http://www.w3.org/1999/xlink" x="0px" y="0px"
	 viewBox="0 0 108.1 98.7" style="enable-background:new 0 0 108.1 98.7;" xml:space="preserve">
<style type="text/css">
	.st0{fill:#C7CF42;}
	.st1{fill:#6AB265;}
	.st2{fill:#B0B0B2;}
	.st3{fill:#FFFFFF;}
</style>
<g>
	<g>
		<rect x="5.1" y="68.6" transform="matrix(0.707 -0.7072 0.7072 0.707 -48.4961 25.8012)" width="3.6" height="5.7"/>
	</g>
	<g>
		<rect x="0" y="79.9" width="5.7" height="3.6"/>
	</g>
	<g>
		<rect x="4.4" y="90" transform="matrix(0.7072 -0.707 0.707 0.7072 -62.8041 31.9958)" width="5.7" height="3.6"/>
	</g>
	<g>
		<rect x="15.7" y="93" width="3.6" height="5.7"/>
	</g>
	<g>
		<rect x="25.8" y="88.6" transform="matrix(0.7072 -0.707 0.707 0.7072 -56.5966 46.3104)" width="3.6" height="5.7"/>
	</g>
</g>
<g>
	<g>
		<rect x="94.6" y="14.7" class="st0" width="4" height="4"/>
	</g>
	<g>
		<path class="st0" d="M91,18.7h-3.6v-4H91V18.7z M83.9,18.7h-3.6v-4h3.6V18.7z M76.8,18.7h-3.6v-4h3.6V18.7z M69.7,18.7h-3.6v-4
			h3.6V18.7z"/>
	</g>
	<g>
		<rect x="58.6" y="14.7" class="st0" width="4" height="4"/>
	</g>
	<g>
		<rect x="58.6" y="7.6" class="st0" width="4" height="3.6"/>
	</g>
	<g>
		<rect x="58.6" class="st0" width="4" height="4"/>
	</g>
	<g>
		<path class="st0" d="M91,4h-3.6V0H91V4z M83.9,4h-3.6V0h3.6V4z M76.8,4h-3.6V0h3.6V4z M69.7,4h-3.6V0h3.6V4z"/>
	</g>
	<g>
		<rect x="94.6" class="st0" width="4" height="4"/>
	</g>
	<g>
		<rect x="94.6" y="7.6" class="st0" width="4" height="3.6"/>
	</g>
</g>
<rect x="22.1" y="32.8" class="st1" width="72.4" height="44.3"/>
<path class="st2" d="M102.7,85.4H13.9V24.6h88.8V85.4z M17.9,81.4h80.8V28.6H17.9V81.4z"/>
<g>
	<polygon class="st2" points="71.4,22.5 67.4,22.5 67.4,18.8 49.3,18.8 49.3,22.5 45.3,22.5 45.3,14.8 71.4,14.8 	"/>
</g>
<path class="st0" d="M56.3,44.3c-1.1,0-2,0.9-2,2V48c-0.3-0.1-0.6-0.2-1-0.2h-5v13.7h5c0.4,0,0.7-0.1,1-0.2V63c0,1.1,0.9,2,2,2h49.8
	c1.1,0,2-0.9,2-2V46.3c0-1.1-0.9-2-2-2L56.3,44.3z"/>
<g>
	<line class="st3" x1="48.3" y1="54.6" x2="16" y2="54.6"/>
	<rect x="16" y="52.6" width="32.3" height="4"/>
</g>
<g>
	<polygon class="st3" points="19.7,55.3 14.9,59.2 4.5,56.9 4.5,52.4 14.9,50.1 19.7,54 	"/>
	<path d="M15.4,61.4L2.5,58.5v-7.8l12.9-2.8l6.3,5.1l0,3.2L15.4,61.4z M6.5,55.3l7.8,1.7l3-2.4l-3-2.4L6.5,54V55.3z"/>
</g>
<g>
	<line class="st3" x1="60" y1="58.6" x2="102.5" y2="58.6"/>
	<rect x="60" y="56.6" width="42.5" height="4"/>
</g>
<g>
	<line class="st3" x1="60" y1="50.6" x2="102.5" y2="50.6"/>
	<rect x="60" y="48.6" width="42.5" height="4"/>
</g>
<g>
	<line class="st3" x1="54.6" y1="65" x2="54.6" y2="44.3"/>
	<rect x="52.6" y="44.3" width="4" height="20.7"/>
</g>
</svg>
