<?xml version="1.0" encoding="utf-8"?>
<!-- Generator: Adobe Illustrator 21.1.0, SVG Export Plug-In . SVG Version: 6.00 Build 0)  -->
<svg version="1.1" id="Layer_1" xmlns="http://www.w3.org/2000/svg" xmlns:xlink="http://www.w3.org/1999/xlink" x="0px" y="0px"
	 viewBox="0 0 89.7 96.6" style="enable-background:new 0 0 89.7 96.6;" xml:space="preserve">
<style type="text/css">
	.st0{fill:#B0B0B2;}
	.st1{fill:#C7CF42;}
	.st2{fill:#65A450;}
	.st3{fill:#FFFFFF;}
	.st4{fill:#6AB265;}
</style>
<g>
	<polygon class="st0" points="71.8,96.6 0.2,96.6 0.2,21 4.2,21 4.2,92.6 67.8,92.6 67.8,4.2 21,4.2 21,0.2 71.8,0.2 	"/>
</g>
<g>
	<polygon class="st1" points="17.9,17.9 0,17.9 17.9,0 	"/>
</g>
<g>
	<path d="M87.7,13.4V9.9c0-0.4-0.3-0.8-0.8-0.8h-5.5c-0.4,0-0.8,0.3-0.8,0.8v3.4"/>
	<path d="M89.7,13.4h-4v-2.2h-3.1v2.2h-4V9.9c0-1.5,1.2-2.8,2.8-2.8h5.5c1.5,0,2.8,1.2,2.8,2.8V13.4z"/>
</g>
<g>
	<polygon points="84.2,78.7 78.6,66.4 78.6,64.5 82.6,64.5 82.6,65.6 84.2,69 85.7,65.6 85.7,64.5 89.7,64.5 89.7,66.4 	"/>
</g>
<rect x="78.6" y="16.1" class="st2" width="11.1" height="45.6"/>
<g>
	<polyline class="st3" points="16.4,73.3 16.4,62.9 55.4,62.9 55.4,73.3 	"/>
	<polygon points="57.4,73.3 53.4,73.3 53.4,64.9 18.4,64.9 18.4,73.3 14.4,73.3 14.4,60.9 57.4,60.9 	"/>
</g>
<g>
	<rect x="10.6" y="44.8" class="st3" width="33" height="11.4"/>
	<path d="M45.6,58.3h-37V42.8h37V58.3z M12.6,54.3h29v-7.4h-29V54.3z"/>
</g>
<g>
	<rect x="49.8" y="44.8" class="st3" width="11.4" height="11.4"/>
	<path d="M63.2,58.3H47.8V42.8h15.4V58.3z M51.8,54.3h7.4v-7.4h-7.4V54.3z"/>
</g>
<g>
	<line class="st3" x1="35.9" y1="37.8" x2="35.9" y2="44.9"/>
	<rect x="33.9" y="37.8" width="4" height="7.1"/>
</g>
<g>
	<line class="st3" x1="55.4" y1="37.8" x2="55.4" y2="44.9"/>
	<rect x="53.4" y="37.8" width="4" height="7.1"/>
</g>
<g>
	<line class="st3" x1="35.9" y1="56.6" x2="35.9" y2="69.8"/>
	<rect x="33.9" y="56.6" width="4" height="13.2"/>
</g>
<g>
	<rect x="10.6" y="26.5" class="st4" width="50.7" height="11.4"/>
	<path d="M63.2,39.9H8.6V24.5h54.7V39.9z M12.6,35.9h46.7v-7.4H12.6V35.9z"/>
</g>
<g>
	<rect x="30.2" y="70" class="st1" width="11.4" height="11.4"/>
	<path d="M43.6,83.4H28.2V68h15.4V83.4z M32.2,79.4h7.4V72h-7.4V79.4z"/>
</g>
<g>
	<rect x="49.8" y="70" class="st2" width="11.4" height="11.4"/>
	<path class="st2" d="M63.2,83.4H47.8V68h15.4V83.4z M51.8,79.4h7.4V72h-7.4V79.4z"/>
</g>
<g>
	<rect x="10.6" y="70" class="st1" width="11.4" height="11.4"/>
	<path d="M24,83.4H8.6V68H24V83.4z M12.6,79.4H20V72h-7.4V79.4z"/>
</g>
</svg>
