<?xml version="1.0" encoding="utf-8"?>
<!-- Generator: Adobe Illustrator 21.1.0, SVG Export Plug-In . SVG Version: 6.00 Build 0)  -->
<svg version="1.1" id="Layer_2" xmlns="http://www.w3.org/2000/svg" xmlns:xlink="http://www.w3.org/1999/xlink" x="0px" y="0px"
	 viewBox="0 0 125 50" style="enable-background:new 0 0 125 50;" xml:space="preserve">
<style type="text/css">
	.st0{fill:#477CBE;}
	.st1{fill:#D46337;}
</style>
<g>
	<path class="st0" d="M104.4,15.7c0.2,2.3-3,1-4.5,2c-1,0.8-1,1.6-1.2,3.4c0.7,0.3,2,0.2,2.7,0.7c0.2,0.7-0.2,0.8-0.3,1.3
		c-0.8,0.3-1.8,0-2.7,0.3c-1,2.3-1,5.2-2.5,6.9c-0.5,0.2-1.2,0.2-1.8,0.2c-1.5-1.6,0.2-4.4,0.7-7.2c0.8-4.1,1.7-7.5,6-7.8
		C102.2,15.4,103.2,15.4,104.4,15.7"/>
	<path class="st0" d="M86,23.2c-2.2,0.5-3.7,5.5-1,6c2.8,0.5,4.3-2.9,3.7-5.5C87.7,23.4,87,23,86,23.2 M91.4,28.3
		c0.2,0.3,0.7,0.2,1,0.3c0,0.7-0.2,1.3-0.3,1.8c-0.8,0.7-2.5,0.2-3.2-0.3c-3,1.3-8.8,1.3-8.8-2.3c-0.2-3.4,2.8-6,6.2-6.4
		c2.8-0.3,5.7,0.8,5.5,3.8C91.7,26.1,91,27,91.4,28.3"/>
	<path class="st0" d="M45.6,28.4c3,2.1,6.3-2,4.7-5.1C47.1,22.1,45.1,25.2,45.6,28.4 M54.6,28.6c-0.3,1-0.2,1.6-0.8,2
		c-1.2,0.7-2-0.5-2.8-0.5c-0.5,0-1,0.3-1.7,0.5c-3.2,0.8-7.3,0.5-7.2-3.3c0.2-1.8,1.3-3.9,2.5-4.7c2-1.5,9.2-2,9.5,1.8
		c0,0.7-0.2,1.3-0.3,1.8C53.4,27,52.9,28.7,54.6,28.6"/>
	<path class="st0" d="M63.6,23.9c-3.2-2.3-6,1.5-5,4.7C61.7,30.5,64.4,27.1,63.6,23.9 M66.7,23.2c0,2.6-0.7,4.9-1.2,7.2
		c-0.5,2.1-1,4.4-2.2,6c-0.5,0.2-0.8,0-1.3,0c-1-2.1,0.7-4.2,0.5-6c-1.3,0.2-2.5,0.5-3.7,0.3c-2-0.2-3.8-1.6-3.7-4.1
		c0.2-2.8,2.3-4.9,5.2-5.1C63.2,21.2,65.7,21.6,66.7,23.2"/>
	<path class="st0" d="M107.7,28.6c1.3-1,2.5-4.2,1.2-5.2c-0.8-0.7-2.8-0.2-3.5,0.3c-1.2,1-1.5,2.9-1.2,4.7
		C105.2,29.4,106.7,29.4,107.7,28.6 M106,21.6c2.3-0.3,5.7,0,6.3,1.6c0.5,1.3-0.2,2.9-0.5,3.9c-0.8,2-2.7,3.8-5.2,3.9
		c-2.8,0.3-5.5-0.7-5.8-3.1C100.5,24,102.9,22.1,106,21.6"/>
	<path class="st0" d="M120.9,30.4c-0.3-2.4,1.5-4.9,0.3-7c-3-0.7-4.2,0.8-4.7,2.9c-0.3,1.1-0.2,2.8-0.8,3.8
		c-0.5,0.5-1.8,1.1-2.5,0.7c-1-0.7,0.2-3.3,0.5-4.2c0.7-1.8,1.2-3.3,2.5-4.1c0.8-0.5,2.5-0.8,3.3-0.8c2.2-0.2,4.8,0.5,5.3,2.1
		c0.3,1,0,3.1-0.3,4.1C124,29.6,123,31.7,120.9,30.4"/>
	<path class="st0" d="M71.9,22.4c0,1.6-0.8,2.8-1,3.9c-0.2,0.7-0.3,1.5,0,2c0.5,1.1,2.7,0.8,3.5,0.3c1-0.5,1.5-1.8,1.8-3.4
		c0.3-1.5,0.5-3.3,1.7-3.6c0.7-0.2,1.7,0,1.8,0.3c0.3,0.5,0.2,1.8,0,2.3c-0.3,2-1.3,4.6-2.7,5.4c-2.2,1.5-7.5,1.6-8.7-0.2
		c-1.2-2,0-6.7,1.3-7.7C70.2,21.2,71.6,21.6,71.9,22.4"/>
	<path class="st1" d="M10.9,0c2.2-0.2,4.7,0.5,5.7,2.3c1.5,2.9-0.5,7.8,0.3,11.1c0.8,3.8,5.2,7,9.3,8c2.2,0.5,4.5-0.5,7.2,0.2
		c4.5,1.1,5.7,7.8,1.8,10c-2.5,1.5-6.3,0.7-7.8-1.5c-0.5-0.8-0.7-1.8-0.8-2.8c-0.3-1-0.5-2.4-1-2.9c-1.5-1.5-4.7-0.2-6,0.5
		c-3.7,1.8-6,4.1-7.7,7.8c-0.7,1.8-1.5,4.1-1.5,6.2c0,2.6,1.7,5.7,0.7,8.2c-0.3,0.8-1.2,1.5-1.8,2c-3,2-7.3,1-8.8-2.1
		c-0.7-1.3-0.5-3.1,0.2-4.4c1-2,3.3-2.4,5-3.9l0.2-0.2c2-2.3,3.8-5.5,5.5-9.5c1.5-3.8,3.2-7.7,3.2-11.6c0-2.4-0.5-4.7-1.8-5.9
		c-2-1.5-4.5-1-5.7-3.3C5.6,5.7,6.8,2.1,8.3,1C8.9,0.5,10.3,0.2,10.9,0"/>
</g>
</svg>
