<?xml version="1.0" encoding="utf-8"?>
<!-- Generator: Adobe Illustrator 21.1.0, SVG Export Plug-In . SVG Version: 6.00 Build 0)  -->
<svg version="1.1" id="Layer_1" xmlns="http://www.w3.org/2000/svg" xmlns:xlink="http://www.w3.org/1999/xlink" x="0px" y="0px"
	 viewBox="0 0 75 65" style="enable-background:new 0 0 75 65;" xml:space="preserve">
<style type="text/css">
	.st0{clip-path:url(#SVGID_2_);fill:url(#SVGID_3_);}
	.st1{clip-path:url(#SVGID_5_);fill:url(#SVGID_6_);}
	.st2{clip-path:url(#SVGID_8_);fill:url(#SVGID_9_);}
	.st3{clip-path:url(#SVGID_11_);fill:url(#SVGID_12_);}
	.st4{clip-path:url(#SVGID_14_);fill:url(#SVGID_15_);}
	.st5{clip-path:url(#SVGID_17_);fill:url(#SVGID_18_);}
	.st6{clip-path:url(#SVGID_20_);fill:url(#SVGID_21_);}
	.st7{clip-path:url(#SVGID_23_);fill:url(#SVGID_24_);}
	.st8{clip-path:url(#SVGID_26_);fill:url(#SVGID_27_);}
	.st9{clip-path:url(#SVGID_29_);fill:url(#SVGID_30_);}
	.st10{clip-path:url(#SVGID_32_);fill:url(#SVGID_33_);}
	.st11{clip-path:url(#SVGID_35_);fill:url(#SVGID_36_);}
	.st12{clip-path:url(#SVGID_38_);fill:url(#SVGID_39_);}
	.st13{clip-path:url(#SVGID_41_);fill:url(#SVGID_42_);}
	.st14{clip-path:url(#SVGID_44_);fill:url(#SVGID_45_);}
	.st15{clip-path:url(#SVGID_47_);fill:url(#SVGID_48_);}
	.st16{clip-path:url(#SVGID_50_);fill:url(#SVGID_51_);}
	.st17{clip-path:url(#SVGID_53_);fill:url(#SVGID_54_);}
	.st18{clip-path:url(#SVGID_56_);fill:url(#SVGID_57_);}
	.st19{clip-path:url(#SVGID_59_);fill:url(#SVGID_60_);}
	.st20{clip-path:url(#SVGID_62_);fill:url(#SVGID_63_);}
	.st21{clip-path:url(#SVGID_65_);fill:url(#SVGID_66_);}
	.st22{clip-path:url(#SVGID_68_);fill:url(#SVGID_69_);}
	.st23{clip-path:url(#SVGID_71_);fill:url(#SVGID_72_);}
	.st24{fill:#54B6EA;}
	.st25{fill:#428B95;}
</style>
<g>
	<g>
		<defs>
			<path id="SVGID_1_" d="M63,46.9c-1.1,3.9-2.6,7.4-4.5,10.3c3.3-1.1,5.9-3.1,7.4-6c1.5-3,2.3-6.5,2.5-10.2
				C66.7,43.2,64.9,45.2,63,46.9"/>
		</defs>
		<clipPath id="SVGID_2_">
			<use xlink:href="#SVGID_1_"  style="overflow:visible;"/>
		</clipPath>
		
			<linearGradient id="SVGID_3_" gradientUnits="userSpaceOnUse" x1="-511.0685" y1="-5.9808" x2="-510.7893" y2="-5.9808" gradientTransform="matrix(-42.8433 -23.4161 23.4161 -42.8433 -21684.2285 -12169.8965)">
			<stop  offset="0" style="stop-color:#54B5EA"/>
			<stop  offset="0.1028" style="stop-color:#5DB8EA"/>
			<stop  offset="0.2736" style="stop-color:#74C0ED"/>
			<stop  offset="0.491" style="stop-color:#96CDF1"/>
			<stop  offset="0.7455" style="stop-color:#C5E2F7"/>
			<stop  offset="1" style="stop-color:#FFFFFF"/>
		</linearGradient>
		<polygon class="st0" points="66.1,61.7 52.1,53.5 60.7,36.5 74.7,44.7 		"/>
	</g>
</g>
<g>
	<g>
		<defs>
			<path id="SVGID_4_" d="M6.7,19.9c-2.9,3.2-3.8,6.6-3.4,10c2.5-3.3,6.4-6.6,11.1-9.5c0.2-0.3,0.3-0.6,0.5-0.9
				c2.6-3.7,6.1-7.5,10-10.8C17.7,11,11.1,14.9,6.7,19.9"/>
		</defs>
		<clipPath id="SVGID_5_">
			<use xlink:href="#SVGID_4_"  style="overflow:visible;"/>
		</clipPath>
		
			<linearGradient id="SVGID_6_" gradientUnits="userSpaceOnUse" x1="-502.1534" y1="0.553" x2="-501.8736" y2="0.553" gradientTransform="matrix(45.2588 28.7642 -28.7642 45.2588 22749.207 14433.6201)">
			<stop  offset="0" style="stop-color:#54B5EA"/>
			<stop  offset="0.1028" style="stop-color:#5DB8EA"/>
			<stop  offset="0.2736" style="stop-color:#74C0ED"/>
			<stop  offset="0.491" style="stop-color:#96CDF1"/>
			<stop  offset="0.7455" style="stop-color:#C5E2F7"/>
			<stop  offset="1" style="stop-color:#FFFFFF"/>
		</linearGradient>
		<polygon class="st1" points="9.1,-2 33.7,14.8 18.5,40.6 -6.1,23.8 		"/>
	</g>
</g>
<g>
	<g>
		<defs>
			<path id="SVGID_7_" d="M0.1,37c-0.5,4.5,2,8.3,6.2,11.4c0.4,0.3,0.8,0.6,1.2,0.9c-1.3-3.4-1.3-7.1-0.3-10.8
				c-2.1-2.8-3.6-5.7-3.9-8.6C1.4,32.2,0.3,34.6,0.1,37"/>
		</defs>
		<clipPath id="SVGID_8_">
			<use xlink:href="#SVGID_7_"  style="overflow:visible;"/>
		</clipPath>
		
			<linearGradient id="SVGID_9_" gradientUnits="userSpaceOnUse" x1="-511.1719" y1="-6.5274" x2="-510.9035" y2="-6.5274" gradientTransform="matrix(-63.9664 5.5635 -5.5635 -63.9664 -32723.8594 2465.3506)">
			<stop  offset="0" style="stop-color:#D0E4EE"/>
			<stop  offset="1" style="stop-color:#7EC1DC"/>
		</linearGradient>
		<polygon class="st2" points="9,49.1 -0.3,50 -2,30 7.4,29.1 		"/>
	</g>
</g>
<g>
	<g>
		<defs>
			<path id="SVGID_10_" d="M67.5,30.8c0.7,3.4,1.1,6.8,0.9,10.2c0.8-1.1,1.6-2.2,2.3-3.4c4.5-7.6,5.2-13.9,3.6-18.7
				c-1.4-4-4.1-6.7-7.8-8.4C68.6,15.9,69,23.3,67.5,30.8"/>
		</defs>
		<clipPath id="SVGID_11_">
			<use xlink:href="#SVGID_10_"  style="overflow:visible;"/>
		</clipPath>
		
			<linearGradient id="SVGID_12_" gradientUnits="userSpaceOnUse" x1="-507.0202" y1="-7.0753" x2="-506.7425" y2="-7.0753" gradientTransform="matrix(-56.1266 20.363 -20.363 -56.1266 -28524.9453 9951.1445)">
			<stop  offset="0" style="stop-color:#54B5EA"/>
			<stop  offset="0.1028" style="stop-color:#5DB8EA"/>
			<stop  offset="0.2736" style="stop-color:#74C0ED"/>
			<stop  offset="0.491" style="stop-color:#96CDF1"/>
			<stop  offset="0.7455" style="stop-color:#C5E2F7"/>
			<stop  offset="1" style="stop-color:#FFFFFF"/>
		</linearGradient>
		<polygon class="st3" points="84.9,37.4 67.6,44.2 57.4,14 74.8,7.2 		"/>
	</g>
</g>
<g>
	<g>
		<defs>
			<path id="SVGID_13_" d="M64.3,41.2c-0.3,2-0.8,3.9-1.3,5.7c2-1.7,3.8-3.7,5.4-5.9c0.2-3.3-0.1-6.8-0.9-10.2
				C66.8,34.3,65.7,37.8,64.3,41.2"/>
		</defs>
		<clipPath id="SVGID_14_">
			<use xlink:href="#SVGID_13_"  style="overflow:visible;"/>
		</clipPath>
		
			<linearGradient id="SVGID_15_" gradientUnits="userSpaceOnUse" x1="-501.4298" y1="6.5178" x2="-501.1498" y2="6.5178" gradientTransform="matrix(20.5838 10.5714 -10.5714 20.5838 10451.7871 5203.3643)">
			<stop  offset="0" style="stop-color:#F2F4F3"/>
			<stop  offset="0.1009" style="stop-color:#EBF0F0"/>
			<stop  offset="0.2583" style="stop-color:#D8E5E8"/>
			<stop  offset="0.4524" style="stop-color:#B9D5DC"/>
			<stop  offset="0.6758" style="stop-color:#92C1CE"/>
			<stop  offset="0.9207" style="stop-color:#61ACBD"/>
			<stop  offset="1" style="stop-color:#4DA5B8"/>
		</linearGradient>
		<polygon class="st4" points="64.1,28.4 74.6,34.2 67.4,49.4 56.9,43.5 		"/>
	</g>
</g>
<g>
	<g>
		<defs>
			<path id="SVGID_16_" d="M3.2,29.9c0.4,2.9,1.7,5.8,3.9,8.6c0.8-3.1,2.3-6.2,4.3-9.3c0.4-2.9,1.3-5.8,2.8-8.8
				C9.7,23.3,5.8,26.6,3.2,29.9"/>
		</defs>
		<clipPath id="SVGID_17_">
			<use xlink:href="#SVGID_16_"  style="overflow:visible;"/>
		</clipPath>
		
			<linearGradient id="SVGID_18_" gradientUnits="userSpaceOnUse" x1="-510.6362" y1="-3.0545" x2="-510.3522" y2="-3.0545" gradientTransform="matrix(-96.5461 -81.5116 81.5116 -96.5461 -49024.1172 -41872.9961)">
			<stop  offset="0" style="stop-color:#F2F4F3"/>
			<stop  offset="0.1957" style="stop-color:#F2F4F3"/>
			<stop  offset="0.2744" style="stop-color:#EBF0F0"/>
			<stop  offset="0.3972" style="stop-color:#D8E5E8"/>
			<stop  offset="0.5486" style="stop-color:#B9D5DC"/>
			<stop  offset="0.7227" style="stop-color:#92C1CE"/>
			<stop  offset="0.9138" style="stop-color:#61ACBD"/>
			<stop  offset="0.9756" style="stop-color:#4DA5B8"/>
			<stop  offset="1" style="stop-color:#4DA5B8"/>
		</linearGradient>
		<polygon class="st5" points="9.7,44.3 -5,30.9 7.8,14.5 22.6,27.9 		"/>
	</g>
</g>
<g>
	<g>
		<defs>
			<path id="SVGID_19_" d="M53.4,1.7c-0.1,0-0.3,0-0.4,0.1c2.9,1.5,5.2,3.8,7,6.8c2.4,0.4,4.6,1,6.5,1.9c-2.1-5.3-6-8.8-11.7-8.8
				C54.3,1.7,53.8,1.7,53.4,1.7"/>
		</defs>
		<clipPath id="SVGID_20_">
			<use xlink:href="#SVGID_19_"  style="overflow:visible;"/>
		</clipPath>
		
			<linearGradient id="SVGID_21_" gradientUnits="userSpaceOnUse" x1="-512.1823" y1="2.8421" x2="-511.8962" y2="2.8421" gradientTransform="matrix(35.1563 -38.0298 38.0298 35.1563 17953.9004 -19567.5586)">
			<stop  offset="0" style="stop-color:#F2F4F3"/>
			<stop  offset="0.1009" style="stop-color:#EBF0F0"/>
			<stop  offset="0.2583" style="stop-color:#D8E5E8"/>
			<stop  offset="0.4524" style="stop-color:#B9D5DC"/>
			<stop  offset="0.6758" style="stop-color:#92C1CE"/>
			<stop  offset="0.9207" style="stop-color:#61ACBD"/>
			<stop  offset="1" style="stop-color:#4DA5B8"/>
		</linearGradient>
		<polygon class="st6" points="48.9,6.4 59.2,-5.6 70.5,5.7 60.2,17.7 		"/>
	</g>
</g>
<g>
	<g>
		<defs>
			<path id="SVGID_22_" d="M8,50.5c3.9,8.2,13.1,12.3,22.3,13.2c2.6,0.3,5,0.2,7.4-0.1c-4.4-1.4-9-4-13.1-7.3
				c-6.1-1.2-11.9-3.6-17-7.1C7.6,49.7,7.8,50.1,8,50.5"/>
		</defs>
		<clipPath id="SVGID_23_">
			<use xlink:href="#SVGID_22_"  style="overflow:visible;"/>
		</clipPath>
		
			<linearGradient id="SVGID_24_" gradientUnits="userSpaceOnUse" x1="-506.2661" y1="-6.0996" x2="-505.974" y2="-6.0996" gradientTransform="matrix(-24.0051 56.4957 -56.4957 -24.0051 -12473.7412 28509.084)">
			<stop  offset="0" style="stop-color:#F2F4F3"/>
			<stop  offset="0.1009" style="stop-color:#EBF0F0"/>
			<stop  offset="0.2583" style="stop-color:#D8E5E8"/>
			<stop  offset="0.4524" style="stop-color:#B9D5DC"/>
			<stop  offset="0.6758" style="stop-color:#92C1CE"/>
			<stop  offset="0.9207" style="stop-color:#61ACBD"/>
			<stop  offset="1" style="stop-color:#4DA5B8"/>
		</linearGradient>
		<polygon class="st7" points="42.5,51.5 33,75.6 2.6,61.7 12.1,37.6 		"/>
	</g>
</g>
<g>
	<g>
		<defs>
			<path id="SVGID_25_" d="M64.7,22.5c1.2,2.6,2.2,5.4,2.8,8.3c1.5-7.5,1.1-14.9-1-20.3C64.5,9.6,62.3,9,60,8.6
				C62.4,12.4,63.9,17.3,64.7,22.5"/>
		</defs>
		<clipPath id="SVGID_26_">
			<use xlink:href="#SVGID_25_"  style="overflow:visible;"/>
		</clipPath>
		
			<linearGradient id="SVGID_27_" gradientUnits="userSpaceOnUse" x1="-509.8124" y1="-2.2549" x2="-509.5267" y2="-2.2549" gradientTransform="matrix(-14.6017 -166.0431 166.0431 -14.6017 -7002.3535 -84631.1094)">
			<stop  offset="0" style="stop-color:#F2F4F3"/>
			<stop  offset="0.1009" style="stop-color:#EBF0F0"/>
			<stop  offset="0.2583" style="stop-color:#D8E5E8"/>
			<stop  offset="0.4524" style="stop-color:#B9D5DC"/>
			<stop  offset="0.6758" style="stop-color:#92C1CE"/>
			<stop  offset="0.9207" style="stop-color:#61ACBD"/>
			<stop  offset="1" style="stop-color:#4DA5B8"/>
		</linearGradient>
		<polygon class="st8" points="60.1,31.6 58.2,8.7 68.9,7.7 70.8,30.6 		"/>
	</g>
</g>
<g>
	<g>
		<defs>
			<path id="SVGID_28_" d="M7.5,49.3c5.1,3.5,10.9,5.9,17,7.1c-3.5-2.9-6.7-6.3-9-10.1c-3.3-2.4-6.2-5.1-8.3-7.8
				C6.2,42.2,6.2,45.8,7.5,49.3"/>
		</defs>
		<clipPath id="SVGID_29_">
			<use xlink:href="#SVGID_28_"  style="overflow:visible;"/>
		</clipPath>
		
			<linearGradient id="SVGID_30_" gradientUnits="userSpaceOnUse" x1="-508.4697" y1="-7.1303" x2="-508.1891" y2="-7.1303" gradientTransform="matrix(-50.6388 34.1044 -34.1044 -50.6388 -25969.0293 17022.6172)">
			<stop  offset="0" style="stop-color:#D0E4EE"/>
			<stop  offset="0.1192" style="stop-color:#C9E0EB"/>
			<stop  offset="0.2981" style="stop-color:#B8D6E3"/>
			<stop  offset="0.5145" style="stop-color:#9DC8D7"/>
			<stop  offset="0.7581" style="stop-color:#7AB6C8"/>
			<stop  offset="1" style="stop-color:#4DA5B8"/>
		</linearGradient>
		<polygon class="st9" points="32.2,50.8 11.9,65.5 -1.5,44.1 18.8,29.3 		"/>
	</g>
</g>
<g>
	<g>
		<defs>
			<path id="SVGID_31_" d="M51,58.4c-3.8,2.7-8.3,4.6-13.4,5.2c4.6,1.5,9.1,1.8,12.6,0.7c3.2-1.1,6-3.6,8.2-7.1
				C56.2,58,53.7,58.4,51,58.4"/>
		</defs>
		<clipPath id="SVGID_32_">
			<use xlink:href="#SVGID_31_"  style="overflow:visible;"/>
		</clipPath>
		
			<linearGradient id="SVGID_33_" gradientUnits="userSpaceOnUse" x1="-512.2548" y1="-3.1477" x2="-511.9649" y2="-3.1477" gradientTransform="matrix(-28.9218 -41.7126 41.7126 -28.9218 -14630.9082 -21389.8574)">
			<stop  offset="0" style="stop-color:#54B5EA"/>
			<stop  offset="0.1028" style="stop-color:#5DB8EA"/>
			<stop  offset="0.2736" style="stop-color:#74C0ED"/>
			<stop  offset="0.491" style="stop-color:#96CDF1"/>
			<stop  offset="0.7455" style="stop-color:#C5E2F7"/>
			<stop  offset="1" style="stop-color:#FFFFFF"/>
		</linearGradient>
		<polygon class="st10" points="44.4,76 34,59.9 51.7,46.7 62,62.8 		"/>
	</g>
</g>
<g>
	<g>
		<defs>
			<path id="SVGID_34_" d="M39.3,0.9c-5.1,1.4-10.1,4.3-14.5,7.9c4.3-1.3,8.8-2.1,13.2-2.1C43.3,4,48.4,2.3,53,1.8
				C50.8,0.7,48.2,0,45.3,0C43.5,0,41.5,0.3,39.3,0.9"/>
		</defs>
		<clipPath id="SVGID_35_">
			<use xlink:href="#SVGID_34_"  style="overflow:visible;"/>
		</clipPath>
		
			<linearGradient id="SVGID_36_" gradientUnits="userSpaceOnUse" x1="-499.2124" y1="-3.6783" x2="-498.9201" y2="-3.6783" gradientTransform="matrix(7.2328 39.4985 -39.4985 7.2328 3502.9102 19741.5625)">
			<stop  offset="0" style="stop-color:#54B5EA"/>
			<stop  offset="0.1028" style="stop-color:#5DB8EA"/>
			<stop  offset="0.2736" style="stop-color:#74C0ED"/>
			<stop  offset="0.491" style="stop-color:#96CDF1"/>
			<stop  offset="0.7455" style="stop-color:#C5E2F7"/>
			<stop  offset="1" style="stop-color:#FFFFFF"/>
		</linearGradient>
		<polygon class="st11" points="52,-5.3 54.4,8.4 25.7,14.1 23.4,0.3 		"/>
	</g>
</g>
<g>
	<g>
		<defs>
			<path id="SVGID_37_" d="M24.8,8.7c-4,3.3-7.5,7.1-10,10.8c-0.2,0.3-0.3,0.6-0.5,0.9c3.4-2.1,7.2-4.1,11.2-5.8
				c4-3.1,8.3-5.8,12.6-7.9C33.6,6.7,29.1,7.4,24.8,8.7"/>
		</defs>
		<clipPath id="SVGID_38_">
			<use xlink:href="#SVGID_37_"  style="overflow:visible;"/>
		</clipPath>
		
			<linearGradient id="SVGID_39_" gradientUnits="userSpaceOnUse" x1="-498.8734" y1="-1.8392" x2="-498.5825" y2="-1.8392" gradientTransform="matrix(18.0127 32.9346 -32.9346 18.0127 8949.2949 16472.5195)">
			<stop  offset="0" style="stop-color:#54B5EA"/>
			<stop  offset="0.1002" style="stop-color:#5DB8EA"/>
			<stop  offset="0.2664" style="stop-color:#74C0ED"/>
			<stop  offset="0.4783" style="stop-color:#96CDF1"/>
			<stop  offset="0.7261" style="stop-color:#C5E2F7"/>
			<stop  offset="0.974" style="stop-color:#FFFFFF"/>
			<stop  offset="1" style="stop-color:#FFFFFF"/>
		</linearGradient>
		<polygon class="st12" points="32.6,-4.1 43.4,17.2 19.8,31.1 8.9,9.8 		"/>
	</g>
</g>
<g>
	<g>
		<defs>
			<path id="SVGID_40_" d="M59.7,49.5C57.3,53,54.4,56,51,58.4c2.7-0.1,5.2-0.5,7.4-1.2c1.9-2.9,3.4-6.4,4.5-10.3
				C61.9,47.9,60.8,48.7,59.7,49.5"/>
		</defs>
		<clipPath id="SVGID_41_">
			<use xlink:href="#SVGID_40_"  style="overflow:visible;"/>
		</clipPath>
		
			<linearGradient id="SVGID_42_" gradientUnits="userSpaceOnUse" x1="-504.6967" y1="1.0162" x2="-504.4181" y2="1.0162" gradientTransform="matrix(38.9413 23.3651 -23.3651 38.9413 19732.7148 11804.4482)">
			<stop  offset="0" style="stop-color:#54B5EA"/>
			<stop  offset="0.1028" style="stop-color:#5DB8EA"/>
			<stop  offset="0.2736" style="stop-color:#74C0ED"/>
			<stop  offset="0.491" style="stop-color:#96CDF1"/>
			<stop  offset="0.7455" style="stop-color:#C5E2F7"/>
			<stop  offset="1" style="stop-color:#FFFFFF"/>
		</linearGradient>
		<polygon class="st13" points="54.2,41.2 67.7,50 59.8,64.1 46.3,55.4 		"/>
	</g>
</g>
<g>
	<g>
		<defs>
			<path id="SVGID_43_" d="M59.7,49.5c1.1-0.8,2.2-1.7,3.3-2.6c0.5-1.8,1-3.7,1.3-5.7C63,44.1,61.5,46.9,59.7,49.5"/>
		</defs>
		<clipPath id="SVGID_44_">
			<use xlink:href="#SVGID_43_"  style="overflow:visible;"/>
		</clipPath>
		
			<linearGradient id="SVGID_45_" gradientUnits="userSpaceOnUse" x1="-505.1679" y1="11.2525" x2="-504.9029" y2="11.2525" gradientTransform="matrix(17.3281 0 0 17.3281 8813.29 -149.6129)">
			<stop  offset="0" style="stop-color:#4BA1B4"/>
			<stop  offset="1" style="stop-color:#3A7A86"/>
		</linearGradient>
		<rect x="59.7" y="41.2" class="st14" width="4.6" height="8.3"/>
	</g>
</g>
<g>
	<g>
		<defs>
			<path id="SVGID_46_" d="M37.6,63.6c5.1-0.6,9.5-2.5,13.4-5.2c-3.6,0.1-7.6-0.4-11.6-1.4c-5,0.5-10,0.3-14.9-0.7
				C28.6,59.7,33.2,62.2,37.6,63.6"/>
		</defs>
		<clipPath id="SVGID_47_">
			<use xlink:href="#SVGID_46_"  style="overflow:visible;"/>
		</clipPath>
		
			<linearGradient id="SVGID_48_" gradientUnits="userSpaceOnUse" x1="-504.0829" y1="-5.0087" x2="-503.7935" y2="-5.0087" gradientTransform="matrix(-3.338 49.5132 -49.5132 -3.338 -1892.1252 24990.7754)">
			<stop  offset="0" style="stop-color:#F2F4F3"/>
			<stop  offset="0.1009" style="stop-color:#EBF0F0"/>
			<stop  offset="0.2583" style="stop-color:#D8E5E8"/>
			<stop  offset="0.4524" style="stop-color:#B9D5DC"/>
			<stop  offset="0.6758" style="stop-color:#92C1CE"/>
			<stop  offset="0.9207" style="stop-color:#61ACBD"/>
			<stop  offset="1" style="stop-color:#4DA5B8"/>
		</linearGradient>
		<polygon class="st15" points="51.5,56.4 50.9,65.5 24,63.6 24.6,54.4 		"/>
	</g>
</g>
<g>
	<g>
		<defs>
			<path id="SVGID_49_" d="M38,6.6c3.8,0,7.6,0.5,11.1,1.7C53,8,56.7,8,60,8.6c-1.8-2.9-4.2-5.3-7-6.8C48.4,2.3,43.3,4,38,6.6"/>
		</defs>
		<clipPath id="SVGID_50_">
			<use xlink:href="#SVGID_49_"  style="overflow:visible;"/>
		</clipPath>
		
			<linearGradient id="SVGID_51_" gradientUnits="userSpaceOnUse" x1="-506.2861" y1="3.8321" x2="-506.021" y2="3.8321" gradientTransform="matrix(54.5156 -0.5541 0.5541 54.5156 27634.0215 -484.1132)">
			<stop  offset="0" style="stop-color:#D0E4EE"/>
			<stop  offset="1" style="stop-color:#7EC1DC"/>
		</linearGradient>
		<polygon class="st16" points="38,1.8 60,1.6 60,8.6 38,8.8 		"/>
	</g>
</g>
<g>
	<g>
		<defs>
			<path id="SVGID_52_" d="M7.2,38.5c2.1,2.8,5,5.4,8.3,7.8c-3.1-5.1-4.8-10.9-4-17.1C9.5,32.2,8,35.4,7.2,38.5"/>
		</defs>
		<clipPath id="SVGID_53_">
			<use xlink:href="#SVGID_52_"  style="overflow:visible;"/>
		</clipPath>
		
			<linearGradient id="SVGID_54_" gradientUnits="userSpaceOnUse" x1="-503.3895" y1="-13.3907" x2="-503.1018" y2="-13.3907" gradientTransform="matrix(-12.8263 22.5077 -22.5077 -12.8263 -6745.5742 11194.1592)">
			<stop  offset="0" style="stop-color:#4BA1B4"/>
			<stop  offset="1" style="stop-color:#3A7A86"/>
		</linearGradient>
		<polygon class="st17" points="22.3,33.4 13.5,50.1 0.3,42.1 9.2,25.3 		"/>
	</g>
</g>
<g>
	<g>
		<defs>
			<path id="SVGID_55_" d="M64.3,41.2c1.5-3.4,2.5-6.9,3.2-10.4c-0.6-2.9-1.6-5.7-2.8-8.3C65.5,28.5,65.4,35.1,64.3,41.2"/>
		</defs>
		<clipPath id="SVGID_56_">
			<use xlink:href="#SVGID_55_"  style="overflow:visible;"/>
		</clipPath>
		
			<linearGradient id="SVGID_57_" gradientUnits="userSpaceOnUse" x1="-513.4792" y1="20.7149" x2="-513.1988" y2="20.7149" gradientTransform="matrix(10.847 -4.1719 4.1719 10.847 5548.603 -2334.8149)">
			<stop  offset="0" style="stop-color:#4BA1B4"/>
			<stop  offset="1" style="stop-color:#3A7A86"/>
		</linearGradient>
		<polygon class="st18" points="58.5,24.9 67.1,21.3 73.3,38.8 64.7,42.3 		"/>
	</g>
</g>
<g>
	<g>
		<defs>
			<path id="SVGID_58_" d="M14.3,20.4c-1.5,3-2.4,5.9-2.8,8.8c3.5-5.3,8.4-10.3,14-14.6C21.5,16.3,17.7,18.3,14.3,20.4"/>
		</defs>
		<clipPath id="SVGID_59_">
			<use xlink:href="#SVGID_58_"  style="overflow:visible;"/>
		</clipPath>
		
			<linearGradient id="SVGID_60_" gradientUnits="userSpaceOnUse" x1="-515.433" y1="-15.1023" x2="-515.1677" y2="-15.1023" gradientTransform="matrix(-23.3647 0.4172 -0.4172 -23.3647 -12029.1387 -115.9643)">
			<stop  offset="0" style="stop-color:#4BA1B4"/>
			<stop  offset="1" style="stop-color:#3A7A86"/>
		</linearGradient>
		<polygon class="st19" points="25.7,29.2 11.5,29.4 11.3,14.6 25.5,14.3 		"/>
	</g>
</g>
<g>
	<g>
		<defs>
			<path id="SVGID_61_" d="M38,6.6c-4.3,2.1-8.6,4.9-12.6,7.9c7.6-3.3,16-5.5,23.7-6.2c-3.4-1.2-7.2-1.7-11-1.7
				C38.1,6.6,38.1,6.6,38,6.6"/>
		</defs>
		<clipPath id="SVGID_62_">
			<use xlink:href="#SVGID_61_"  style="overflow:visible;"/>
		</clipPath>
		
			<linearGradient id="SVGID_63_" gradientUnits="userSpaceOnUse" x1="-509.5348" y1="-9.6681" x2="-509.2681" y2="-9.6681" gradientTransform="matrix(-46.1714 7.7901 -7.7901 -46.1714 -23558.5742 3532.6624)">
			<stop  offset="0" style="stop-color:#4BA1B4"/>
			<stop  offset="1" style="stop-color:#3A7A86"/>
		</linearGradient>
		<polygon class="st20" points="50.4,14.4 26.1,18.8 24.3,6.9 48.5,2.5 		"/>
	</g>
</g>
<g>
	<g>
		<defs>
			<path id="SVGID_64_" d="M39.4,57.1c4.1,0.9,8,1.5,11.6,1.4c3.4-2.4,6.3-5.5,8.7-8.9C53.7,53.8,46.6,56.3,39.4,57.1"/>
		</defs>
		<clipPath id="SVGID_65_">
			<use xlink:href="#SVGID_64_"  style="overflow:visible;"/>
		</clipPath>
		
			<linearGradient id="SVGID_66_" gradientUnits="userSpaceOnUse" x1="-496.1003" y1="-3.9694" x2="-495.8083" y2="-3.9694" gradientTransform="matrix(4.5889 17.9386 -17.9386 4.5889 2254.8313 8971.3643)">
			<stop  offset="0" style="stop-color:#4BA1B4"/>
			<stop  offset="1" style="stop-color:#3A7A86"/>
		</linearGradient>
		<polygon class="st21" points="58.4,44.3 61.7,58 40.6,63.7 37.4,50.1 		"/>
	</g>
</g>
<g>
	<g>
		<defs>
			<path id="SVGID_67_" d="M49.1,8.4c3.5,1.2,6.7,3,9.4,5.5c2.4,2.3,4.5,5.3,6.1,8.7c-0.8-5.3-2.3-10.1-4.7-14
				c-1.9-0.3-3.9-0.5-6.1-0.5C52.3,8.1,50.8,8.2,49.1,8.4"/>
		</defs>
		<clipPath id="SVGID_68_">
			<use xlink:href="#SVGID_67_"  style="overflow:visible;"/>
		</clipPath>
		
			<linearGradient id="SVGID_69_" gradientUnits="userSpaceOnUse" x1="-507.1819" y1="9.4389" x2="-506.915" y2="9.4389" gradientTransform="matrix(26.7005 -2.9204 2.9204 26.7005 13569.7598 -1717.7162)">
			<stop  offset="0" style="stop-color:#4BA1B4"/>
			<stop  offset="1" style="stop-color:#3A7A86"/>
		</linearGradient>
		<polygon class="st22" points="47.7,8.3 64.5,6.3 66.1,22.3 49.3,24.3 		"/>
	</g>
</g>
<g>
	<g>
		<defs>
			<path id="SVGID_70_" d="M24.5,56.4c4.9,1,9.9,1.2,14.9,0.7c-8.3-2-17.1-5.9-23.9-10.8C17.8,50.1,21,53.5,24.5,56.4"/>
		</defs>
		<clipPath id="SVGID_71_">
			<use xlink:href="#SVGID_70_"  style="overflow:visible;"/>
		</clipPath>
		
			<linearGradient id="SVGID_72_" gradientUnits="userSpaceOnUse" x1="-504.7201" y1="-10.0535" x2="-504.429" y2="-10.0535" gradientTransform="matrix(-14.9585 26.75 -26.75 -14.9585 -7792.125 13404.1758)">
			<stop  offset="0" style="stop-color:#4BA1B4"/>
			<stop  offset="1" style="stop-color:#3A7A86"/>
		</linearGradient>
		<polygon class="st23" points="43.9,49 33.7,68.5 11,54.9 21.2,35.3 		"/>
	</g>
</g>
<path class="st24" d="M20.3,31.7c-0.3-0.3-0.6-0.5-0.9-0.7c-0.3-0.2-0.7-0.3-1-0.3c-0.3-0.1-0.7-0.1-1.1,0c-0.4,0.1-0.7,0.2-1,0.4
	v-1.8c0-0.1,0-0.3-0.1-0.4c-0.1-0.1-0.1-0.3-0.2-0.3c-0.1-0.1-0.2-0.2-0.3-0.2c-0.1-0.1-0.2-0.1-0.3-0.1c-0.1,0-0.2,0-0.3,0.1
	c-0.1,0.1-0.2,0.1-0.3,0.2c-0.1,0.1-0.2,0.2-0.2,0.3c-0.1,0.1-0.1,0.3-0.1,0.4v5.3c0,0.5,0.1,1,0.3,1.5c0.2,0.5,0.5,0.9,0.8,1.2
	c0.3,0.3,0.7,0.6,1.1,0.8c0.4,0.2,0.9,0.3,1.3,0.3c0.5,0,0.9-0.1,1.3-0.3c0.4-0.2,0.8-0.5,1.1-0.8c0.3-0.3,0.6-0.8,0.7-1.2
	c0.2-0.5,0.3-1,0.3-1.5c0-0.6-0.1-1.1-0.2-1.5C20.9,32.5,20.6,32.1,20.3,31.7 M19.3,35.2c-0.1,0.2-0.2,0.4-0.3,0.6
	c-0.2,0.2-0.3,0.3-0.5,0.4s-0.4,0.1-0.6,0.1c-0.2,0-0.4-0.1-0.6-0.1s-0.4-0.2-0.5-0.4c-0.2-0.2-0.3-0.3-0.3-0.6
	c-0.1-0.2-0.1-0.5-0.1-0.7c0-0.2,0.1-0.5,0.1-0.7c0.1-0.2,0.2-0.4,0.3-0.6c0.2-0.2,0.3-0.3,0.5-0.4c0.2-0.1,0.4-0.1,0.6-0.1
	c0.2,0,0.4,0.1,0.6,0.1c0.2,0.1,0.4,0.2,0.5,0.4c0.2,0.2,0.3,0.3,0.3,0.6c0.1,0.2,0.1,0.5,0.1,0.7C19.4,34.7,19.4,35,19.3,35.2"/>
<path class="st24" d="M28.5,33c-0.2-0.5-0.5-0.9-0.8-1.2c-0.3-0.3-0.7-0.6-1.1-0.9c-0.4-0.2-0.8-0.3-1.3-0.3s-0.9,0.1-1.3,0.3
	c-0.4,0.2-0.8,0.5-1.1,0.9c-0.3,0.3-0.6,0.8-0.7,1.2c-0.2,0.5-0.3,0.9-0.3,1.5s0.1,1,0.3,1.5c0.2,0.5,0.5,0.9,0.8,1.3
	c0.3,0.3,0.7,0.6,1.1,0.9c0.4,0.2,0.8,0.3,1.3,0.3c0.3,0,0.7-0.1,1-0.1c0.3-0.1,0.6-0.3,0.9-0.5c0.1-0.2,0.2-0.3,0.2-0.6
	c0-0.2,0-0.4-0.1-0.6c-0.1-0.2-0.2-0.3-0.3-0.4C26.8,36,26.7,36,26.5,36c-0.1,0-0.2,0-0.3,0.1c-0.1,0-0.2,0.1-0.2,0.1
	c-0.1,0-0.2,0.1-0.3,0.1s-0.2,0.1-0.4,0.1c-0.6,0-1-0.3-1.3-0.7h3.8c0.3,0,0.5-0.1,0.7-0.3c0.2-0.2,0.3-0.5,0.3-0.7
	C28.8,34,28.7,33.5,28.5,33 M24,33.4c0.2-0.2,0.3-0.4,0.6-0.5c0.2-0.1,0.5-0.2,0.7-0.2c0.3,0,0.5,0.1,0.7,0.2
	c0.2,0.1,0.4,0.3,0.6,0.5H24z"/>
<path class="st25" d="M34.7,34.9c0.3,0,0.5,0.1,0.7,0.3c0.2,0.2,0.3,0.5,0.3,0.8c0,0.1,0,0.2-0.1,0.3c0,0.1-0.1,0.2-0.1,0.3
	c-0.3,0.5-0.7,1-1.2,1.3c-0.5,0.3-1.1,0.5-1.6,0.5c-0.4,0-0.8-0.1-1.2-0.3c-0.4-0.2-0.7-0.4-1-0.8c-0.3-0.3-0.5-0.7-0.7-1.1
	c-0.2-0.4-0.3-0.9-0.3-1.4v-2.9c0-0.5,0.1-0.9,0.2-1.4c0.2-0.4,0.4-0.8,0.7-1.1c0.3-0.3,0.6-0.6,1-0.8c0.4-0.2,0.8-0.3,1.3-0.3
	c0.6,0,1.1,0.2,1.6,0.5c0.5,0.3,0.9,0.8,1.2,1.3c0.1,0.1,0.1,0.2,0.1,0.3c0,0.1,0.1,0.2,0.1,0.3c0,0.3-0.1,0.5-0.3,0.8
	c-0.2,0.2-0.4,0.3-0.7,0.3c-0.2,0-0.4-0.1-0.5-0.2c-0.1-0.1-0.3-0.3-0.4-0.5c-0.1-0.2-0.3-0.4-0.5-0.5c-0.2-0.1-0.4-0.2-0.7-0.2
	c-0.2,0-0.3,0-0.5,0.1c-0.2,0.1-0.3,0.2-0.4,0.3c-0.1,0.1-0.2,0.3-0.3,0.5c-0.1,0.2-0.1,0.4-0.1,0.6v2.9c0,0.2,0,0.4,0.1,0.6
	c0.1,0.2,0.2,0.3,0.3,0.5c0.1,0.1,0.3,0.2,0.4,0.3c0.2,0.1,0.3,0.1,0.5,0.1c0.2,0,0.5-0.1,0.7-0.2c0.2-0.1,0.3-0.3,0.5-0.5
	c0.1-0.2,0.2-0.3,0.3-0.5C34.3,34.9,34.5,34.9,34.7,34.9"/>
<path class="st25" d="M37.3,28.2c0.3,0,0.5,0.1,0.7,0.3s0.3,0.5,0.3,0.7v6.3c0,0.2,0.1,0.4,0.2,0.5c0.1,0.1,0.3,0.2,0.5,0.2
	c0.2,0,0.5,0.1,0.7,0.3s0.3,0.4,0.3,0.7c0,0.3-0.1,0.5-0.2,0.7c-0.2,0.2-0.4,0.3-0.6,0.4h-0.2c-0.3,0-0.7-0.1-1-0.2
	c-0.3-0.1-0.6-0.4-0.8-0.6c-0.2-0.3-0.4-0.5-0.5-0.9s-0.2-0.7-0.2-1.1v-6.4c0-0.3,0.1-0.5,0.3-0.7C36.8,28.3,37,28.2,37.3,28.2"/>
<path class="st25" d="M43.3,30.8c0.5,0,0.9,0.1,1.3,0.3c0.4,0.2,0.8,0.5,1.1,0.8c0.3,0.3,0.6,0.8,0.7,1.2c0.2,0.5,0.3,1,0.3,1.5
	s-0.1,1-0.3,1.5c-0.2,0.5-0.4,0.9-0.7,1.2c-0.3,0.3-0.7,0.6-1.1,0.8c-0.4,0.2-0.9,0.3-1.4,0.3c-0.5,0-0.9-0.1-1.4-0.3
	c-0.4-0.2-0.8-0.5-1.1-0.8c-0.3-0.3-0.6-0.7-0.7-1.2c-0.2-0.5-0.3-1-0.3-1.5c0-0.5,0.1-1,0.3-1.5c0.2-0.5,0.4-0.9,0.7-1.2
	c0.3-0.3,0.7-0.6,1.1-0.8C42.4,30.9,42.8,30.8,43.3,30.8 M43.3,32.8c-0.2,0-0.4,0.1-0.6,0.1s-0.4,0.2-0.5,0.4
	c-0.2,0.2-0.3,0.3-0.3,0.6c-0.1,0.2-0.1,0.5-0.1,0.7s0.1,0.5,0.1,0.7c0.1,0.2,0.2,0.4,0.3,0.6c0.1,0.2,0.3,0.3,0.5,0.4
	c0.2,0.1,0.4,0.1,0.6,0.1c0.2,0,0.4-0.1,0.6-0.1c0.2-0.1,0.4-0.2,0.5-0.4c0.1-0.2,0.3-0.4,0.3-0.6c0.1-0.2,0.1-0.5,0.1-0.7
	c0-0.5-0.2-0.9-0.5-1.3C44.1,33,43.8,32.9,43.3,32.8"/>
<path class="st25" d="M48.3,30.6c0.2,0,0.5,0.1,0.7,0.3c0.2,0.2,0.3,0.5,0.3,0.7v2.8c0,0.3,0.1,0.5,0.1,0.7c0.1,0.2,0.2,0.4,0.3,0.6
	c0.1,0.2,0.3,0.3,0.5,0.4c0.2,0.1,0.4,0.1,0.6,0.1s0.4-0.1,0.6-0.1c0.2-0.1,0.4-0.2,0.5-0.3c0.2-0.1,0.3-0.3,0.3-0.5
	c0.1-0.2,0.1-0.4,0.1-0.7v-2.9c0-0.2,0.1-0.4,0.1-0.5c0,0,0-0.1,0.1-0.1c0,0,0.1-0.1,0.1-0.1c0.2-0.2,0.4-0.3,0.6-0.3
	c0.3,0,0.5,0.1,0.7,0.3c0.2,0.2,0.3,0.4,0.3,0.7v2.9c0,0.5-0.1,1-0.3,1.5c-0.2,0.5-0.4,0.9-0.7,1.2c-0.3,0.3-0.7,0.6-1.1,0.8
	s-0.9,0.3-1.4,0.3c-0.5,0-0.9-0.1-1.3-0.3c-0.4-0.2-0.8-0.5-1.1-0.8c-0.3-0.3-0.6-0.7-0.8-1.2s-0.3-0.9-0.3-1.5v-2.9
	c0-0.3,0.1-0.5,0.3-0.7C47.9,30.7,48.1,30.6,48.3,30.6"/>
<path class="st25" d="M61.1,28.2c0.2,0,0.5,0.1,0.7,0.3c0.2,0.2,0.3,0.5,0.3,0.8v5.3c0,0.5-0.1,1-0.3,1.5c-0.2,0.5-0.5,0.9-0.8,1.2
	c-0.3,0.3-0.7,0.6-1.1,0.8c-0.4,0.2-0.9,0.3-1.3,0.3c-0.5,0-0.9-0.1-1.3-0.3c-0.4-0.2-0.8-0.5-1.1-0.8c-0.3-0.3-0.6-0.8-0.8-1.2
	c-0.2-0.5-0.3-1-0.3-1.5c0-0.5,0.1-1,0.3-1.5c0.2-0.5,0.5-0.9,0.8-1.2c0.3-0.3,0.7-0.6,1.1-0.8c0.4-0.2,0.9-0.3,1.3-0.3
	c0.6,0,1.1,0.1,1.6,0.4v-1.8c0-0.1,0-0.3,0.1-0.4s0.1-0.2,0.2-0.3c0.1-0.1,0.2-0.2,0.3-0.2C60.8,28.2,61,28.2,61.1,28.2 M58.5,32.7
	c-0.2,0-0.4,0.1-0.6,0.1c-0.2,0.1-0.4,0.2-0.5,0.4c-0.2,0.2-0.3,0.4-0.3,0.6c-0.1,0.2-0.1,0.5-0.1,0.7c0,0.3,0.1,0.5,0.1,0.7
	c0.1,0.2,0.2,0.4,0.3,0.6c0.2,0.2,0.3,0.3,0.5,0.4c0.2,0.1,0.4,0.1,0.6,0.1c0.2,0,0.4-0.1,0.6-0.1c0.2-0.1,0.4-0.2,0.5-0.4
	c0.2-0.2,0.3-0.4,0.3-0.6c0.1-0.2,0.1-0.5,0.1-0.7c0-0.3-0.1-0.5-0.1-0.7s-0.2-0.4-0.3-0.6c-0.2-0.2-0.3-0.3-0.5-0.4
	C58.9,32.7,58.8,32.7,58.5,32.7"/>
</svg>
