<?xml version="1.0" encoding="utf-8"?>
<!-- Generator: Adobe Illustrator 21.1.0, SVG Export Plug-In . SVG Version: 6.00 Build 0)  -->
<svg version="1.1" id="Слой_1" xmlns="http://www.w3.org/2000/svg" xmlns:xlink="http://www.w3.org/1999/xlink" x="0px" y="0px"
	 viewBox="0 0 67 61" style="enable-background:new 0 0 67 61;" xml:space="preserve">
<style type="text/css">
	.st0{clip-path:url(#SVGID_2_);}
	.st1{clip-path:url(#SVGID_4_);}
	.st2{clip-path:url(#SVGID_6_);}
	.st3{clip-path:url(#SVGID_8_);fill:#FFFFFF;}
	.st4{fill:#69B261;}
	.st5{fill:#F2C83F;}
	.st6{fill:#41328E;}
	.st7{fill:#D97839;}
</style>
<g>
	<g>
		<defs>
			<rect id="SVGID_1_" x="0" width="66.8" height="60.8"/>
		</defs>
		<clipPath id="SVGID_2_">
			<use xlink:href="#SVGID_1_"  style="overflow:visible;"/>
		</clipPath>
		<path class="st0" d="M40,19.2v-1.9h-5.5l0,0l1.3-1c2.3-2.1,4.1-4,4.1-6.3c0-2.1-1.4-4-4.5-4c-1.8,0-3.2,0.5-4.1,1.4L32,9.1
			c0.7-0.5,1.8-1,2.9-1c1.8,0,2.3,1,2.3,2.3c0,1.7-1.4,3.3-4.6,6.1l-1.6,1.4v1.4H40z M45.2,19.2h2.5V6.1h-2.1l-3.2,1.6l0.4,1.9
			l2.5-1.2l0,0V19.2z M51.1,18.8c0.7,0.3,1.8,0.7,3,0.7c2.7,0,4.1-1.4,4.1-3.1c0-1.4-0.9-2.4-2.7-3c-1.3-0.5-1.8-0.7-1.8-1.4
			c0-0.5,0.5-1,1.4-1s1.8,0.3,2.1,0.5l0.5-1.7c-0.5-0.3-1.6-0.5-2.7-0.5c-2.3,0-3.8,1.4-3.8,3.1c0,1.2,0.9,2.3,2.9,2.8
			c1.3,0.3,1.6,0.7,1.6,1.4s-0.5,1-1.6,1c-0.9,0-2-0.3-2.7-0.7L51.1,18.8z M61.1,7.7v1.7h-1.4v1.9h1.4V16c0,1.2,0.2,2.3,0.7,2.8
			c0.5,0.5,1.3,0.9,2.1,0.9s1.4-0.2,1.8-0.3v-1.9c-0.4,0-0.5,0.2-1.1,0.2c-0.9,0-1.3-0.7-1.3-1.7v-4.5h2.5V9.4h-2.5V6.8L61.1,7.7z"
			/>
	</g>
	<g>
		<defs>
			<rect id="SVGID_3_" x="0" width="66.8" height="60.8"/>
		</defs>
		<clipPath id="SVGID_4_">
			<use xlink:href="#SVGID_3_"  style="overflow:visible;"/>
		</clipPath>
		<path class="st1" d="M8.6,31.2c-0.5,0.2-1.1,0.3-2,0.3c-1.6,0-2.9-1-2.9-3c0-1.7,1.1-3,2.9-3c0.9,0,1.4,0.2,1.8,0.3l0.4-1.7
			c-0.5-0.2-1.4-0.3-2.3-0.3c-3.4,0-5.2,2.1-5.2,4.9s2,4.7,4.8,4.7c1.3,0,2.1-0.3,2.7-0.5L8.6,31.2z M18.8,29.3c0-0.2,0-0.5,0-1
			c0-2.1-1.1-4.5-4.1-4.5S10,26.1,10,28.8c0,2.8,1.8,4.7,4.8,4.7c1.4,0,2.5-0.3,3.4-0.5l-0.4-1.6c-0.7,0.3-1.4,0.3-2.7,0.3
			c-1.4,0-2.9-0.7-2.9-2.4C12.3,29.3,18.8,29.3,18.8,29.3z M12.3,27.5c0.2-0.9,0.7-2.3,2.1-2.3c1.6,0,2,1.4,2,2.3H12.3z M20.9,33.3
			h2.3v-5.4c0-0.3,0-0.5,0.2-0.7c0.2-0.7,0.9-1.4,1.8-1.4c1.3,0,1.8,1,1.8,2.3v5.2h2.3v-5.4c0-3-1.8-4-3.4-4s-2.7,0.9-3,1.6l0,0
			l-0.2-1.4h-2.1c0,0.9,0,1.7,0,2.8v6.4H20.9z M32.5,22.3v1.7h-1.4v1.7h1.4v4.4c0,1.2,0.2,2.1,0.7,2.6c0.5,0.5,1.3,0.7,2.1,0.7
			c0.7,0,1.4-0.2,1.8-0.2v-1.7c-0.4,0-0.5,0.2-0.9,0.2c-0.9,0-1.3-0.5-1.3-1.7v-4h2.3v-1.7H35v-2.4L32.5,22.3z M47.4,24.1H45v5.6
			c0,0.3,0,0.5-0.2,0.7c-0.2,0.5-0.9,1.2-1.8,1.2c-1.3,0-1.8-1-1.8-2.4v-5.1H39v5.4c0,3,1.6,4,3.4,4c1.6,0,2.7-0.9,3-1.6l0,0
			l0.2,1.4h2.1c0-0.7,0-1.7,0-2.8v-6.4H47.4z M50,33.3h2.3v-4.7c0-0.3,0-0.5,0-0.7c0.2-1,1.1-1.7,2.1-1.7c0.4,0,0.5,0,0.7,0v-2.3
			c-0.2,0-0.4,0-0.5,0c-1.1,0-2.1,0.7-2.5,1.9l0,0v-1.7H50c0,0.9,0,1.7,0,3V33.3z M56.5,24.1l3.4,8.5c0.2,0.2,0.2,0.3,0.2,0.5
			c0,0.2,0,0.2-0.2,0.3c-0.4,0.7-0.9,1.2-1.3,1.4c-0.5,0.3-1.1,0.5-1.4,0.7l0.5,1.9c0.5,0,1.6-0.3,2.5-1.2c1.1-0.9,2-2.4,3.4-5.9
			l2.3-6.3h-2.5L62,28.9c-0.2,0.5-0.4,1.2-0.5,1.7l0,0c-0.2-0.5-0.4-1.2-0.5-1.7l-1.8-4.9C59.1,24.1,56.5,24.1,56.5,24.1z"/>
	</g>
	<g>
		<defs>
			<rect id="SVGID_5_" x="0" width="66.8" height="60.8"/>
		</defs>
		<clipPath id="SVGID_6_">
			<use xlink:href="#SVGID_5_"  style="overflow:visible;"/>
		</clipPath>
		<path class="st2" d="M2.3,50h0.7v-4.4h1.8v-0.3H0.4v0.5h1.8V50H2.3z M9.7,47.2H7.2v-1.6h2.5v-0.3H6.4v4.9h3.4v-0.5H7.2v-1.7h2.3
			v-0.7H9.7z M15.7,49.3c-0.4,0.2-0.7,0.2-1.3,0.2c-1.4,0-2.3-0.7-2.3-1.9s0.9-1.9,2.3-1.9c0.5,0,0.9,0.2,1.3,0.2l0.2-0.5
			c-0.2,0-0.7-0.2-1.4-0.2c-1.8,0-3.2,1-3.2,2.6c0,1.6,1.3,2.4,3,2.4c0.7,0,1.3-0.2,1.6-0.2L15.7,49.3z M17,45.3v4.9h0.7v-2.3h2.9
			v2.3h0.9v-4.9h-0.7v2.1h-3v-2.1H17z M24.3,50v-2.1c0-0.9,0-1.4,0-1.9l0,0c0.4,0.5,0.7,1,1.1,1.6l2,2.4h0.7v-4.7h-0.7v2.1
			c0,0.7,0,1.4,0.2,1.9l0,0c-0.4-0.5-0.7-1-1.1-1.6l-2-2.4h-0.9v4.9h0.7V50z M32.7,45.1c-1.6,0-2.9,1-2.9,2.6c0,1.4,1.1,2.4,2.7,2.4
			c1.6,0,2.9-0.9,2.9-2.6C35.4,46.2,34.3,45.1,32.7,45.1 M32.7,45.7c1.3,0,2,1,2,1.9c0,1-0.7,1.9-2,1.9c-1.3,0-2-0.9-2-1.9
			C30.7,46.7,31.3,45.7,32.7,45.7 M37.4,50h3.4v-0.5h-2.5v-4.2h-0.7V50H37.4z M44.1,45.1c-1.6,0-2.9,1-2.9,2.6
			c0,1.4,1.1,2.4,2.7,2.4c1.6,0,2.9-0.9,2.9-2.6C46.8,46.2,45.7,45.1,44.1,45.1 M44,45.7c1.3,0,2,1,2,1.9c0,1-0.7,1.9-2,1.9
			s-2-0.9-2-1.9C42,46.7,42.7,45.7,44,45.7 M52.7,47.6h-2v0.5H52v1.4c-0.2,0-0.5,0.2-1.1,0.2c-1.4,0-2.3-0.7-2.3-1.9
			s0.9-1.9,2.5-1.9c0.5,0,1.1,0.2,1.3,0.2l0.2-0.5c-0.2-0.2-0.9-0.2-1.4-0.2c-2,0-3.2,1-3.2,2.4c0,0.7,0.4,1.4,0.9,1.7
			c0.5,0.5,1.4,0.7,2.3,0.7c0.9,0,1.4-0.2,1.8-0.3v-2.3H52.7z M54.9,50h0.7v-4.7h-0.7V50z M61.1,47.2h-2.3v-1.6h2.5v-0.3h-3.2v4.9
			h3.4v-0.5h-2.7v-1.7h2.3C61.1,47.9,61.1,47.2,61.1,47.2z M63.1,49.8c0.4,0.2,0.9,0.3,1.6,0.3c1.4,0,2.1-0.7,2.1-1.4
			s-0.5-1-1.6-1.4c-0.9-0.2-1.3-0.5-1.3-0.9s0.4-0.7,1.1-0.7c0.5,0,0.9,0.2,1.1,0.2l0.2-0.5c-0.4-0.2-0.7-0.2-1.3-0.2
			c-1.3,0-2,0.5-2,1.2c0,0.7,0.5,1,1.6,1.4c0.9,0.2,1.1,0.5,1.1,0.9c0,0.5-0.5,0.9-1.3,0.9c-0.5,0-1.1-0.2-1.4-0.3L63.1,49.8z"/>
	</g>
</g>
<rect x="0.9" y="52.8" width="66.1" height="8.2"/>
<g>
	<g>
		<defs>
			<rect id="SVGID_7_" x="0" width="66.8" height="60.8"/>
		</defs>
		<clipPath id="SVGID_8_">
			<use xlink:href="#SVGID_7_"  style="overflow:visible;"/>
		</clipPath>
		<path class="st3" d="M3.9,59.1h2.9v-0.7h-2v-4H3.9V59.1z M13.2,59.1h0.9v-4.7h-0.9V59.1z M25.2,59.1h0.9l-0.4-4.7h-1.1L24,56.3
			c-0.2,0.5-0.4,1.2-0.5,1.6l0,0c-0.2-0.5-0.4-1-0.4-1.6l-0.7-1.9h-1.3l-0.4,4.7h0.9l0.2-1.9c0-0.7,0-1.4,0-2.1l0,0
			c0.2,0.5,0.4,1.2,0.5,1.9l0.7,2.1h0.7l0.7-2.1c0.2-0.5,0.4-1.2,0.5-1.7l0,0c0,0.7,0,1.4,0,1.9L25.2,59.1z M32.7,59.1h0.9v-4.7
			h-0.9V59.1z M41.5,59.1h0.9v-4h1.4v-0.7h-3.6v0.7h1.4v4H41.5z M52.9,56.3h-1.8v-1.2h2v-0.7h-3v4.7h2.9v-0.7h-2V57h1.8v-0.7H52.9z
			 M59.7,59.1c0.4,0,0.7,0,1.3,0c0.9,0,1.8-0.2,2.1-0.7c0.5-0.3,0.7-1,0.7-1.9s-0.4-1.4-0.7-1.7c-0.5-0.3-1.1-0.5-2-0.5
			c-0.5,0-1.1,0-1.4,0.2C59.7,54.4,59.7,59.1,59.7,59.1z M60.6,55.1c0.2,0,0.4,0,0.5,0c1.1,0,1.8,0.5,1.8,1.6c0,1.2-0.7,1.7-1.8,1.7
			c-0.2,0-0.4,0-0.5,0V55.1z"/>
	</g>
</g>
<polygon class="st4" points="0,10.3 5.3,5.1 10.6,10.3 5.3,15.5 "/>
<polygon class="st5" points="12.9,10.3 18.2,5.1 23.5,10.3 18.2,15.4 "/>
<polygon class="st6" points="5.3,15.6 10.6,10.4 15.9,15.6 10.6,20.8 "/>
<polygon class="st7" points="5.3,5.3 10.6,0.1 15.9,5.3 10.6,10.5 "/>
</svg>
