<?xml version="1.0" encoding="utf-8"?>
<!-- Generator: Adobe Illustrator 21.1.0, SVG Export Plug-In . SVG Version: 6.00 Build 0)  -->
<svg version="1.1" id="Layer_1" xmlns="http://www.w3.org/2000/svg" xmlns:xlink="http://www.w3.org/1999/xlink" x="0px" y="0px"
	 viewBox="0 0 34.2 46.2" style="enable-background:new 0 0 34.2 46.2;" xml:space="preserve">
<style type="text/css">
	.st0{fill:none;stroke:#2cb460;stroke-width:1.2;stroke-miterlimit:10;}
	.st1{fill:#2cb460;}
	.st2{font-family:'Tahoma-Bold';}
	.st3{font-size:11.7458px;}
</style>
<g>
	<path class="st0" d="M33.6,43.8c0,1-0.8,1.8-1.8,1.8H2.4c-1,0-1.8-0.8-1.8-1.8V2.4c0-1,0.8-1.8,1.8-1.8c0,0,23.4,0,24.4,0
		c0,0,1.7-0.1,4.5,2.6c2.1,2,2.2,4.1,2.2,4.1C33.6,8.3,33.6,43.8,33.6,43.8z"/>
</g>
<path class="st0" d="M33.6,7.4h-5c-1,0-1.8-0.8-1.8-1.8v-5"/>
<text transform="matrix(0.9957 0 0 1 4.2644 27.3243)" class="st1 st2 st3">DOC</text>
</svg>
