<?xml version="1.0" encoding="utf-8"?>
<!-- Generator: Adobe Illustrator 21.1.0, SVG Export Plug-In . SVG Version: 6.00 Build 0)  -->
<svg version="1.1" id="Layer_1" xmlns="http://www.w3.org/2000/svg" xmlns:xlink="http://www.w3.org/1999/xlink" x="0px" y="0px"
	 viewBox="0 0 68 68" style="enable-background:new 0 0 68 68;" xml:space="preserve">
<style type="text/css">
	.st0{fill:#569751;}
	.st1{fill:#CD333A;}
</style>
<g>
	<path class="st0" d="M34.4,0c0.7,0.4,0.8,0.9,1.4,1.8c0.6,0.9,27.9,45,28.7,46.4c0.2,0.3,0.3,0.6,0.4,0.9c0.1,0.5-0.5,1-1.1,1
		c-0.1,0-0.1,0-0.2,0c-19.7,0-39.4,0-59.1,0c-0.6,0-1.1-0.2-1.2-0.7c-0.1-0.4-0.1-0.7,0.1-1.1c0.7-1.1,29.1-47,29.6-47.8
		c0.1-0.2,0.4-0.4,0.7-0.6C34,0,34.2,0,34.4,0z M34.1,3.6C24.9,18.3,15.8,33,6.6,47.8c18.3,0,36.5,0,54.8,0
		C52.3,33,43.2,18.3,34.1,3.6z"/>
	<path class="st0" d="M0,67.5c0.1-0.4,0.2-0.9,0.3-1.4c0.2-1.1,0.4-2.3,0.6-3.4c0.2-1.2,0.4-2.5,0.7-3.7c0.1-0.3,0.1-0.5,0.1-0.8
		c0-0.1,0.1-0.1,0.2-0.2c0.1,0,0.1,0,0.2,0c2.2,0,4.4,0,6.6,0c0.1,0,0.2,0,0.4,0c-0.1,0.7-0.3,1.5-0.4,2.2c-1.4,0-2.8,0-4.2,0
		c-0.1,0.6-0.2,1.1-0.3,1.7c1,0,2,0,3.1,0c-0.1,0.8-0.3,1.5-0.5,2.3c-0.9,0-1.9,0-2.8,0c-0.3,0-0.4,0.1-0.4,0.4
		c-0.1,0.9-0.3,1.9-0.5,2.8C3.2,68,3.2,68,2.6,68c-0.9,0-1.7,0-2.6,0C0,67.8,0,67.6,0,67.5z"/>
	<path class="st1" d="M68,66.1c-0.1,0.5-0.2,1.1-0.4,1.6c0,0.2-0.1,0.3-0.3,0.3c-2,0-4.1,0-6.1,0c0.1-0.7,0.3-1.5,0.5-2.2
		c0.2-1.1,0.4-2.2,0.7-3.3c0.2-1,0.4-1.9,0.6-2.9c0.1-0.4,0.1-0.8,0.3-1.2c0-0.1,0.1-0.2,0.2-0.2c0.7,0,1.4,0,2.1,0
		C65,60.7,64.5,63.3,64,66c1.2,0,2.3,0,3.4,0C67.6,66,67.8,66,68,66.1C68,66.1,68,66.1,68,66.1z"/>
	<path class="st0" d="M42.8,67.9c-1.1,0-2.1,0-3.2,0c0.2-1.3,0.4-2.5,0.7-3.8c-0.7,0-1.5,0-2.3,0c-0.2,1.2-0.4,2.5-0.7,3.8
		c-1.1,0-2.1,0-3.2,0c0.6-3.3,1.2-6.6,1.7-9.9c1.1,0,2.1,0,3.3,0c-0.2,1.2-0.4,2.4-0.7,3.6c0.8,0,1.5,0,2.3,0
		c0.2-1.2,0.4-2.4,0.6-3.6c1.1,0,2.2,0,3.3,0C43.9,61.3,43.4,64.6,42.8,67.9z"/>
	<path class="st0" d="M15.6,64.1c0.3,1.2,0.7,2.5,1.1,3.8c-1.1,0-2.2,0-3.4,0c-0.3-1.1-0.6-2.2-0.8-3.3c-0.5-0.1-0.5-0.1-0.6,0.6
		c-0.1,0.9-0.3,1.8-0.5,2.7c0,0,0,0,0,0.1c-1,0-2.1,0-3.1,0c0.6-3.3,1.2-6.6,1.8-10c0.2,0,0.4,0,0.5,0c1.2,0,2.3,0,3.4,0
		c0.7,0,1.3,0.1,1.9,0.4c0.7,0.3,1.1,0.9,1.2,1.5c0.1,0.3,0.1,0.6,0.1,0.9c0,0.8-0.1,1.6-0.7,2.3C16.2,63.4,15.9,63.7,15.6,64.1z
		 M12.8,60.2c-0.1,0.8-0.3,1.6-0.4,2.4c0.6-0.1,1.1-0.2,1.2-0.7c0.1-0.2,0.1-0.5,0.1-0.8C13.7,60.5,13.5,60.2,12.8,60.2z"/>
	<path class="st0" d="M26.4,58c-0.1,0.7-0.3,1.5-0.4,2.2c-0.7,0-1.4,0-2.1,0c-0.7,0-1.4,0-2,0c-0.1,0.5-0.2,1-0.3,1.5
		c1.1,0,2.1,0,3.1,0c-0.1,0.8-0.3,1.5-0.4,2.3c-1.1,0-2.1,0-3.1,0c-0.1,0.5-0.2,1-0.3,1.5c1.4,0,2.7,0,4.1,0
		c-0.1,0.8-0.3,1.6-0.4,2.4c-2.5,0-4.9,0-7.4,0c0.6-3.3,1.2-6.6,1.7-9.9C21.4,58,23.8,58,26.4,58z"/>
	<path class="st0" d="M25.2,66.6c0.5-0.7,0.9-1.3,1.3-1.9c0.1-0.1,0.2-0.2,0.3-0.1c0.6,0.4,1.2,0.7,1.9,0.9c0.3,0.1,0.7,0.1,1,0.1
		c0.3,0,0.6-0.1,0.7-0.4c0.1-0.3,0-0.6-0.3-0.7c-0.5-0.2-1.1-0.5-1.6-0.7c-0.7-0.3-1.4-0.6-1.7-1.2c-0.8-1.7-0.3-3.6,1.9-4.4
		c1.2-0.5,2.3-0.4,3.5-0.1c0.8,0.1,1.6,0.4,2.3,0.9c0.1,0.1,0.2,0.1,0.3,0.2c-0.4,0.6-0.7,1.2-1,1.8c-0.1,0.2-0.2,0.1-0.4,0
		c-0.7-0.5-1.5-0.8-2.4-0.8c-0.2,0-0.4,0-0.5,0.1c-0.2,0.1-0.4,0.3-0.4,0.5c-0.1,0.2,0.1,0.4,0.4,0.5c0.5,0.2,1.1,0.4,1.7,0.7
		c0.6,0.2,1.2,0.5,1.5,1c0.2,0.4,0.4,0.9,0.4,1.4c0,0.7-0.1,1.4-0.4,2.1c-0.4,0.7-1,1.1-1.8,1.4c-1.5,0.4-3,0.3-4.4-0.2
		C26.5,67.4,25.9,67,25.2,66.6z"/>
	<path class="st1" d="M53.2,67.9c0.2-0.8,0.3-1.6,0.5-2.4c0.2-1,0.4-1.9,0.6-2.9c0.2-1.1,0.4-2.3,0.7-3.4c0.1-0.3,0.1-0.7,0.2-1
		c0-0.1,0.2-0.2,0.4-0.2c1.5,0,3,0,4.4,0c0.5,0,1,0,1.5,0c-0.1,0.6-0.2,1.1-0.3,1.7c0,0.2-0.2,0.2-0.3,0.2c-1.1,0-2.2,0-3.3,0
		c-0.1,0-0.3,0-0.4,0c-0.1,0.7-0.2,1.3-0.4,2c1.2,0,2.4,0,3.7,0c-0.1,0.6-0.2,1.2-0.4,1.9c-1.3,0-2.5,0-3.7,0
		c-0.1,0.7-0.3,1.5-0.4,2.2c1.4,0,2.7,0,4.1,0c-0.1,0.7-0.2,1.3-0.3,1.9C57.5,67.9,55.4,67.9,53.2,67.9z"/>
	<path class="st1" d="M48.5,60c-0.9,0-1.8,0-2.7,0c0.1-0.5,0.2-1,0.2-1.5c0-0.5,0.3-0.5,0.7-0.5c2.3,0,4.6,0,6.9,0
		c0.1,0,0.3,0,0.5,0c-0.1,0.7-0.3,1.3-0.4,1.9c-0.9,0-1.7,0-2.5,0c-0.2,0-0.3,0.1-0.4,0.3c-0.3,1.4-0.6,2.8-0.8,4.2
		c-0.2,1.2-0.4,2.3-0.7,3.5c-0.8,0-1.5,0-2.4,0C47.4,65.3,48,62.7,48.5,60z"/>
	<path class="st1" d="M13,45.6c-0.5,0-1.1-0.1-1.3-0.6c-0.2-0.4,0-0.9,0.3-1.3c0.8-1.3,20.6-33.3,21.2-34.1c0.6-0.8,1.4-0.9,2,0
		c0.4,0.6,21,34,21.4,34.6c0.4,0.5-0.1,1.2-0.7,1.4c-0.2,0.1-0.5,0.1-0.7,0.1C48.1,45.6,20,45.6,13,45.6z"/>
</g>
</svg>
