<?xml version="1.0" encoding="utf-8"?>
<!-- Generator: Adobe Illustrator 21.1.0, SVG Export Plug-In . SVG Version: 6.00 Build 0)  -->
<svg version="1.1" id="Слой_1" xmlns="http://www.w3.org/2000/svg" xmlns:xlink="http://www.w3.org/1999/xlink" x="0px" y="0px"
	 viewBox="0 0 130 60" style="enable-background:new 0 0 130 60;" xml:space="preserve">
<style type="text/css">
	.st0{fill:#3D82C4;}
	.st1{clip-path:url(#SVGID_2_);fill:#3D82C4;}
	.st2{clip-path:url(#SVGID_4_);fill:#3D82C4;}
	.st3{clip-path:url(#SVGID_6_);fill:#3D82C4;}
	.st4{clip-path:url(#SVGID_8_);fill:#3D82C4;}
	.st5{clip-path:url(#SVGID_10_);fill:#3D82C4;}
	.st6{fill:#FFFFFF;}
	.st7{clip-path:url(#SVGID_12_);fill:#FFFFFF;}
	.st8{clip-path:url(#SVGID_14_);fill:#FFFFFF;}
</style>
<rect x="40.1" y="45.5" class="st0" width="89.7" height="14.5"/>
<polygon class="st0" points="40.1,18.2 48.3,18.2 48.3,20.7 44.5,20.7 44.5,38.7 40.1,38.7 "/>
<path class="st0" d="M48.5,38.7h4.2l0.4-5.5h2.1l0.4,5.5h4.2l-2.3-20.5h-6.9L48.5,38.7z M53.3,30.9L54,20.5h0.2L55,30.9H53.3z"/>
<g>
	<g>
		<defs>
			<rect id="SVGID_1_" width="130" height="60"/>
		</defs>
		<clipPath id="SVGID_2_">
			<use xlink:href="#SVGID_1_"  style="overflow:visible;"/>
		</clipPath>
		<path class="st1" d="M66,31.5v3.8c0,0.5,0.4,0.7,0.8,0.7c0.4,0,0.8-0.4,0.8-0.7v-4.7c0-0.7-0.2-1.3-1.7-1.3h-1.7v-2.2H66
			c1.1,0,1.7-0.2,1.7-1.5v-4c0-0.4-0.2-0.7-0.8-0.7c-0.2,0-0.8,0.2-0.8,0.7v3.3h-4.4v-3.1c0-1.5,0.2-3.6,3.2-3.6h3.6
			c3.1,0,3.2,2.2,3.2,3.6v3.3c0,2.2-1.7,2.9-2.9,2.7V28c2.9,0,2.9,2,2.9,2.7v4.2c0,1.5-0.2,3.6-3.2,3.6h-3.8c-3.1,0-3.2-2.2-3.2-3.6
			v-3.5C61.7,31.5,66,31.5,66,31.5z"/>
	</g>
</g>
<polygon class="st0" points="74.4,18.2 84.6,18.2 84.6,38.7 80.2,38.7 80.2,20.7 78.8,20.7 78.8,38.7 74.4,38.7 "/>
<g>
	<g>
		<defs>
			<rect id="SVGID_3_" width="130" height="60"/>
		</defs>
		<clipPath id="SVGID_4_">
			<use xlink:href="#SVGID_3_"  style="overflow:visible;"/>
		</clipPath>
		<path class="st2" d="M87.4,38.7h4.2v-7.1h2.5c3.1,0,3.2-2.2,3.2-3.6v-6.2c0-1.5-0.2-3.6-3.2-3.6h-6.9v20.5H87.4z M91.6,29.5v-8.7
			h0.6c0.4,0,0.8,0.4,0.8,1.1v6.7c0,0.7-0.4,1.1-0.8,1.1h-0.6V29.5z"/>
	</g>
	<g>
		<defs>
			<rect id="SVGID_5_" width="130" height="60"/>
		</defs>
		<clipPath id="SVGID_6_">
			<use xlink:href="#SVGID_5_"  style="overflow:visible;"/>
		</clipPath>
		<path class="st3" d="M100.2,35.1c0,1.5,0.2,3.6,3.2,3.6h3.6c3.1,0,3.2-2.2,3.2-3.6V21.8c0-1.5-0.2-3.6-3.2-3.6h-3.6
			c-3.1,0-3.2,2.2-3.2,3.6V35.1z M105.9,35.5c0,0.4-0.2,0.7-0.8,0.7c-0.2,0-0.8-0.2-0.8-0.7v-14c0-0.5,0.4-0.7,0.8-0.7
			c0.4,0,0.8,0.4,0.8,0.7V35.5z"/>
	</g>
</g>
<polygon class="st0" points="124.3,18.2 121.6,32.5 118.7,18.2 113,18.2 113,38.7 117.4,38.7 117.4,25.8 117.6,25.8 119.7,38.7 
	123.3,38.7 125.4,25.8 125.6,25.8 125.6,38.7 130,38.7 130,18.2 "/>
<g>
	<g>
		<defs>
			<rect id="SVGID_7_" width="130" height="60"/>
		</defs>
		<clipPath id="SVGID_8_">
			<use xlink:href="#SVGID_7_"  style="overflow:visible;"/>
		</clipPath>
		<path class="st4" d="M34.2,20.2c0,2.2-0.4,4.4-0.6,5.6c0.2-2.4-0.2-5.5-0.8-8c-0.6-2.5-2.1-6.9-3.4-8.7c-1.1,1.8-2.5,5.5-3.2,8.7
			c-0.8,3.1-0.8,6.9-0.8,8.2c-0.2-0.9-0.8-4.4-0.6-7.8c0.2-2.9,0.8-5.8,1.1-7.1c1.5-4.5,3.1-7.5,3.4-7.8c0.4,0.5,2.5,4,3.4,7.8
			C34,14.4,34.2,18,34.2,20.2 M29.4,36.2c-0.6-1.1-1.7-3.5-1.7-6.9c0-3.3,1.3-6.2,1.7-6.7c0.4,0.5,1.5,3.1,1.7,6.5
			C31.3,32.4,30.2,35.1,29.4,36.2 M34.6,10.7C33.2,5.3,30,0.7,29.4,0c-0.8,1.1-3.4,4.9-4.8,9.5c-1.5,4.9-1.7,9.3-1.1,13.5
			c0.6,4.4,2.5,8.7,2.5,8.7c1,2.4,2.5,4.7,3.4,6c1.5-1.8,4.8-7.1,5.7-14C35.9,19.6,35.9,16.2,34.6,10.7"/>
	</g>
	<g>
		<defs>
			<rect id="SVGID_9_" width="130" height="60"/>
		</defs>
		<clipPath id="SVGID_10_">
			<use xlink:href="#SVGID_9_"  style="overflow:visible;"/>
		</clipPath>
		<path class="st5" d="M31.7,38.9H21.6v6.4l0,0c2.3-2.2,6.3-2.2,8.6,0s2.3,6,0,8.2l0,0l0,0c-2.3,2.2-5.5,3.3-8.6,3.3
			s-6.3-1.1-8.6-3.5c-4.2-4-4.6-10.2-1.5-14.5c0.4-0.5,1-1.1,1.5-1.6c2.3-2.2,5.5-3.5,8.6-3.5V18.2C9.7,18.4,0,27.5,0,38.9
			s9.7,20.5,21.6,20.5c6.3,0,11.8-2.5,15.8-6.5v-14C37.4,38.9,31.7,38.9,31.7,38.9z"/>
	</g>
</g>
<polygon class="st6" points="44.5,49.1 42.8,49.1 42.8,47.8 48.5,47.8 48.5,49.1 46.8,49.1 46.8,58.2 44.5,58.2 "/>
<polygon class="st6" points="55,47.8 60.1,47.8 60.1,49.1 57.1,49.1 57.1,52 60.1,52 60.1,53.3 57.1,53.3 57.1,56.9 60.1,56.9 
	60.1,58.2 55,58.2 "/>
<polygon class="st6" points="79.8,47.8 85.1,47.8 85.1,49.1 82.1,49.1 82.1,52 85.1,52 85.1,53.3 82.1,53.3 82.1,56.9 85.1,56.9 
	85.1,58.2 79.8,58.2 "/>
<polygon class="st6" points="92.2,47.8 94.5,47.8 94.5,52.2 95.6,47.8 97.7,47.8 96.4,52.7 97.9,58.2 95.8,58.2 94.5,53.3 
	94.5,58.2 92.2,58.2 "/>
<g>
	<g>
		<defs>
			<rect id="SVGID_11_" width="130" height="60"/>
		</defs>
		<clipPath id="SVGID_12_">
			<use xlink:href="#SVGID_11_"  style="overflow:visible;"/>
		</clipPath>
		<path class="st7" d="M107.3,56.9L107.3,56.9L107.3,56.9c0,0.2,0,0.2,0.2,0.2c0,0,0.2,0.2,0.4,0.2s0.2,0,0.4-0.2l0.2-0.2v-8
			c0-0.2,0-0.2-0.2-0.2l-0.2-0.2l0,0l0,0c-0.2,0-0.2,0-0.4,0.2c-0.2,0-0.2,0.2-0.2,0.2l0,0l0,0v8H107.3z M105,49.3L105,49.3
			c0-0.2,0-0.2,0-0.4c0-0.2,0-0.4,0.2-0.4c0.2-0.2,0.2-0.4,0.6-0.5c0.2-0.2,0.8-0.4,1.3-0.4h1.5c0.6,0,1,0.2,1.3,0.2
			c0.2,0.2,0.4,0.4,0.6,0.5c0,0.2,0.2,0.4,0.2,0.4c0,0.2,0,0.2,0,0.4l0,0l0,0v7.5l0,0l0,0v0.2v0.2c0,0.2-0.2,0.5-0.4,0.7
			c-0.6,0.5-1.1,0.5-1.9,0.5h-1.5c0,0,0,0-0.2,0l0,0c-0.4,0-1-0.2-1.1-0.2s-0.6-0.5-0.6-1.3V49.3z"/>
	</g>
</g>
<polygon class="st6" points="117.8,47.8 121,47.8 122.7,54.7 124.7,47.8 127.7,47.8 127.7,58.2 125.4,58.2 125.4,51.6 124.1,58.2 
	121.6,58.2 120.1,51.6 120.1,58.2 117.8,58.2 "/>
<g>
	<g>
		<defs>
			<rect id="SVGID_13_" width="130" height="60"/>
		</defs>
		<clipPath id="SVGID_14_">
			<use xlink:href="#SVGID_13_"  style="overflow:visible;"/>
		</clipPath>
		<path class="st8" d="M67.2,47.8V56l0,0v0.5c0,0,0,0,0,0.2v0.2L67,57.1c-0.2,0-0.4,0.2-0.6,0.2v0.9h1.1c0.8,0,1.1-0.2,1.5-0.4
			c0.2-0.2,0.4-0.4,0.6-0.7c0-0.2,0-0.4,0.2-0.4v-8h1v9.5h2.3V47.8H67.2z"/>
	</g>
</g>
</svg>
