<?xml version="1.0" encoding="utf-8"?>
<!-- Generator: Adobe Illustrator 21.1.0, SVG Export Plug-In . SVG Version: 6.00 Build 0)  -->
<svg version="1.1" id="Слой_1" xmlns="http://www.w3.org/2000/svg" xmlns:xlink="http://www.w3.org/1999/xlink" x="0px" y="0px"
	 viewBox="0 0 145 40" style="enable-background:new 0 0 145 40;" xml:space="preserve">
<style type="text/css">
	.st0{clip-path:url(#SVGID_2_);fill:url(#SVGID_3_);}
	.st1{clip-path:url(#SVGID_5_);fill:url(#SVGID_6_);}
	.st2{clip-path:url(#SVGID_8_);fill:url(#SVGID_9_);}
	.st3{clip-path:url(#SVGID_11_);fill:url(#SVGID_12_);}
	.st4{clip-path:url(#SVGID_14_);fill:url(#SVGID_15_);}
	.st5{clip-path:url(#SVGID_17_);fill:url(#SVGID_18_);}
	.st6{clip-path:url(#SVGID_20_);fill:#6E4D9A;}
	.st7{clip-path:url(#SVGID_22_);fill:#6E4D9A;}
	.st8{clip-path:url(#SVGID_24_);fill:#6E4D9A;}
	.st9{clip-path:url(#SVGID_26_);fill:#6E4D9A;}
	.st10{clip-path:url(#SVGID_28_);fill:#6E4D9A;}
</style>
<g>
	<g>
		<defs>
			<path id="SVGID_1_" d="M28.7,17.6c-0.8,0.9-1.9,1.5-3,2.4c-0.4,0.2-0.8,0.7-1.3,0.9c-2.1,1.5-4.4,3-7,4.1c-3.8,1.7-8,3.3-12.2,3
				c-0.4,0-0.8,0-1.3-0.2c-0.2,0-0.6-0.2-0.8-0.2C3.4,28,3.8,28.5,4,28.9c1.7,2.6,4.2,4.3,7.4,5c5.7,1.3,12.6-1.1,17.3-4.8
				c0.2-0.2,0.4-0.4,0.6-0.4c2.1-1.7,5.1-4.8,3.4-8c-0.8-1.5-2.3-2.6-3.8-3.5C29.1,17.4,28.9,17.6,28.7,17.6"/>
		</defs>
		<clipPath id="SVGID_2_">
			<use xlink:href="#SVGID_1_"  style="overflow:visible;"/>
		</clipPath>
		
			<radialGradient id="SVGID_3_" cx="-208.621" cy="433.0143" r="1" gradientTransform="matrix(23.5244 0 0 24.265 4922.8188 -10495.6553)" gradientUnits="userSpaceOnUse">
			<stop  offset="0" style="stop-color:#FFFFFF"/>
			<stop  offset="0.1339" style="stop-color:#CCC3DF"/>
			<stop  offset="0.3106" style="stop-color:#9D89BD"/>
			<stop  offset="0.4592" style="stop-color:#8268A9"/>
			<stop  offset="0.5718" style="stop-color:#73549E"/>
			<stop  offset="0.6354" style="stop-color:#6E4D9A"/>
			<stop  offset="0.7555" style="stop-color:#66428F"/>
			<stop  offset="1" style="stop-color:#582F7F"/>
		</radialGradient>
		<rect x="3.6" y="17.2" class="st0" width="31.2" height="18"/>
	</g>
</g>
<g>
	<g>
		<defs>
			<path id="SVGID_4_" d="M1.7,11.7c0,0.4-0.2,0.7-0.4,0.9c0,0.2-0.2,0.4-0.2,0.4c-0.6,1.5-1.1,3-1.1,4.8c0,1.5,0.4,3.9,1.3,5
				c1.3,1.5,3.6,1.7,5.5,1.7c6.5-0.4,14.3-4.6,19.6-8.3c0.2,0,0.2-0.2,0.4-0.2c-0.2,0-0.4-0.2-0.6-0.2h-0.2
				c-0.4-0.2-0.8-0.2-1.1-0.4c-7.4-2.4-14.8-3.3-22.1-5C2.3,10.9,2.1,11.3,1.7,11.7"/>
		</defs>
		<clipPath id="SVGID_5_">
			<use xlink:href="#SVGID_4_"  style="overflow:visible;"/>
		</clipPath>
		
			<radialGradient id="SVGID_6_" cx="-208.6594" cy="432.9596" r="1" gradientTransform="matrix(23.5617 0 0 24.3035 4931.4922 -10510.9893)" gradientUnits="userSpaceOnUse">
			<stop  offset="0" style="stop-color:#FFFFFF"/>
			<stop  offset="0.1339" style="stop-color:#CCC3DF"/>
			<stop  offset="0.3106" style="stop-color:#9D89BD"/>
			<stop  offset="0.4592" style="stop-color:#8268A9"/>
			<stop  offset="0.5718" style="stop-color:#73549E"/>
			<stop  offset="0.6354" style="stop-color:#6E4D9A"/>
			<stop  offset="0.7555" style="stop-color:#66428F"/>
			<stop  offset="1" style="stop-color:#582F7F"/>
		</radialGradient>
		<rect y="10.4" class="st1" width="26.6" height="14.3"/>
	</g>
</g>
<g>
	<g>
		<defs>
			<path id="SVGID_7_" d="M31.6,28c-0.8,1.1-1.9,2-3,2.8c-5.3,3.9-13.5,6.7-20,3.9c1.5,1.5,3.4,3.3,5.3,4.1h8
				C26.3,36.7,29.7,32.4,31.6,28c0.2-0.2,0.2-0.2,0.4-0.4C32,27.8,31.8,28,31.6,28"/>
		</defs>
		<clipPath id="SVGID_8_">
			<use xlink:href="#SVGID_7_"  style="overflow:visible;"/>
		</clipPath>
		
			<radialGradient id="SVGID_9_" cx="-208.6351" cy="432.9942" r="1" gradientTransform="matrix(23.5381 0 0 24.2791 4926.0098 -10501.2871)" gradientUnits="userSpaceOnUse">
			<stop  offset="0" style="stop-color:#FFFFFF"/>
			<stop  offset="0.1339" style="stop-color:#CCC3DF"/>
			<stop  offset="0.3106" style="stop-color:#9D89BD"/>
			<stop  offset="0.4592" style="stop-color:#8268A9"/>
			<stop  offset="0.5718" style="stop-color:#73549E"/>
			<stop  offset="0.6354" style="stop-color:#6E4D9A"/>
			<stop  offset="0.7555" style="stop-color:#66428F"/>
			<stop  offset="1" style="stop-color:#582F7F"/>
		</radialGradient>
		<rect x="8.6" y="27.6" class="st2" width="23.4" height="11.3"/>
	</g>
</g>
<g>
	<g>
		<defs>
			<path id="SVGID_10_" d="M12.4,3c0,0-0.2,0-0.2,0.2C9.5,4.6,6.7,6.1,4.4,8.5l0.4,0.2c3,0.9,6.1,1.3,9.3,1.5
				c7,0.2,14.3-1.5,19.2-7.4c0,0,0-0.2,0.2-0.2c-0.2-0.2-0.4-0.4-0.6-0.4C32.5,2,32,1.5,31.4,1.3c-0.2-0.2-0.6-0.2-1.1-0.4
				s-0.6-0.2-1.1-0.2c-0.6-0.2-1.1-0.2-1.7-0.2c-0.6,0-1.3,0-2.1,0C21.5,0,16.6,1.1,12.4,3"/>
		</defs>
		<clipPath id="SVGID_11_">
			<use xlink:href="#SVGID_10_"  style="overflow:visible;"/>
		</clipPath>
		
			<radialGradient id="SVGID_12_" cx="-208.6616" cy="432.9565" r="1" gradientTransform="matrix(23.5638 0 0 24.3057 4931.998 -10511.8408)" gradientUnits="userSpaceOnUse">
			<stop  offset="0" style="stop-color:#FFFFFF"/>
			<stop  offset="0.1339" style="stop-color:#CCC3DF"/>
			<stop  offset="0.3106" style="stop-color:#9D89BD"/>
			<stop  offset="0.4592" style="stop-color:#8268A9"/>
			<stop  offset="0.5718" style="stop-color:#73549E"/>
			<stop  offset="0.6354" style="stop-color:#6E4D9A"/>
			<stop  offset="0.7555" style="stop-color:#66428F"/>
			<stop  offset="1" style="stop-color:#582F7F"/>
		</radialGradient>
		<rect x="4.4" class="st3" width="28.9" height="10.2"/>
	</g>
</g>
<g>
	<g>
		<defs>
			<path id="SVGID_13_" d="M31.6,15c-0.2,0-0.2,0.2-0.4,0.2c0.2,0,0.2,0.2,0.4,0.2c1.5,0.9,2.7,1.7,3.8,3.3c0.6-3,1.1-6.5,0.8-9.6
				c0-0.2,0-0.2,0-0.4C35,11.1,33.3,13,31.6,15"/>
		</defs>
		<clipPath id="SVGID_14_">
			<use xlink:href="#SVGID_13_"  style="overflow:visible;"/>
		</clipPath>
		
			<radialGradient id="SVGID_15_" cx="-208.6481" cy="416.9524" r="1" gradientTransform="matrix(23.5507 0 0 45.3093 4928.9404 -18880.4395)" gradientUnits="userSpaceOnUse">
			<stop  offset="0" style="stop-color:#FFFFFF"/>
			<stop  offset="0.1339" style="stop-color:#CCC3DF"/>
			<stop  offset="0.3106" style="stop-color:#9D89BD"/>
			<stop  offset="0.4592" style="stop-color:#8268A9"/>
			<stop  offset="0.5718" style="stop-color:#73549E"/>
			<stop  offset="0.6354" style="stop-color:#6E4D9A"/>
			<stop  offset="0.7555" style="stop-color:#66428F"/>
			<stop  offset="1" style="stop-color:#582F7F"/>
		</radialGradient>
		<rect x="31.2" y="8.7" class="st4" width="5.3" height="10"/>
	</g>
</g>
<g>
	<g>
		<defs>
			<path id="SVGID_16_" d="M15.6,11.1c-0.2,0-0.4,0-0.4,0H15.6l1.3,0.4c3.8,0.7,7.8,1.3,11.4,2.6c0.2,0,0.4,0.2,0.6,0.2l0.2-0.2
				c1.5-1.3,3-2.6,4-3.9c0.4-0.4,0.6-0.9,0.8-1.3c0.6-1.1,1.3-2.2,1.3-3.5c-0.4-0.9-0.6-1.7-1.3-2.6C29.5,8.9,22.6,11.3,15.6,11.1"
				/>
		</defs>
		<clipPath id="SVGID_17_">
			<use xlink:href="#SVGID_16_"  style="overflow:visible;"/>
		</clipPath>
		
			<radialGradient id="SVGID_18_" cx="-208.6229" cy="433.0115" r="1" gradientTransform="matrix(23.5262 0 0 24.267 4923.2607 -10496.4355)" gradientUnits="userSpaceOnUse">
			<stop  offset="0" style="stop-color:#FFFFFF"/>
			<stop  offset="0.1339" style="stop-color:#CCC3DF"/>
			<stop  offset="0.3106" style="stop-color:#9D89BD"/>
			<stop  offset="0.4592" style="stop-color:#8268A9"/>
			<stop  offset="0.5718" style="stop-color:#73549E"/>
			<stop  offset="0.6354" style="stop-color:#6E4D9A"/>
			<stop  offset="0.7555" style="stop-color:#66428F"/>
			<stop  offset="1" style="stop-color:#582F7F"/>
		</radialGradient>
		<rect x="15.2" y="3" class="st5" width="20.2" height="11.3"/>
	</g>
</g>
<g>
	<g>
		<defs>
			<rect id="SVGID_19_" width="145" height="40"/>
		</defs>
		<clipPath id="SVGID_20_">
			<use xlink:href="#SVGID_19_"  style="overflow:visible;"/>
		</clipPath>
		<path class="st6" d="M86.2,23.9c0,3.5,1.7,5.4,4.2,5c2.3-0.4,3.6-2.6,3.2-6.3c-0.2-2.4-1.9-3.9-4-3.7
			C87.5,19.1,86.2,20.9,86.2,23.9 M90,32c-4.8,0-7.8-3-8-8c0-4.8,3.4-8.3,8-8.3s7.8,3.3,8,8C98,28.7,94.8,32,90,32"/>
	</g>
	<g>
		<defs>
			<rect id="SVGID_21_" width="145" height="40"/>
		</defs>
		<clipPath id="SVGID_22_">
			<use xlink:href="#SVGID_21_"  style="overflow:visible;"/>
		</clipPath>
		<path class="st7" d="M133.2,10.4v17.2c0,2.8,0.6,3.9,4,3.9V13.7C137.2,10.9,136.6,10.4,133.2,10.4 M141,10.4v17.2
			c0,2.8,0.6,3.9,4,3.9V13.7C145,10.9,144.6,10.4,141,10.4 M111.3,25.7c0,0-0.8,0-1.3,0.9c-0.4,1.5-1.5,2.2-3,2.2
			c-2.5,0-3.4-2.4-3.4-5c0-2.4,1.1-5,3.6-5c1.5,0,2.3,0.7,2.7,1.7c0.2,0.4,0.4,0.9,1.5,0.9h3c-0.2-3.9-3.6-5.9-7-5.9
			c-5.1,0-7.6,3.9-7.6,8.3c0,5,3.4,7.8,7.6,7.8c3.6,0,6.5-2,7.2-6.3h-3.4V25.7z"/>
	</g>
	<g>
		<defs>
			<rect id="SVGID_23_" width="145" height="40"/>
		</defs>
		<clipPath id="SVGID_24_">
			<use xlink:href="#SVGID_23_"  style="overflow:visible;"/>
		</clipPath>
		<path class="st8" d="M58.8,23.7h-4.2v-3h5.7c0,0,0.4,0,0.8,0c0.2,0,1.1,0.4,1.5,0.9s0.4,1.1,0.4,1.1v8h-1.9c0,0-0.4-0.7-1.1-1.7
			c-0.2-0.2-0.8,0.2-0.8,0.2s-0.2,0.2-0.4,0.4c-3.2,2.6-8,2.2-11.2-0.7c-3.4-2.8-4.4-8.3-2.3-12.6c1.9-4.1,5.9-6.1,10.5-5.4
			c3.6,0.7,5.9,2.8,6.5,5.9c0,0.2,0,0.7,0,0.7h-3.6c0,0-0.4-0.9-0.6-1.5c-0.4-0.2-1.1-0.7-1.3-0.7c-2.3-1.7-5.9-0.9-7.4,1.7
			c-1.5,2.8-1.5,5.9,0,8.7c1.1,2,3.4,2.6,5.9,2.2c1.9-0.4,3-1.7,3.4-3.7C58.8,23.9,58.8,23.7,58.8,23.7"/>
	</g>
	<g>
		<defs>
			<rect id="SVGID_25_" width="145" height="40"/>
		</defs>
		<clipPath id="SVGID_26_">
			<use xlink:href="#SVGID_25_"  style="overflow:visible;"/>
		</clipPath>
		<path class="st9" d="M123.3,18.9c2.1,0,3,1.3,3.2,3.3h-6.7C119.9,22,120.1,18.9,123.3,18.9 M126.2,27.6c-0.2,0.2-1.1,1.3-2.7,1.3
			c-3.6,0-3.6-2.8-3.6-3.9h10.7c0.2-4.3-1.9-9.1-7.2-9.1c-4.6,0-7.6,3.7-7.6,8c0,3.9,2.1,8,7.6,8c5.1,0,6.3-3.3,7-5.2h-2.5
			C127.1,26.7,126.7,27,126.2,27.6"/>
	</g>
	<g>
		<defs>
			<rect id="SVGID_27_" width="145" height="40"/>
		</defs>
		<clipPath id="SVGID_28_">
			<use xlink:href="#SVGID_27_"  style="overflow:visible;"/>
		</clipPath>
		<path class="st10" d="M72.7,18.9c2.1,0,3,1.3,3.2,3.3h-6.7C69.3,22,69.5,18.9,72.7,18.9 M75.9,27.6c-0.2,0.2-1.1,1.3-2.7,1.3
			c-3.6,0-3.6-2.8-3.6-3.9h10.5c0.2-4.3-1.9-9.1-7.2-9.1c-4.6,0-7.6,3.7-7.6,8c0,3.9,2.1,8,7.6,8c5.1,0,6.3-3.3,7-5.2h-2.5
			C76.7,26.7,76.3,27,75.9,27.6"/>
	</g>
</g>
</svg>
