<?xml version="1.0" encoding="utf-8"?>
<!-- Generator: Adobe Illustrator 21.1.0, SVG Export Plug-In . SVG Version: 6.00 Build 0)  -->
<svg version="1.1" id="Слой_1" xmlns="http://www.w3.org/2000/svg" xmlns:xlink="http://www.w3.org/1999/xlink" x="0px" y="0px"
	 viewBox="0 0 156 40" style="enable-background:new 0 0 156 40;" xml:space="preserve">
<style type="text/css">
	.st0{clip-path:url(#SVGID_2_);fill:#5799D4;}
	.st1{clip-path:url(#SVGID_4_);fill:#5799D4;}
	.st2{clip-path:url(#SVGID_6_);fill:#5799D4;}
	.st3{clip-path:url(#SVGID_8_);fill:#5799D4;}
	.st4{clip-path:url(#SVGID_10_);fill:#F7D737;}
	.st5{clip-path:url(#SVGID_12_);fill:#F7D737;}
	.st6{clip-path:url(#SVGID_14_);fill:#5799D4;}
	.st7{clip-path:url(#SVGID_16_);fill:#5799D4;}
	.st8{clip-path:url(#SVGID_18_);fill:#5799D4;}
	.st9{clip-path:url(#SVGID_20_);fill:#5799D4;}
	.st10{clip-path:url(#SVGID_22_);fill:#5799D4;}
	.st11{clip-path:url(#SVGID_24_);fill:#5799D4;}
	.st12{clip-path:url(#SVGID_26_);fill:#5799D4;}
	.st13{clip-path:url(#SVGID_28_);fill:#5799D4;}
	.st14{clip-path:url(#SVGID_30_);fill:#5799D4;}
</style>
<g>
	<g>
		<defs>
			<rect id="SVGID_1_" width="156" height="40"/>
		</defs>
		<clipPath id="SVGID_2_">
			<use xlink:href="#SVGID_1_"  style="overflow:visible;"/>
		</clipPath>
		<path class="st0" d="M132.5,23.4h3.1c-0.5-1.5-0.9-2.8-1.6-4.5C133.5,20.4,133,21.9,132.5,23.4 M131.2,27
			c-0.9,2.6-0.9,2.6-3.4,2.6c-0.2,0-0.5,0-0.7,0c-0.9,0-1.1-0.4-0.9-1.1c1.6-4.3,3.2-8.7,4.9-13c0.2-0.6,0.5-0.9,1.3-0.9
			c1.1,0,2.3,0,3.4,0c0.7,0,0.9,0.2,1.1,0.8c1.6,4.5,3.2,9.1,4.9,13.4c0.2,0.8-0.2,0.9-0.7,0.9c-0.9,0-2,0.2-2.9,0
			c-0.4,0-0.9-0.8-1.1-1.1c-0.2-1.1-0.7-1.5-2-1.3C133.9,27,132.6,27,131.2,27"/>
	</g>
	<g>
		<defs>
			<rect id="SVGID_3_" width="156" height="40"/>
		</defs>
		<clipPath id="SVGID_4_">
			<use xlink:href="#SVGID_3_"  style="overflow:visible;"/>
		</clipPath>
		<path class="st1" d="M55.7,23.6c0,1.7,0,3.2,0,4.7c0,0.9-0.4,1.3-1.3,1.3c-2.9,0-2.9,0-2.9-3c0-3.8,0-7.4,0-11.1
			c0-0.9,0.2-1.3,1.1-1.1c0.7,0,1.3,0,2,0c0.9,0,1.1,0.4,1.1,1.3c0,0.9,0,2.1,0,3.4c0.9-1.1,1.8-2.3,2.5-3.2
			c0.5-0.9,1.3-1.5,2.3-1.3c0.9,0.2,1.8,0,2.7,0c0.2,0,0.5,0.2,0.7,0.4c0,0.2,0,0.6-0.2,0.8c-1.4,1.7-2.9,3.4-4.3,5.1
			c-0.4,0.6-0.2,0.8,0.2,1.1c1.8,2.3,3.4,4.3,5.2,6.6c0.2,0.2,0.4,0.8,0.2,0.8c-0.2,0.2-0.2,0.4-0.9,0.4c-0.7,0-2.5,0.2-3.1,0
			c-1.1-0.4-2-1.3-2.7-2.5C57.7,25.8,56.8,24.9,55.7,23.6"/>
	</g>
	<g>
		<defs>
			<rect id="SVGID_5_" width="156" height="40"/>
		</defs>
		<clipPath id="SVGID_6_">
			<use xlink:href="#SVGID_5_"  style="overflow:visible;"/>
		</clipPath>
		<path class="st2" d="M119,18.7c-1.1,0-2.2,0-3.1,0c-0.7,0-1.1-0.4-1.1-1.1c0-3.2,0-3.2,2.9-3.2s5.8,0,8.6,0c0.7,0,1.1,0.4,1.1,0.9
			c0,0.8,0,1.5,0,2.3c0,0.8-0.4,0.9-1.1,0.9c-1.1,0-2,0-3.2,0v1.9c0,2.6,0,5.1,0,7.7c0,0.8-0.4,1.1-1.1,1.1c-3.1,0-3.1,0.2-3.1-3
			C119,26.2,119,18.7,119,18.7z"/>
	</g>
	<g>
		<defs>
			<rect id="SVGID_7_" width="156" height="40"/>
		</defs>
		<clipPath id="SVGID_8_">
			<use xlink:href="#SVGID_7_"  style="overflow:visible;"/>
		</clipPath>
		<path class="st3" d="M85.5,22.1c0,2.1,0,4.2,0,6.2c0,0.9-0.4,1.3-1.3,1.3c-0.5,0-1.3,0-1.8,0c-1.4,0-1.8,0-1.8-1.9
			c0-3.6,0-7,0-10.6c0-3-0.4-2.8,2.7-2.8c2.2,0,2.2,0,2.2,2.1V22.1z"/>
	</g>
	<g>
		<defs>
			<rect id="SVGID_9_" width="156" height="40"/>
		</defs>
		<clipPath id="SVGID_10_">
			<use xlink:href="#SVGID_9_"  style="overflow:visible;"/>
		</clipPath>
		<path class="st4" d="M82.1,8.1c0,2.3-1.6,4-3.8,4c-2,0-3.8-1.7-3.8-3.8s1.8-4,3.8-3.8C80.5,4.5,82.1,6,82.1,8.1"/>
	</g>
	<g>
		<defs>
			<rect id="SVGID_11_" width="156" height="40"/>
		</defs>
		<clipPath id="SVGID_12_">
			<use xlink:href="#SVGID_11_"  style="overflow:visible;"/>
		</clipPath>
		<path class="st5" d="M88.1,4.3c2.2,0,3.8,1.7,3.8,3.8s-1.8,3.8-3.8,3.8c-2,0-3.8-1.9-3.8-4C84.5,6,86.1,4.3,88.1,4.3"/>
	</g>
	<g>
		<defs>
			<rect id="SVGID_13_" width="156" height="40"/>
		</defs>
		<clipPath id="SVGID_14_">
			<use xlink:href="#SVGID_13_"  style="overflow:visible;"/>
		</clipPath>
		<path class="st6" d="M147.7,17.9c0,0,2,0,3.1,0.2c0.9,0.2,1.1,0.9,0.9,1.7c0,0.9-0.7,1.3-1.4,1.3s-2.5,0-2.5,0
			S147.7,17.9,147.7,17.9z M151.9,24.5c2.3-0.4,4.1-2.5,4.1-5.3c-0.2-2.5-2.5-4.7-4.7-4.9c-2.3,0-4.7,0-6.8,0
			c-0.7,0-0.9,0.4-0.9,0.9c0,4.3,0,8.7,0,13c0,0.8,0.4,1.1,1.1,1.1s1.4,0,2.2,0c0.7,0,1.1-0.4,1.1-1.1c0-0.8,0-1.5,0-2.3
			c0.2,0.4,0.5,0.6,0.7,0.9c0.7,1.1,1.6,2.1,2.7,2.5c0.5,0.2,2.3,0,3.1,0s0.7-0.4,0.9-0.4c0.2-0.2,0-0.6-0.2-0.8
			C153.8,27.2,152.8,25.8,151.9,24.5"/>
	</g>
	<g>
		<defs>
			<rect id="SVGID_15_" width="156" height="40"/>
		</defs>
		<clipPath id="SVGID_16_">
			<use xlink:href="#SVGID_15_"  style="overflow:visible;"/>
		</clipPath>
		<path class="st7" d="M21.2,0c0.9,0,1.8,1.1,2,2.3c0,0.2,0,0.4,0,0.6c0,3.2,0,6.4,0,9.6c0,1.5-1.3,3-2.9,2.8
			C19.1,15.1,18,14,18,12.6c0-3.4,0-6.6,0-10c0-1.3,0.5-2.3,1.8-2.6C19.9,0,20.5,0,21.2,0"/>
	</g>
	<g>
		<defs>
			<rect id="SVGID_17_" width="156" height="40"/>
		</defs>
		<clipPath id="SVGID_18_">
			<use xlink:href="#SVGID_17_"  style="overflow:visible;"/>
		</clipPath>
		<path class="st8" d="M41.2,15.8c0,1.1-0.7,2.3-1.8,2.5c-3.1,0.9-6.1,2.1-9.2,3c-1.8,0.6-3.6-0.8-3.6-2.6c0-1.3,0.7-2.1,2.2-2.6
			c2.2-0.8,4.3-1.5,6.5-2.1c0.7-0.2,1.6-0.6,2.3-0.8C39.5,12.8,41.3,14.2,41.2,15.8"/>
	</g>
	<g>
		<defs>
			<rect id="SVGID_19_" width="156" height="40"/>
		</defs>
		<clipPath id="SVGID_20_">
			<use xlink:href="#SVGID_19_"  style="overflow:visible;"/>
		</clipPath>
		<path class="st9" d="M12.8,16.4c1.8,0.6,2.3,3,1.1,4.3c-0.9,0.9-1.8,1.1-2.9,0.8c-2.5-0.8-5-1.7-7.5-2.5c-0.4-0.2-0.9-0.4-1.4-0.6
			c-1.8-0.6-2.7-2.6-1.3-4.5c0.4-0.4,1.3-0.9,2-0.8C3.1,13.4,10.4,15.7,12.8,16.4"/>
	</g>
	<g>
		<defs>
			<rect id="SVGID_21_" width="156" height="40"/>
		</defs>
		<clipPath id="SVGID_22_">
			<use xlink:href="#SVGID_21_"  style="overflow:visible;"/>
		</clipPath>
		<path class="st10" d="M9.7,40c-1.3,0-2.2-0.6-2.5-1.3c-0.5-0.9-0.5-1.9,0.2-2.8c1.4-2.1,3.1-4.2,4.5-6.4c0.5-0.8,0.9-1.5,1.6-2.1
			c0.9-0.9,2.3-0.9,3.4-0.2s1.4,2.5,0.5,3.6c-1.3,1.7-2.5,3.6-3.8,5.3c-0.7,0.9-1.3,1.9-2,2.8C11.3,39.6,10.4,40,9.7,40"/>
	</g>
	<g>
		<defs>
			<rect id="SVGID_23_" width="156" height="40"/>
		</defs>
		<clipPath id="SVGID_24_">
			<use xlink:href="#SVGID_23_"  style="overflow:visible;"/>
		</clipPath>
		<path class="st11" d="M26.1,26.6c1.3-0.2,1.8,0.8,2.5,1.7c1.8,2.5,3.6,4.9,5.2,7.4c0.7,1.1,0.7,2.5,0,3.4
			c-0.9,1.1-2.2,1.3-3.4,0.6c-0.7-0.4-1.1-0.9-1.4-1.5c-1.8-2.5-3.4-4.9-5.2-7.2C23,30,23,29.1,23.5,28.1
			C24.3,27.2,25,26.6,26.1,26.6"/>
	</g>
	<g>
		<defs>
			<rect id="SVGID_25_" width="156" height="40"/>
		</defs>
		<clipPath id="SVGID_26_">
			<use xlink:href="#SVGID_25_"  style="overflow:visible;"/>
		</clipPath>
		<path class="st12" d="M78.7,15.1c0-0.2-0.4-0.4-0.5-0.4c-0.7,0-1.4,0-2.3,0c-0.9-0.2-1.4,0.6-1.8,1.5c-0.5,1.1-1.3,2.6-1.8,4
			c-0.5-1.3-1.4-2.8-1.8-4c-0.4-0.9-0.9-1.7-1.8-1.5c-0.7,0.2-1.4,0-2.3,0c-0.2,0-0.5,0.2-0.5,0.4s0,0.6,0.2,0.8c0.9,2.1,2,4,3.1,6
			c0.2,0.2,1.1,2.1,1.1,2.1s0,1.9,0,3.8c0,1.9,0.4,1.9,1.8,1.9c0.5,0,1.3,0,1.8,0c0.9,0,1.3-0.4,1.3-1.3c0-0.8,0-4.3,0-4.3
			s1.1-1.9,1.1-2.1c1.1-1.9,2-4,3.1-6C78.7,15.7,78.7,15.3,78.7,15.1"/>
	</g>
	<g>
		<defs>
			<rect id="SVGID_27_" width="156" height="40"/>
		</defs>
		<clipPath id="SVGID_28_">
			<use xlink:href="#SVGID_27_"  style="overflow:visible;"/>
		</clipPath>
		<path class="st13" d="M101.2,15.1c-0.2-0.4-0.5-0.4-0.7-0.4c-0.7,0-1.3,0-2,0c-0.9-0.2-1.3,0.8-1.6,1.7c-0.5,1.3-2,6.6-2,6.6
			s-0.2,0.4-0.5,0.4S93.8,23,93.8,23s-1.6-5.3-2-6.6c-0.4-0.9-0.5-1.9-1.6-1.7c-0.7,0.2-1.3,0-2,0c-0.2,0-0.5,0-0.7,0.4
			c-0.2,0.2-0.2,0.6,0,0.8c0.9,2.1,4,11.9,4.3,12.6c0.2,0.9,0.2,0.9,1.1,0.9c0.4,0,0.9,0,1.3,0l0,0h0.5l0,0c0.4,0,0.9,0,1.3,0
			c0.9,0,0.7,0,1.1-0.9c0.2-0.8,3.2-10.8,4.3-12.6C101.4,15.7,101.4,15.3,101.2,15.1"/>
	</g>
	<g>
		<defs>
			<rect id="SVGID_29_" width="156" height="40"/>
		</defs>
		<clipPath id="SVGID_30_">
			<use xlink:href="#SVGID_29_"  style="overflow:visible;"/>
		</clipPath>
		<path class="st14" d="M113.8,25.3c0,1.3-0.5,2.5-1.6,3.2c-1.1,0.8-2.5,1.3-4.3,1.3c-0.7,0-2.7-0.6-4-1.3c-1.3-0.8-2.3-2.1-2.3-2.5
			c0-0.2,2.5-1.7,2.7-1.7c0.2,0.2,0.7,1.1,1.3,1.3c0.5,0.4,1.3,0.8,2,0.8c1.1,0.2,1.8,0.2,2.2-0.9c0.5-1.9-3.6-2.8-4.7-3.2
			c-0.5-0.4-1.1-0.6-1.4-0.9c-0.4-0.4-0.7-0.8-0.9-1.1c-0.2-0.4-0.4-0.9-0.4-1.5c0-0.6,0.2-1.1,0.4-1.7c0.4-0.6,0.7-0.9,1.1-1.3
			c0.5-0.4,1.1-0.8,1.8-0.9s1.4-0.4,2.3-0.4c1.4,0,2.5,0.2,3.4,0.6s2.2,1.5,2.2,1.5c-0.2,0.2-2.2,2.1-2.3,2.1
			c-0.2,0-0.9-0.8-1.4-0.9c-0.5-0.2-1.1-0.4-1.8-0.4c-0.9,0-1.4,0.4-1.6,0.8c-0.2,0.6-0.2,0.9,0.5,1.5c0.5,0.4,1.3,0.6,1.8,0.8
			c1.3,0.4,2.5,1.1,2.7,1.1c0.5,0.2,1.1,0.8,1.4,1.1c0.4,0.4,0.5,0.8,0.7,1.1C113.8,24.2,113.8,24.7,113.8,25.3"/>
	</g>
</g>
</svg>
