<?xml version="1.0" encoding="utf-8"?>
<!-- Generator: Adobe Illustrator 21.1.0, SVG Export Plug-In . SVG Version: 6.00 Build 0)  -->
<svg version="1.1" id="Layer_2" xmlns="http://www.w3.org/2000/svg" xmlns:xlink="http://www.w3.org/1999/xlink" x="0px" y="0px"
	 viewBox="0 0 142 18" style="enable-background:new 0 0 142 18;" xml:space="preserve">
<style type="text/css">
	.st0{fill:#7C7D7F;}
	.st1{fill:#69B261;}
	.st2{fill:#413385;}
</style>
<polygon class="st0" points="18.8,16.4 21.1,18 28,13.5 28,4.5 21.1,0 18.8,1.4 22.5,3.8 22.5,14 "/>
<polygon class="st1" points="11.8,16.2 14.6,18 21.5,13.5 21.5,4.5 14.6,0 11.8,1.8 15,3.8 15,14 "/>
<polygon class="st2" points="13.7,13.5 13.7,4.5 6.9,0 0,4.5 0,13.5 6.9,18 "/>
<path class="st2" d="M52.1,15.6V1h-4.6l-4.6,11.5c-0.4,0.8-0.4,1.4-0.5,2.2l0,0c-0.2-1-0.2-1.6-0.5-2.2L37.5,1h-4.4v14.6h2.5V3.6
	c0,0,0,0,0-0.2h0.7l0,0L41,15.4h3l4.8-11.9V3.4h0.7l0,0v12.1h2.6V15.6z M124.4,3.8v12.1h2.3V5.9c0-0.2,0-0.4,0-0.6h0.4
	c0,0.2,0.2,0.4,0.2,0.4l4.4,9.9h2.8l4.4-9.9c0-0.2,0.2-0.4,0.4-0.6h0.5c0,0.2,0,0.4,0,0.6v9.9h2.3V3.8h-0.9l0,0h-2.5l0,0H138
	l-4.2,9.3c-0.4,0.6-0.4,1.2-0.5,1.8l0,0c-0.2-0.8-0.2-1.2-0.4-1.8l-4.4-9.3h-0.5l0,0h-2.5l0,0H124.4z M113.3,5.5h6.9v8.3h-6.9V5.5z
	 M111.4,13.8v2h2.1h6.9h1.4h0.7V3.8l0,0h-2.1l0,0h-6.9h-2.1v1.8C111.4,5.5,111.4,13.8,111.4,13.8z M96.6,13.5v2.4h2.5h9.7l0,0v-2.4
	h-9.9V3.6h9.7l0,0V1.4h-9.9h-2.5v2.2v9.9H96.6z M87.6,5.3l2.5,5.3h-5.6l2.5-5.3H87.6z M85.7,3.8l-6.3,12.1h2.8l1.6-3.4H91l1.8,3.4
	h2.8L89.2,3.8h-0.5h-2.5C86.2,3.8,85.7,3.8,85.7,3.8z M68.1,13.8v2h2.1h6.2h2.1l0,0l0,0v-2v-3.4V8.7l0,0l0,0h-2.1h-3.9v1.8h3.9v3.4
	h-6.2V5.5h8.1l0,0V3.8H70h-2.1v1.8v8.3H68.1z M55.3,15.8h10.2l0,0l0,0l0,0v-2h-7.7v-3.4h7.7l0,0v-2h-7.7v-3h7.7l0,0V3.8H55.3v1.8v3
	v1.8v3.6C55.3,13.8,55.3,15.8,55.3,15.8z"/>
</svg>
