<?xml version="1.0" encoding="utf-8"?>
<!-- Generator: Adobe Illustrator 21.1.0, SVG Export Plug-In . SVG Version: 6.00 Build 0)  -->
<svg version="1.1" id="Layer_1" xmlns="http://www.w3.org/2000/svg" xmlns:xlink="http://www.w3.org/1999/xlink" x="0px" y="0px"
	 viewBox="0 0 155 29" style="enable-background:new 0 0 155 29;" xml:space="preserve">
<style type="text/css">
	.st0{fill:#5A9F65;}
</style>
<g>
	<path class="st0" d="M14.8,0L14.8,0C6.6,0,0,6.5,0,14.5c0,6.9,4.9,12.7,11.6,14.2c0-0.2,0-11.7,0-12.9c0-1,0.9-1.3,1.2-1.3
		c0.3,0,2,0,2,0L14.8,0L14.8,0z M11.8,12c-1,0-1.9-0.8-1.9-1.8c0-1,0.9-1.8,1.9-1.8c1,0,1.9,0.8,1.9,1.8C13.7,11.1,12.8,12,11.8,12z
		"/>
	<path class="st0" d="M16.5,0.1c0,0.1,0,13.9,0,14.8c0,1-0.9,1.3-1.2,1.3s-1.9,0-1.9,0v12.6c0.5,0,0.9,0.1,1.4,0.1
		c8.1,0,14.7-6.5,14.7-14.5C29.4,7.1,23.8,1,16.5,0.1z M16.3,22.5c-1,0-1.9-0.8-1.9-1.8c0-1,0.9-1.8,1.9-1.8c1,0,1.9,0.8,1.9,1.8
		C18.1,21.6,17.3,22.5,16.3,22.5z M20.5,22.5c-1,0-1.9-0.8-1.9-1.8c0-1,0.9-1.8,1.9-1.8c1,0,1.9,0.8,1.9,1.8
		C22.4,21.6,21.5,22.5,20.5,22.5z M24.8,22.5c-1,0-1.9-0.8-1.9-1.8c0-1,0.9-1.8,1.9-1.8c1,0,1.9,0.8,1.9,1.8
		C26.6,21.6,25.8,22.5,24.8,22.5z"/>
	<g>
		<path class="st0" d="M86.6,8.9h-10c-1.2,0-2,0.8-2,2.2v11.1h3.3V12c0-0.2,0-0.3,0.3-0.3h8.4V8.9z"/>
		<path class="st0" d="M114,6.8h-6.4c-5.1,0-7.2,2.2-7.2,6.8c0,4.6,2.1,6.9,7.2,6.9h1.5v1.7h3.4v-1.7h1.5c5.1,0,7.2-2.3,7.2-6.9
			C121.2,9,119.1,6.8,114,6.8z M109.1,17.7h-1.5c-3.1,0-3.9-1.3-3.9-4s0.8-4,3.9-4h1.5V17.7z M114,17.7h-1.4V9.6h1.4
			c3.1,0,3.9,1.3,3.9,4S117,17.7,114,17.7z"/>
		<path class="st0" d="M60.3,11v9c0,1.4,0.8,2.2,2,2.2h9.9v-2.8h-8.4c-0.2,0-0.3-0.1-0.3-0.3v-2.4H72V14h-8.5v-1.9
			c0-0.2,0-0.3,0.3-0.3h8.4V8.9h-9.9C61,8.9,60.3,9.7,60.3,11z"/>
		<path class="st0" d="M131.9,8.7h-1.2c-5.1,0-7.2,2.2-7.2,6.8c0,4.6,2.1,6.9,7.2,6.9h1.1c5.1,0,7.2-2.3,7.2-6.9
			C139.1,10.8,137,8.7,131.9,8.7z M131.8,19.5h-1.1c-3.1,0-3.9-1.3-3.9-4s0.8-4,3.9-4h1.1c3.1,0,3.9,1.3,3.9,4S135,19.5,131.8,19.5z
			"/>
		<polygon class="st0" points="151.7,8.9 151.7,13.9 144.6,13.9 144.6,8.9 141.4,8.9 141.4,22.2 144.6,22.2 144.6,16.8 151.7,16.8 
			151.7,22.2 155,22.2 155,8.9 		"/>
		<path class="st0" d="M92.4,8.5c-1.3,0-2.2,0.6-2.8,1.8l-5.5,11.8h3.6l1.2-2.8h7l1.2,2.8h3.6l-5.5-11.8C94.6,9.2,93.7,8.5,92.4,8.5
			z M90.1,16.7l2.1-4.8c0.1-0.2,0.2-0.3,0.3-0.3c0.1,0,0.2,0,0.3,0.3l2.1,4.8H90.1z"/>
		<path class="st0" d="M51.5,9c0.7-1.7,1.8-2.5,3.4-2.5c1.9,0,3,1,3,3.3v12.4h-3.4V10.2l-4.6,10.2c-0.6,1.4-1.4,2.1-2.8,2.1
			c-1.4,0-2.2-0.8-2.9-2.1l-4.6-10.2v12.1h-3.4V9.8c0-2.3,1.2-3.3,3-3.3c1.6,0,2.6,0.8,3.4,2.5l4.4,10L51.5,9z"/>
	</g>
</g>
</svg>
