<?xml version="1.0" encoding="utf-8"?>
<!-- Generator: Adobe Illustrator 21.1.0, SVG Export Plug-In . SVG Version: 6.00 Build 0)  -->
<svg version="1.1" id="Layer_1" xmlns="http://www.w3.org/2000/svg" xmlns:xlink="http://www.w3.org/1999/xlink" x="0px" y="0px"
	 viewBox="0 0 65.4 101" style="enable-background:new 0 0 65.4 101;" xml:space="preserve">
<style type="text/css">
	.st0{fill:none;stroke:#404040;stroke-width:3.5;stroke-miterlimit:10;}
	.st1{fill:none;stroke:#404040;stroke-width:3.5;stroke-linejoin:bevel;}
	.st2{fill:none;stroke:#6AB265;stroke-width:3.5;stroke-miterlimit:10;}
</style>
<g>
	<polyline class="st0" points="53.5,86.3 63.6,86.3 63.6,40.9 63.6,18.1 47.3,1.8 1.8,1.8 1.8,18.6 1.8,40.9 1.8,86.3 37.5,86.3 	
		"/>
	<g>
		<polygon class="st1" points="47.3,18.1 63.6,18.1 47.3,1.8 		"/>
	</g>
</g>
<line class="st0" x1="8.8" y1="12.3" x2="37.8" y2="12.3"/>
<line class="st0" x1="8.5" y1="25.3" x2="54.9" y2="25.3"/>
<line class="st0" x1="8.5" y1="31.8" x2="54.9" y2="31.8"/>
<line class="st0" x1="8.5" y1="38.3" x2="36.8" y2="38.3"/>
<line class="st0" x1="8.5" y1="44.8" x2="36.8" y2="44.8"/>
<line class="st0" x1="8.5" y1="51.4" x2="36.5" y2="51.4"/>
<line class="st0" x1="8.5" y1="57.9" x2="36.5" y2="57.9"/>
<line class="st0" x1="8.5" y1="64.4" x2="32.8" y2="64.4"/>
<line class="st0" x1="8.5" y1="74" x2="21.8" y2="74"/>
<polygon class="st2" points="60.1,76.3 53.4,76.3 53.4,38.3 45.9,38.3 37.8,38.3 37.8,76.3 31.1,76.3 45.6,97.9 "/>
</svg>
