<?xml version="1.0" encoding="utf-8"?>
<!-- Generator: Adobe Illustrator 21.1.0, SVG Export Plug-In . SVG Version: 6.00 Build 0)  -->
<svg version="1.1" id="Слой_1" xmlns="http://www.w3.org/2000/svg" xmlns:xlink="http://www.w3.org/1999/xlink" x="0px" y="0px"
	 viewBox="0 0 125 30" style="enable-background:new 0 0 125 30;" xml:space="preserve">
<style type="text/css">
	.st0{fill:#6D6E70;}
	.st1{clip-path:url(#SVGID_2_);fill:#6D6E70;}
	.st2{clip-path:url(#SVGID_4_);fill:#6D6E70;}
	.st3{clip-path:url(#SVGID_6_);fill:#6D6E70;}
	.st4{clip-path:url(#SVGID_8_);fill:#6D6E70;}
	.st5{clip-path:url(#SVGID_10_);fill:#6D6E70;}
	.st6{clip-path:url(#SVGID_12_);fill:#6D6E70;}
	.st7{clip-path:url(#SVGID_14_);fill:#6D6E70;}
	.st8{clip-path:url(#SVGID_16_);fill:#D9782C;}
	.st9{clip-path:url(#SVGID_18_);fill:#D9782C;}
	.st10{clip-path:url(#SVGID_20_);fill:#D9782C;}
	.st11{clip-path:url(#SVGID_22_);fill:#D9782C;}
	.st12{clip-path:url(#SVGID_24_);fill:#D9782C;}
	.st13{clip-path:url(#SVGID_26_);fill:#D9782C;}
	.st14{clip-path:url(#SVGID_28_);fill:#D9782C;}
	.st15{clip-path:url(#SVGID_30_);fill:#D9782C;}
</style>
<polygon class="st0" points="41.3,24.2 41.3,24.8 40.5,24.8 40.5,27.2 39.7,27.2 39.7,24.8 38.7,24.8 38.7,24.2 "/>
<polygon class="st0" points="43.8,24.2 43.8,24.8 42.5,24.8 42.5,25.5 43.6,25.5 43.6,25.9 42.5,25.9 42.5,26.7 43.8,26.7 
	43.8,27.2 41.8,27.2 41.8,24.2 "/>
<g>
	<g>
		<defs>
			<rect id="SVGID_1_" width="125" height="30"/>
		</defs>
		<clipPath id="SVGID_2_">
			<use xlink:href="#SVGID_1_"  style="overflow:visible;"/>
		</clipPath>
		<path class="st1" d="M46.8,24.2v3h-0.7v-2.4h-0.9v0.6c0,1,0,1.8-1,1.8c-0.1,0-0.3,0-0.3,0v-0.4h0.1c0.6,0,0.4-0.8,0.4-1.6v-1
			C44.5,24.2,46.8,24.2,46.8,24.2z"/>
	</g>
</g>
<polygon class="st0" points="49.4,24.2 49.4,24.8 48.1,24.8 48.1,25.5 49.4,25.5 49.4,25.9 48.1,25.9 48.1,26.7 49.4,26.7 
	49.4,27.2 47.5,27.2 47.5,24.2 "/>
<polygon class="st0" points="50.7,24.2 50.7,25.5 50.7,25.5 51.8,24.2 52.7,24.2 51.3,25.6 52.7,27.2 51.8,27.2 50.7,25.8 
	50.7,25.8 50.7,27.2 50,27.2 50,24.2 "/>
<g>
	<g>
		<defs>
			<rect id="SVGID_3_" width="125" height="30"/>
		</defs>
		<clipPath id="SVGID_4_">
			<use xlink:href="#SVGID_3_"  style="overflow:visible;"/>
		</clipPath>
		<path class="st2" d="M53.4,25.8c0,1,0.7,1.1,0.9,1.1c0.3,0,0.9-0.1,0.9-1.1s-0.7-1.1-0.9-1.1C54.1,24.6,53.4,24.8,53.4,25.8
			 M56,25.8c0,1.1-0.9,1.6-1.6,1.6c-0.9,0-1.6-0.4-1.6-1.6c0-1.1,0.9-1.6,1.6-1.6C55.2,24.2,56,24.6,56,25.8"/>
	</g>
</g>
<polygon class="st0" points="58.2,27.2 57.3,25 57.2,24.6 57.2,24.6 57.2,25 57.2,27.2 56.6,27.2 56.6,24.2 57.6,24.2 58.3,25.9 
	58.5,26.5 58.5,26.5 58.6,25.9 59.3,24.2 60.3,24.2 60.3,27.2 59.8,27.2 59.8,25 59.8,24.6 59.8,24.6 59.6,25 58.8,27.2 "/>
<polygon class="st0" points="62.6,27.2 61.9,25 61.8,24.6 61.8,24.6 61.8,25 61.8,27.2 61.1,27.2 61.1,24.2 62.2,24.2 62.8,25.9 
	62.9,26.5 62.9,26.5 63.1,25.9 63.8,24.2 64.9,24.2 64.9,27.2 64.2,27.2 64.2,25 64.2,24.6 64.2,24.6 64.1,25 63.4,27.2 "/>
<g>
	<g>
		<defs>
			<rect id="SVGID_5_" width="125" height="30"/>
		</defs>
		<clipPath id="SVGID_6_">
			<use xlink:href="#SVGID_5_"  style="overflow:visible;"/>
		</clipPath>
		<path class="st3" d="M66.1,24.2l0.7,1.3l0.1,0.3l0,0l0.1-0.3l0.6-1.3h0.7l-1.3,2.5c-0.1,0.4-0.4,0.4-0.7,0.4c-0.1,0-0.3,0-0.4-0.1
			l0.1-0.4c0.1,0,0.1,0,0.3,0c0.1,0,0.3,0,0.4-0.1l0.1-0.1l-1.2-2.1C65.8,24.2,66.1,24.2,66.1,24.2z"/>
	</g>
</g>
<polygon class="st0" points="69.3,24.2 69.3,25.5 70.6,25.5 70.6,24.2 71.3,24.2 71.3,27.2 70.6,27.2 70.6,25.9 69.3,25.9 
	69.3,27.2 68.5,27.2 68.5,24.2 "/>
<polygon class="st0" points="72.6,24.2 72.6,25.8 72.6,26.5 72.6,26.5 72.9,26 74,24.2 74.7,24.2 74.7,27.2 74.2,27.2 74.2,25.6 
	74.2,24.9 74.2,24.9 73.9,25.5 72.7,27.2 72,27.2 72,24.2 "/>
<polygon class="st0" points="76,24.2 76,25.5 76.2,25.5 77.3,24.2 78.1,24.2 76.8,25.6 78.2,27.2 77.3,27.2 76.2,25.8 76,25.8 
	76,27.2 75.5,27.2 75.5,24.2 "/>
<path class="st0" d="M80.4,26l-0.4-1.3l0,0L79.5,26H80.4z M80.4,24.2l1.3,3h-0.7l-0.3-0.6h-1.4l-0.3,0.7h-0.7l1.3-3h0.9V24.2z"/>
<polygon class="st0" points="82.7,24.2 82.7,26.7 84,26.7 84,24.2 84.7,24.2 84.7,26.7 85.1,26.7 85.1,27.9 84.4,27.9 84.4,27.2 
	82.1,27.2 82.1,24.2 "/>
<polygon class="st0" points="86.1,24.2 86.1,25.8 86.1,26.5 86.1,26.5 86.4,26 87.6,24.2 88.3,24.2 88.3,27.2 87.7,27.2 87.7,25.6 
	87.7,24.9 87.7,24.9 87.4,25.5 86.3,27.2 85.5,27.2 85.5,24.2 "/>
<g>
	<g>
		<defs>
			<rect id="SVGID_7_" width="125" height="30"/>
		</defs>
		<clipPath id="SVGID_8_">
			<use xlink:href="#SVGID_7_"  style="overflow:visible;"/>
		</clipPath>
		<path class="st4" d="M89.6,25.8c0,1,0.7,1.1,0.9,1.1c0.3,0,0.9-0.1,0.9-1.1s-0.7-1.1-0.9-1.1C90.3,24.6,89.6,24.8,89.6,25.8
			 M92,25.8c0,1.1-0.9,1.6-1.6,1.6c-0.9,0-1.6-0.4-1.6-1.6c0-1.1,0.9-1.6,1.6-1.6C91.3,24.2,92,24.6,92,25.8"/>
	</g>
</g>
<polygon class="st0" points="93.3,24.2 93.3,25.5 94.6,25.5 94.6,24.2 95.3,24.2 95.3,27.2 94.6,27.2 94.6,25.9 93.3,25.9 
	93.3,27.2 92.6,27.2 92.6,24.2 "/>
<polygon class="st0" points="96.6,24.2 96.6,25.5 97.9,25.5 97.9,24.2 98.6,24.2 98.6,27.2 97.9,27.2 97.9,25.9 96.6,25.9 
	96.6,27.2 95.9,27.2 95.9,24.2 "/>
<path class="st0" d="M101.2,26l-0.4-1.3l0,0l-0.4,1.3H101.2z M101.1,24.2l1.3,3h-0.7l-0.3-0.7h-1.3l-0.3,0.7h-0.7l1.3-3H101.1z"/>
<g>
	<g>
		<defs>
			<rect id="SVGID_9_" width="125" height="30"/>
		</defs>
		<clipPath id="SVGID_10_">
			<use xlink:href="#SVGID_9_"  style="overflow:visible;"/>
		</clipPath>
		<path class="st5" d="M104.4,24.8H104c-0.6,0-0.6,0.3-0.6,0.4c0,0.4,0.6,0.4,0.6,0.4h0.4V24.8z M105.1,27.2h-0.7V26H104l-0.6,1.1
			h-0.9l0.7-1.3c-0.3-0.1-0.6-0.3-0.6-0.8c0-1,1-1,1.3-1h1.2V27.2z"/>
	</g>
</g>
<polygon class="st0" points="108.9,24.2 108.9,24.8 107.6,24.8 107.6,27.2 106.9,27.2 106.9,24.2 "/>
<g>
	<g>
		<defs>
			<rect id="SVGID_11_" width="125" height="30"/>
		</defs>
		<clipPath id="SVGID_12_">
			<use xlink:href="#SVGID_11_"  style="overflow:visible;"/>
		</clipPath>
		<path class="st6" d="M110.3,25.6c0.4,0,0.6-0.3,0.6-0.4c0-0.3-0.1-0.4-0.6-0.4H110v1h0.3V25.6z M110.3,24.2c1.2,0,1.3,0.7,1.3,1
			c0,0.4-0.3,1-1.2,1H110v1.1h-0.7v-3h1V24.2z"/>
	</g>
	<g>
		<defs>
			<rect id="SVGID_13_" width="125" height="30"/>
		</defs>
		<clipPath id="SVGID_14_">
			<use xlink:href="#SVGID_13_"  style="overflow:visible;"/>
		</clipPath>
		<path class="st7" d="M112.3,24.2l0.7,1.3l0.1,0.3l0,0l0.1-0.3l0.6-1.3h0.7l-1.3,2.5c-0.1,0.4-0.4,0.4-0.7,0.4
			c-0.1,0-0.3,0-0.4-0.1l0.1-0.4c0.1,0,0.1,0,0.3,0s0.3,0,0.4-0.1l0.1-0.1l-1.2-2.1C112,24.2,112.3,24.2,112.3,24.2z"/>
	</g>
</g>
<polygon class="st0" points="117.5,24.2 117.5,27.2 116.8,27.2 116.8,24.8 115.5,24.8 115.5,27.2 114.9,27.2 114.9,24.2 "/>
<polygon class="st0" points="120.8,24.2 120.8,27.2 120.1,27.2 120.1,24.8 118.8,24.8 118.8,27.2 118.1,27.2 118.1,24.2 "/>
<path class="st0" d="M122.8,24.8L122.8,24.8l0.4,1.3h-0.9L122.8,24.8z M122.6,24.2l-1.3,3h0.7l0.3-0.7h1.3l0.3,0.7h0.7l-1.3-3H122.6
	z"/>
<g>
	<g>
		<defs>
			<rect id="SVGID_15_" width="125" height="30"/>
		</defs>
		<clipPath id="SVGID_16_">
			<use xlink:href="#SVGID_15_"  style="overflow:visible;"/>
		</clipPath>
		<path class="st8" d="M28.8,27.6l-4.2-6.7h5.8l-0.1-4.7c0,0-2.9-0.7-5.9-0.7s-5.8,0.7-5.8,0.7s-2,1.7-3.6,4.1s-2.3,5.1-2.3,5.1
			L17,28l2.9-4.5l4.2,6.7L28.8,27.6z"/>
	</g>
	<g>
		<defs>
			<rect id="SVGID_17_" width="125" height="30"/>
		</defs>
		<clipPath id="SVGID_18_">
			<use xlink:href="#SVGID_17_"  style="overflow:visible;"/>
		</clipPath>
		<path class="st9" d="M28.8,2.4l-4.2,6.7h5.8l-0.1,4.7c0,0-2.9,0.7-5.9,0.7s-5.8-0.7-5.8-0.7s-2-1.7-3.6-4.1s-2.3-5.1-2.3-5.1L17,2
			l2.9,4.5L24,0L28.8,2.4z"/>
	</g>
	<g>
		<defs>
			<rect id="SVGID_19_" width="125" height="30"/>
		</defs>
		<clipPath id="SVGID_20_">
			<use xlink:href="#SVGID_19_"  style="overflow:visible;"/>
		</clipPath>
		<path class="st10" d="M0,17.4h8.5l-2.9,4.5l4.6,2.1c0,0,2.2-2,3.6-4.2C15.3,17.4,16,15,16,15s-0.7-2.4-2.2-4.8s-3.6-4.2-3.6-4.2
			l-4.8,2l2.9,4.5H0V17.4z"/>
	</g>
	<g>
		<defs>
			<rect id="SVGID_21_" width="125" height="30"/>
		</defs>
		<clipPath id="SVGID_22_">
			<use xlink:href="#SVGID_21_"  style="overflow:visible;"/>
		</clipPath>
		<path class="st11" d="M101.4,8.9L98.1,14V8.9h-5.8v12h5.2c0,0,0.9-0.4,1.9-1.7c0.7-1,1.9-2.5,2.4-3.4v5.2h5.8V8.9H101.4z"/>
	</g>
	<g>
		<defs>
			<rect id="SVGID_23_" width="125" height="30"/>
		</defs>
		<clipPath id="SVGID_24_">
			<use xlink:href="#SVGID_23_"  style="overflow:visible;"/>
		</clipPath>
		<path class="st12" d="M83.8,8.5c-2.7,0-6.8,0.4-6.8,0.4v3.4h3.6v8.6h6.5v-8.6h3.6V8.9C90.6,8.9,86.7,8.5,83.8,8.5"/>
	</g>
	<g>
		<defs>
			<rect id="SVGID_25_" width="125" height="30"/>
		</defs>
		<clipPath id="SVGID_26_">
			<use xlink:href="#SVGID_25_"  style="overflow:visible;"/>
		</clipPath>
		<path class="st13" d="M55.2,8.9h-2.4h-2.4l-1.9,5.5l0,0l-1.9-5.5h-2.4h-2.4h-2.4v12h5V15h0.3c0,0.4,0.1,1.1,0.4,1.8
			c0.4,1.6,2,4,2,4h3.5c0,0,1.6-2.5,2-4c0.1-0.7,0.3-1.4,0.4-1.8h0.3v5.9h5v-12H55.2z"/>
	</g>
	<g>
		<defs>
			<rect id="SVGID_27_" width="125" height="30"/>
		</defs>
		<clipPath id="SVGID_28_">
			<use xlink:href="#SVGID_27_"  style="overflow:visible;"/>
		</clipPath>
		<path class="st14" d="M69.4,14.7v0.6v1c0,0,0,0.7-0.4,1.3c-0.4,0.6-1.6,0.6-2.2,0c-0.4-0.4-0.4-1.3-0.4-1.3v-1v-0.6v-1
			c0,0,0-0.7,0.4-1.3c0.4-0.6,1.6-0.6,2.2,0c0.4,0.4,0.4,1.3,0.4,1.3V14.7z M73.7,10.3c-1.2-1-3.5-1.7-5.9-1.7
			c-2.3,0-4.8,0.7-5.9,1.7c-2.3,2-2.3,3.4-2.3,4.5V15c0,1.1,0,2.5,2.3,4.5c1.2,1,3.5,1.7,5.9,1.7c2.3,0,4.8-0.7,5.9-1.7
			c2.3-2,2.3-3.4,2.3-4.5v-0.1C76.2,13.7,76,12.3,73.7,10.3"/>
	</g>
	<g>
		<defs>
			<rect id="SVGID_29_" width="125" height="30"/>
		</defs>
		<clipPath id="SVGID_30_">
			<use xlink:href="#SVGID_29_"  style="overflow:visible;"/>
		</clipPath>
		<path class="st15" d="M117.5,18.4L117.5,18.4h-1.4V16h1.4c0.7,0,1.3,0.6,1.3,1.1C118.8,17.8,118.2,18.4,117.5,18.4 M116.1,11.3
			h1.6l0,0c0.6,0.1,1,0.6,1,1.1c0,0.6-0.4,1-1,1.1l0,0h-1.6V11.3z M124.3,16c-0.9-1.1-2.4-1.3-2.4-1.3v-0.3c0,0,1-0.1,1.6-0.7
			c1.4-1.3,0.9-2.8,0-3.7c-1-1-3.2-1-3.2-1h-4.3h-0.7h-4.8v12h5.3h0.3h4.9c0.4,0,1.7,0,3.2-1.1C125.4,18.7,124.9,16.7,124.3,16"/>
	</g>
</g>
</svg>
