<?xml version="1.0" encoding="utf-8"?>
<!-- Generator: Adobe Illustrator 21.1.0, SVG Export Plug-In . SVG Version: 6.00 Build 0)  -->
<svg version="1.1" id="Layer_1" xmlns="http://www.w3.org/2000/svg" xmlns:xlink="http://www.w3.org/1999/xlink" x="0px" y="0px"
	 viewBox="0 0 96 35" style="enable-background:new 0 0 96 35;" xml:space="preserve">
<style type="text/css">
	.st0{fill:#CC2128;}
	.st1{fill:#FFFFFF;}
</style>
<path class="st0" d="M95.7,21.9c0,0-2,0.2-4.4,0.2c-2.8,0-3.4-0.9-3.4-3.2v-2.8c0-2.4,0.5-3.2,3.4-3.2c2.2,0,4.2,0.3,4.2,0.3
	l0.3-4.3c0,0-2.6-0.3-4.9-0.3c-6,0-8.2,2-8.2,7v4.3c0,5.4,2.6,7,8.2,7c2.2,0,5.1-0.3,5.1-0.3L95.7,21.9z"/>
<polygon class="st0" points="65.6,13.2 70.6,13.2 70.6,26.3 75.8,26.3 75.8,13.2 80.7,13.2 81.1,8.8 65.4,8.8 "/>
<polygon class="st0" points="55.1,24.6 57.9,17.8 58.2,17.8 58.8,26.3 63.8,26.3 62.6,8.8 57.7,8.8 53.6,18.8 53.3,18.8 49,8.8 
	44.2,8.8 43,26.3 47.9,26.3 48.4,17.8 48.7,17.8 51.8,24.6 "/>
<path class="st0" d="M34.5,31.5c0,2-1.6,3.5-3.4,3.5H3.4C1.5,35,0,33.4,0,31.5v-28C0,1.5,1.6,0,3.4,0H31c1.9,0,3.4,1.6,3.4,3.5v28
	H34.5z M17.2,30.5c6.5,0,9.3-5.2,9.3-10.4c0-7.3-5-15.6-9.3-15.6S7.9,12.7,7.9,20C7.9,25.3,10.8,30.5,17.2,30.5"/>
<path class="st1" d="M26.5,20.2c0-7.3-5-15.6-9.3-15.6s-9.3,8.3-9.3,15.6c0,5.2,2.8,10.4,9.3,10.4S26.5,25.3,26.5,20.2"/>
</svg>
