<?xml version="1.0" encoding="utf-8"?>
<!-- Generator: Adobe Illustrator 21.1.0, SVG Export Plug-In . SVG Version: 6.00 Build 0)  -->
<svg version="1.1" id="Layer_1" xmlns="http://www.w3.org/2000/svg" xmlns:xlink="http://www.w3.org/1999/xlink" x="0px" y="0px"
	 viewBox="0 0 70 70" style="enable-background:new 0 0 70 70;" xml:space="preserve">
<style type="text/css">
	.st0{fill:#58AD64;}
	.st1{fill:#FFFFFF;}
</style>
<path class="st0" d="M65,70H5c-2.8,0-5-2.2-5-5V5c0-2.8,2.2-5,5-5h60c2.8,0,5,2.2,5,5v60C70,67.8,67.8,70,65,70z"/>
<path class="st1" d="M46.5,35L26.8,46.4V23.7L46.5,35 M50.8,35c0-1.5-0.8-3-2.2-3.7L29,19.9c-1.3-0.8-3-0.8-4.3,0
	c-1.3,0.8-2.2,2.2-2.2,3.7v22.7c0,1.5,0.8,3,2.2,3.7c1.3,0.8,3,0.8,4.3,0l19.7-11.4C50,38,50.8,36.6,50.8,35L50.8,35z"/>
</svg>
