<?xml version="1.0" encoding="utf-8"?>
<!-- Generator: Adobe Illustrator 21.1.0, SVG Export Plug-In . SVG Version: 6.00 Build 0)  -->
<svg version="1.1" id="Isolation_Mode" xmlns="http://www.w3.org/2000/svg" xmlns:xlink="http://www.w3.org/1999/xlink" x="0px"
	 y="0px" viewBox="0 0 145 36" style="enable-background:new 0 0 145 36;" xml:space="preserve">
<style type="text/css">
	.st0{fill:#3AA8E4;}
	.st1{fill:#D97A2C;}
</style>
<g>
	<path d="M114.4,25.1c0.1,0,0.2-0.1,0.2-0.2v-1.6c0-0.1-0.1-0.2-0.2-0.2s-1.8,0-2.2,0c-2,0-3.3-1.3-3.3-3.2c0-2.2,1.4-3.3,3.4-3.3h2
		c0.1,0,0.2-0.1,0.2-0.2v-1.6c0-0.1-0.1-0.2-0.2-0.2h-2.5c-3.8,0-5.9,2.4-5.9,5.3c0,2.8,2,5.5,5.8,5.5"/>
	<path d="M64.4,18.8c-0.9-0.3-1.8-0.4-1.8-1.4c0-0.2,0.1-0.9,1.6-0.9h2.5c0.1,0,0.2-0.1,0.2-0.2v-1.6c0-0.1-0.1-0.2-0.2-0.2h-3
		c-3.1,0-3.9,1.8-3.9,3c0,1.8,1.2,2.5,2.9,3.1c1,0.3,1.8,0.6,1.8,1.5c0,0.4-0.3,1-1.8,1h-2.8c-0.1,0-0.2,0.1-0.2,0.2v1.6
		c0,0.1,0.1,0.2,0.2,0.2h3.3c2.9,0,4.2-1.4,4.2-3.1C67.3,19.9,65.6,19.2,64.4,18.8"/>
	<path d="M52.3,14.3c-3.3,0-5.5,1.9-5.5,5.5s2.4,5.5,5.5,5.5c3.3,0,5.5-1.9,5.5-5.5S55.4,14.3,52.3,14.3 M52.3,23.3
		c-1.2,0-2.6-1-2.6-3.4s1.4-3.4,2.6-3.4c1.3,0,2.6,1,2.6,3.4C54.9,22.3,53.5,23.3,52.3,23.3"/>
	<path d="M121.3,14.3c-3.3,0-5.5,1.9-5.5,5.5s2.4,5.5,5.5,5.5c3.3,0,5.5-1.9,5.5-5.5S124.5,14.3,121.3,14.3 M121.3,23.3
		c-1.3,0-2.6-1-2.6-3.4s1.3-3.4,2.6-3.4c1.3,0,2.6,1,2.6,3.4C123.9,22.3,122.5,23.3,121.3,23.3"/>
	<path d="M103.2,22.8c0,0-1.4,0.1-2.5,0.1c-2,0-3.5-1-3.6-2.3h6c0.7,0,1.2-0.5,1.2-1.2c-0.1-1.6-0.7-5.2-4.9-5.2
		c-2.9,0-5.3,2-5.3,5.5c0,3.8,3.3,5.4,6.4,5.4c1.3,0,2.6-0.1,2.6-0.1c0.1,0,0.2-0.1,0.2-0.2V23C103.4,22.9,103.3,22.8,103.2,22.8
		 M99.3,16.2c1.1,0,2.3,0.8,2.3,2.5h-4.5C97.1,17.3,98,16.2,99.3,16.2"/>
	<path d="M86.2,22.8c0,0-1.4,0.1-2.6,0.1c-2,0-3.5-1-3.6-2.3h6c0.7,0,1.2-0.5,1.2-1.2c-0.1-1.6-0.7-5.2-4.9-5.2
		c-2.9,0-5.3,2-5.3,5.5c0,3.8,3.3,5.4,6.4,5.4c1.3,0,2.7-0.1,2.7-0.1c0.1,0,0.2-0.1,0.2-0.2V23C86.4,22.9,86.3,22.8,86.2,22.8
		 M82.2,16.2c1.1,0,2.3,0.8,2.3,2.5h-4.5C80.1,17.3,80.9,16.2,82.2,16.2"/>
	<path d="M91.9,10.7h-1.4c-0.7,0-1.2,0.5-1.2,1.2v13c0,0.1,0.1,0.2,0.2,0.2h2.4c0.1,0,0.2-0.1,0.2-0.2v-14
		C92.1,10.8,92,10.7,91.9,10.7"/>
	<path d="M45.8,24.9l-2.3-5.4c-0.3-0.9-0.8-1.4-1.5-1.5l0,0c1-0.2,2.8-1,2.8-3.3c0-1.9-1-3.9-4.9-3.9H36c-0.7,0-1.2,0.5-1.2,1.2v13
		c0,0.1,0.1,0.2,0.2,0.2h2.5c0.1,0,0.2-0.1,0.2-0.2v-5.7h1.1c1,0,1.5,0.5,1.8,1.4l1.7,4.4c0.1,0.1,0.1,0.2,0.3,0.2h2.8
		C45.8,25.1,45.9,25,45.8,24.9 M39.3,17h-1.6v-4h1.6c2.4,0,2.5,1.5,2.5,1.9C41.8,15.8,41.2,17,39.3,17"/>
	<path d="M75.6,23.1h-0.5c-1.8,0-1.7-1-1.7-2v-4.5h2.3c0.1,0,0.2-0.1,0.2-0.2v-1.6c0-0.1-0.1-0.2-0.2-0.2h-2.3v-2.3
		c0-0.1-0.1-0.2-0.2-0.2h-1.4c-0.7,0-1.2,0.5-1.2,1.2v1.2h-1.8c-0.1,0-0.2,0.1-0.2,0.2v1.6c0,0.1,0.1,0.2,0.2,0.2h1.8v5.5
		c0,1.7,1.1,3.1,4,3.1h1.1c0.1,0,0.2-0.1,0.2-0.2v-1.6C75.8,23.2,75.7,23.1,75.6,23.1"/>
	<path d="M141.5,14.3c-1.4,0-2.8,0.5-3.6,2h-0.1c-0.3-1-1-2-2.9-2c-1.4,0-2.7,0.6-3.4,1.9h-0.1v-0.6c0-0.6-0.5-1.2-1.2-1.2h-1.1
		c-0.1,0-0.2,0.1-0.2,0.2v10.2c0,0.1,0.1,0.2,0.2,0.2h2.4c0.1,0,0.2-0.1,0.2-0.2v-5.7c0-1.9,1.2-2.7,2.3-2.7c1.4,0,1.5,1.3,1.5,2.6
		v5.8c0,0.1,0.1,0.2,0.2,0.2h2.4c0.1,0,0.2-0.1,0.2-0.2v-5.7c0-1.8,1.1-2.7,2.2-2.7c1.6,0,1.6,1.6,1.6,2.6v5.8
		c0,0.1,0.1,0.2,0.2,0.2h2.4c0.1,0,0.2-0.1,0.2-0.2v-6.9C145,14.5,142.5,14.3,141.5,14.3"/>
</g>
<g>
	<path class="st0" d="M6.3,16.4c-1.5-2.2-2.5-4.7-2.6-7.2c0-0.2,0-0.3,0-0.5l0,0l0,0c0-2,0.7-4,1.6-5.4c0.5-1,1.8-1.9,3.5-2.6
		C8,1,7.3,1.3,6.7,1.8l0,0C-5,8.9,1.3,27.1,6,32.7c0.1,0.1,0.5,0.6,0.8,0.8c3,2.9,7.3,3.4,9.6,1.1c2.3-2.3,1.7-6.4-1.1-9.3
		C12.3,22.1,9,20.5,6.3,16.4"/>
	<path class="st0" d="M12.1,0c-0.2,0-0.3,0-0.5,0c1,0,1.8,0.1,2.4,0.4c0.1,0.1,0.2,0.1,0.3,0.2c0.4,0.3,0.9,0.8,1.1,1.2
		C15.8,2.6,16,3.5,16,4.6c0,0,0,0,0,0.1l0,0c0,2-1,4.4-2.7,6.4l-0.1,0.1l0,0c-0.1,0.2-0.3,0.3-0.4,0.5c-1.7,2.5-1.4,5.8,0.9,7.3
		s5.4,0.8,7.2-1.7c0.1-0.1,0.2-0.2,0.2-0.4C26.1,9.1,20.3-0.3,12.1,0"/>
	<path class="st1" d="M7.8,14c0.2-4.2,2.9-7.4,6.1-7.2c0.5,0,1.2,0.2,1.6,0.4c0.3-1,0.5-1.8,0.5-2.7l0,0v0c0-1-0.2-1.9-0.7-2.7l0,0
		C15,1.3,14.7,1,14.3,0.7c-0.1-0.1-0.2-0.1-0.3-0.2c-1.1-0.6-3-0.6-5,0.1C7.2,1.2,5.8,2.3,5.3,3.3c-1,1.4-1.6,3.3-1.6,5.4
		c0,0.2,0,0.3,0,0.5c0.1,2.5,1,5.1,2.6,7.2c1.2,1.8,2.6,3.1,4,4.3C8.6,19.4,7.7,17,7.8,14"/>
</g>
</svg>
