<?xml version="1.0" encoding="utf-8"?>
<!-- Generator: Adobe Illustrator 21.1.0, SVG Export Plug-In . SVG Version: 6.00 Build 0)  -->
<svg version="1.1" id="Слой_1" xmlns="http://www.w3.org/2000/svg" xmlns:xlink="http://www.w3.org/1999/xlink" x="0px" y="0px"
	 viewBox="0 0 177 57" style="enable-background:new 0 0 177 57;" xml:space="preserve">
<style type="text/css">
	.st0{clip-path:url(#SVGID_2_);fill:#E29A4A;}
	.st1{fill:#7DB960;}
	.st2{fill:#E0933D;}
	.st3{fill:#FFFFFF;}
	.st4{clip-path:url(#SVGID_4_);fill:#FFFFFF;}
	.st5{clip-path:url(#SVGID_6_);fill:#FFFFFF;}
	.st6{clip-path:url(#SVGID_8_);fill:#FFFFFF;}
	.st7{clip-path:url(#SVGID_10_);fill:#FFFFFF;}
</style>
<g>
	<g>
		<defs>
			<rect id="SVGID_1_" width="177" height="57"/>
		</defs>
		<clipPath id="SVGID_2_">
			<use xlink:href="#SVGID_1_"  style="overflow:visible;"/>
		</clipPath>
		<path class="st0" d="M8.2,31.5c-0.6,0.2-1.5,0.4-2.3,0.4c-2.5,0-4-1.7-4-4c0-2.7,1.7-4.2,4-4.2c0.8,0,1.7,0.2,2.1,0.4l0.4-1.7
			C8,22.2,6.9,22,5.7,22c-3.4,0-5.9,2.3-5.9,5.9c0,3.4,2.1,5.7,5.7,5.7c1.3,0,2.3-0.2,2.9-0.4L8.2,31.5z M8.8,25.3l2.9,7.4
			c0,0.2,0.2,0.2,0.2,0.4c0,0,0,0.2-0.2,0.4c-0.2,0.6-0.6,1.1-1.1,1.3c-0.4,0.2-0.8,0.4-1.3,0.6l0.4,1.7c0.4,0,1.3-0.4,2.1-1.1
			c1.1-0.8,1.7-2.1,2.7-5.3l2.1-5.5h-2.1l-1.3,4.2c-0.2,0.6-0.2,1.1-0.4,1.7l0,0c-0.2-0.4-0.4-1.1-0.4-1.7l-1.5-4.2H8.8z M17.9,33.4
			h1.9l0.2-3.6c0-0.8,0-1.9,0-3l0,0c0.2,0.8,0.4,1.9,0.6,2.7l1.3,3.6h1.5l1.3-3.6c0.4-1.3,0.6-1.7,0.8-2.7l0,0c0,1.1,0,2.1,0.2,3
			l0.2,3.6h1.9l-0.4-8h-2.5l-1.1,3.2c-0.2,0.8-0.6,1.9-0.8,2.5l0,0c-0.2-0.6-0.4-1.7-0.6-2.1L21,25.3h-2.5L17.9,33.4z M29.6,33.4
			h1.9l0.2-3.6c0-0.8,0-1.9,0-3l0,0c0.2,0.8,0.4,1.9,0.6,2.7l1.3,3.6h1.5l1.3-3.6c0.4-1.3,0.6-1.7,0.8-2.7l0,0c0,1.1,0,2.1,0.2,3
			l0.2,3.6h1.9l-0.6-8h-2.5l-1.1,3.2c-0.2,0.8-0.6,1.9-0.8,2.5l0,0c-0.2-0.6-0.4-1.7-0.6-2.1l-1.1-3.6h-2.5L29.6,33.4z M47.7,28.5
			c0-1.7-0.8-3.4-3.4-3.4c-1.3,0-2.3,0.4-2.9,0.6l0.4,1.3c0.6-0.4,1.5-0.6,2.1-0.6c1.5,0,1.7,0.8,1.7,1.5v0.2
			c-2.9,0-4.8,1.1-4.8,3.2c0,1.3,0.8,2.3,2.5,2.3c1.1,0,1.9-0.4,2.3-1.1l0,0l0.2,0.8h1.9c0-0.4-0.2-1.3-0.2-1.9v-3H47.7z M45.8,30.6
			c0,0.2,0,0.2,0,0.4c-0.2,0.6-0.8,1.1-1.7,1.1c-0.6,0-1.3-0.4-1.3-1.3c0-1.3,1.5-1.5,2.7-1.5v1.3H45.8z M55.7,33.4h2.1v-9.5H61
			v-1.7h-8.4v1.7h3.2V33.4z M68.1,30c0-0.2,0-0.4,0-0.8c0-1.7-0.8-4-3.6-4c-2.5,0-4,2.1-4,4.4c0,2.5,1.5,4.2,4.2,4.2
			c1.3,0,2.1-0.2,2.7-0.4l0-1.7c-0.6,0.2-1.3,0.4-2.3,0.4c-1.3,0-2.5-0.6-2.5-2.1H68.1z M62.6,28.5c0-0.8,0.6-1.9,1.9-1.9
			s1.7,1.3,1.7,1.9H62.6z M70.4,25.3v3.2c0,1.5,0,2.5-0.6,3c-0.2,0.2-0.4,0.4-0.8,0.4l0.2,1.7c1.1,0,1.5-0.2,2.1-0.6
			c1.1-0.6,1.3-2.1,1.3-4.2V27h2.1v6.5h2.1v-8.2H70.4z M86,30c0-0.2,0-0.4,0-0.8c0-1.7-0.8-4-3.6-4c-2.5,0-4,2.1-4,4.4
			c0,2.5,1.5,4.2,4.2,4.2c1.3,0,2.1-0.2,2.7-0.4l-0.2-1.7c-0.6,0.2-1.3,0.4-2.3,0.4c-1.3,0-2.5-0.6-2.5-2.1H86z M80.5,28.5
			c0-0.8,0.6-1.9,1.9-1.9c1.3,0,1.7,1.3,1.7,1.9H80.5z M87.9,25.3v8H90V30h0.2c1.1,0,1.7,0.6,2.1,1.7c0.2,0.8,0.6,1.5,0.8,1.7h2.1
			c-0.4-0.6-0.6-1.7-0.8-2.1c-0.6-1.3-1.3-2.1-2.3-2.3l3.2-3.6h-2.5l-2.5,3.4H90v-3.4H87.9z M100.1,25.1c-2.5,0-4.2,1.7-4.2,4.2
			s1.7,4.2,4,4.2c2.1,0,4.2-1.3,4.2-4.2C104.1,26.8,102.4,25.1,100.1,25.1 M99.9,26.6c1.5,0,1.9,1.5,1.9,2.7c0,1.7-0.8,2.7-1.9,2.7
			c-1.3,0-2.1-1.3-2.1-2.7C98,28.1,98.6,26.6,99.9,26.6 M105.5,33.4h1.9l0.2-3.6c0-0.8,0-1.9,0-3l0,0c0.2,0.8,0.4,1.9,0.6,2.7
			l1.3,3.6h1.5l1.3-3.6c0.4-1.3,0.6-1.7,0.8-2.7l0,0c0,1.1,0,2.1,0.2,3l0.2,3.6h1.9l-0.4-8h-2.5l-1.1,3.2c-0.2,0.8-0.6,1.9-0.8,2.5
			l0,0c-0.2-0.6-0.4-1.7-0.6-2.1l-1.3-3.6h-2.5L105.5,33.4z"/>
	</g>
</g>
<rect x="119.8" y="19.8" class="st1" width="17.2" height="17.3"/>
<rect x="159.6" y="19.8" class="st1" width="17.2" height="17.3"/>
<rect x="159.6" class="st2" width="17.2" height="17.3"/>
<rect x="159.6" y="39.5" class="st2" width="17.2" height="17.3"/>
<polygon class="st3" points="171.5,2.1 171.5,7 162.3,7 162.3,10.1 171.5,10.1 171.5,15.4 174.3,15.4 174.3,2.1 "/>
<g>
	<g>
		<defs>
			<rect id="SVGID_3_" width="177" height="57"/>
		</defs>
		<clipPath id="SVGID_4_">
			<use xlink:href="#SVGID_3_"  style="overflow:visible;"/>
		</clipPath>
		<path class="st4" d="M165.2,55.1v-7.2c0-1.3,0-2.1,1.5-2.1h7.8v-3.2h-8c-2.9,0-4,0.6-4,5.3v7.2H165.2z"/>
	</g>
	<g>
		<defs>
			<rect id="SVGID_5_" width="177" height="57"/>
		</defs>
		<clipPath id="SVGID_6_">
			<use xlink:href="#SVGID_5_"  style="overflow:visible;"/>
		</clipPath>
		<path class="st5" d="M133.9,22.6H127c-2.7,0-4.8,0-4.8,3.8c0,2.3,1.1,3.2,3.2,3.2l5.3,0.2c0.6,0,1.3,0,1.3,1.1
			c0,0.8-0.2,1.1-1.7,1.1h-6.9v2.3h6.9c2.5,0,4.8-0.4,4.8-3.8c0-3.2-1.7-3.2-3.4-3.4l-5-0.2c-0.4,0-1.1-0.2-1.1-0.8
			c0-0.6,0.2-0.8,1.7-0.8h6.9v-2.5H133.9z"/>
	</g>
</g>
<rect x="139.8" y="19.8" class="st1" width="17.2" height="17.3"/>
<g>
	<g>
		<defs>
			<rect id="SVGID_7_" width="177" height="57"/>
		</defs>
		<clipPath id="SVGID_8_">
			<use xlink:href="#SVGID_7_"  style="overflow:visible;"/>
		</clipPath>
		<path class="st6" d="M142.3,30.4v-7.8h3.2v7c0,1.1,0.2,1.9,1.3,1.9h3.2c1.1,0,1.3-0.8,1.3-1.9v-6.8h3.2v7.8c0,2.7-1.5,3.8-3.4,3.8
			h-5.3C143.8,34.2,142.3,33.1,142.3,30.4"/>
	</g>
	<g>
		<defs>
			<rect id="SVGID_9_" width="177" height="57"/>
		</defs>
		<clipPath id="SVGID_10_">
			<use xlink:href="#SVGID_9_"  style="overflow:visible;"/>
		</clipPath>
		<path class="st7" d="M161.7,34.2v-7.8c0-2.7,0.8-3.8,2.5-3.8h8.2c1.7,0,2.5,1.1,2.5,3.8v7.8h-2.3v-6.5c0-1.3,0-2.1-0.8-2.1h-0.6
			h-0.4c-0.8,0-1.1,1.1-1.1,2.1v6.5h-0.2h-2.1h-0.2v-6.5c0-1.3-0.2-2.1-1.1-2.1h-0.4H165c-0.8,0-0.8,0.8-0.8,2.1v6.5H161.7z"/>
	</g>
</g>
</svg>
