<?xml version="1.0" encoding="utf-8"?>
<!-- Generator: Adobe Illustrator 21.1.0, SVG Export Plug-In . SVG Version: 6.00 Build 0)  -->
<svg version="1.1" id="Layer_2" xmlns="http://www.w3.org/2000/svg" xmlns:xlink="http://www.w3.org/1999/xlink" x="0px" y="0px"
	 viewBox="0 0 138 38" style="enable-background:new 0 0 138 38;" xml:space="preserve">
<style type="text/css">
	.st0{fill:#3A5F9D;}
	.st1{clip-path:url(#SVGID_2_);fill:url(#SVGID_3_);}
	.st2{clip-path:url(#SVGID_5_);fill:url(#SVGID_6_);}
	.st3{clip-path:url(#SVGID_8_);fill:url(#SVGID_9_);}
</style>
<path class="st0" d="M46.4,11h3.9V8.3H39.8V11h3.9v13.2h2.6V11z M62.5,20.6c0.2-0.8,0.2-2.2,0.2-4.1V8.3H60v8.8c0,1.2,0,2.2-0.2,2.7
	c0,0.5-0.3,1-0.7,1.4c-0.3,0.3-1,0.5-1.8,0.5s-1.3-0.2-1.8-0.7c-0.5-0.3-0.7-0.8-0.8-1.5c0-0.3-0.2-1.4-0.2-2.7V8.1H52v8.4
	c0,1.9,0.2,3.2,0.3,4.1c0.2,0.7,0.3,1.2,0.8,1.7c0.3,0.5,0.8,1,1.5,1.4c0.7,0.3,1.6,0.5,3,0.5c1,0,2-0.2,2.6-0.5
	c0.7-0.3,1.2-0.7,1.6-1.4C62.2,22.1,62.5,21.5,62.5,20.6 M73,14.9C72.7,15,71.9,15,70.6,15h-2V11h2.1c1.2,0,1.8,0,2,0
	c0.5,0.2,0.8,0.3,1,0.7C73.9,12,74,12.5,74,13c0,0.5-0.2,0.8-0.3,1.2C73.5,14.5,73.2,14.7,73,14.9 M74.7,18.6
	c-0.3-0.5-0.8-1-1.5-1.4c1.2-0.2,2-0.7,2.6-1.5c0.7-0.8,0.8-1.7,0.8-3c0-1-0.2-1.9-0.7-2.5c-0.3-0.7-1-1.2-1.5-1.5
	c-0.7-0.3-1.6-0.5-3.1-0.5h-5.6V24h2.6v-6.6h0.5c0.7,0,1.2,0,1.3,0.2c0.3,0.2,0.5,0.3,0.8,0.7c0.3,0.3,0.7,1.2,1.5,2.4l2,3.4h3.3
	l-1.6-3C75.5,19.9,75,18.9,74.7,18.6 M91.6,24.2l-5.3-9.8l5.1-6.2h-3.6l-5.4,7.1V8.1h-2.6V24h2.6v-4.7l2.1-2.7l3.6,7.4h3.5V24.2z
	 M103.6,12.7c-0.3-0.8-0.5-2-1.3-3c-1-1.2-2.3-1.7-3.9-1.7c-1.8,0-3.5,0.7-4.4,2.2c-1.2,1.5-1.6,3.5-1.6,6.2c0,2.5,0.5,4.6,1.6,5.9
	c1.2,1.5,2.6,2.2,4.4,2.2c1.5,0,2.6-0.5,3.6-1.2c0.8-0.8,1.8-2.4,2.3-3.9h-2.8c-0.5,2-2.3,2.4-3,2.4c-1,0-1.8-0.5-2.3-1.4
	c-0.7-0.8-1-2.4-1-4.2s0.3-3.2,1-4.1s1.5-1.4,2.5-1.4c0.7,0,1.3,0.2,1.8,0.7c0.7,0.7,0.5,1.2,0.5,1.2H103.6z M106.1,24.2h10.2v-2.7
	h-7.4v-4.2h6.6v-2.7h-6.7V11h7.2V8.3h-9.9V24.2z M118.8,24.2h9.4v-2.7h-6.7V8.3h-2.6V24.2z M138,24.2v-2.7h-6.7V8.3h-2.6V24h9.4
	V24.2z"/>
<path class="st0" d="M132.9,37.3c0.5,0.5,1.2,0.7,2.1,0.7c0.7,0,1.2-0.2,1.6-0.3s0.8-0.5,1-0.8c0.2-0.3,0.3-0.8,0.3-1.4
	c0-0.5-0.2-1-0.3-1.4c-0.2-0.3-0.5-0.7-0.8-0.8c-0.3-0.2-0.8-0.3-1.6-0.5c-0.7-0.2-1.2-0.3-1.3-0.5c-0.2-0.2-0.2-0.3-0.2-0.5
	c0-0.2,0-0.3,0.2-0.5c0.2-0.2,0.7-0.3,1-0.3c0.5,0,0.7,0.2,1,0.3c0.2,0.2,0.3,0.5,0.3,0.8h1.5c0-0.7-0.3-1.4-0.7-1.9
	c-0.5-0.5-1.2-0.7-2.1-0.7c-0.5,0-1,0.2-1.5,0.3c-0.3,0.2-0.7,0.5-1,0.8c-0.2,0.3-0.3,0.7-0.3,1.2c0,0.7,0.2,1.2,0.7,1.7
	c0.3,0.3,0.8,0.5,1.6,0.8c0.7,0.2,1,0.3,1.2,0.3c0.3,0.2,0.5,0.2,0.5,0.3c0.2,0.2,0.2,0.3,0.2,0.5c0,0.3-0.2,0.5-0.3,0.8
	c-0.2,0.2-0.7,0.3-1.2,0.3c-0.5,0-0.8-0.2-1.2-0.3c-0.3-0.2-0.5-0.7-0.5-1.2l-1.5,0.2C132.2,36.1,132.4,36.8,132.9,37.3 M130.9,29.9
	h-1.5V38h1.5V29.9z M123.4,31.2h1.2c0.7,0,1,0,1.2,0c0.2,0,0.5,0.2,0.5,0.3c0.2,0.2,0.2,0.3,0.2,0.7c0,0.2,0,0.5-0.2,0.7
	c-0.2,0.2-0.2,0.3-0.5,0.3c-0.2,0-0.7,0.2-1.3,0.2h-1.2v-2.2H123.4z M123.4,37.8v-3.4h0.3c0.3,0,0.7,0,0.8,0.2
	c0.2,0,0.3,0.2,0.5,0.3c0.2,0.2,0.3,0.5,0.8,1.2l1.2,1.7h1.8l-0.8-1.5c-0.3-0.7-0.7-1-0.8-1.4c-0.2-0.2-0.5-0.5-0.8-0.7
	c0.7-0.2,1.2-0.3,1.5-0.7c0.3-0.3,0.5-0.8,0.5-1.5c0-0.5-0.2-0.8-0.3-1.4c-0.2-0.3-0.5-0.7-0.8-0.8s-1-0.2-1.6-0.2h-3.1v8.1
	C122.4,37.8,123.4,37.8,123.4,37.8z M116.9,34.5c0.7,0,1.2,0,1.3,0.2c0.2,0,0.3,0.2,0.5,0.3c0.2,0.2,0.2,0.3,0.2,0.7
	c0,0.3,0,0.5-0.2,0.7c-0.2,0.2-0.3,0.3-0.5,0.3c-0.2,0-0.5,0-1,0H116v-2.2C116,34.5,116.9,34.5,116.9,34.5z M116.6,31.2
	c0.7,0,1.2,0,1.3,0c0.3,0,0.5,0.2,0.5,0.3c0.2,0.2,0.2,0.3,0.2,0.7c0,0.3,0,0.5-0.2,0.7c-0.2,0.2-0.3,0.3-0.7,0.3
	c-0.2,0-0.5,0-1.2,0h-1v-1.9h1V31.2z M114.3,37.8h2.5c1,0,1.5,0,1.8,0s0.7-0.2,1-0.3s0.5-0.5,0.7-0.8c0.2-0.3,0.2-0.7,0.2-1
	c0-0.5-0.2-0.8-0.3-1.2c-0.2-0.3-0.7-0.5-1-0.7c0.3-0.2,0.5-0.3,0.8-0.7c0.2-0.3,0.3-0.7,0.3-1c0-0.3,0-0.7-0.2-1
	c-0.2-0.3-0.3-0.5-0.5-0.7c-0.2-0.2-0.5-0.3-0.8-0.3c-0.3,0-0.7,0-1.3,0h-3v7.8H114.3z M112.7,29.9h-1.5V38h1.5V29.9z M105.1,37.8
	v-2.4l1.2-1.4l2,3.7h2l-3-4.9l2.8-3.2h-2l-3,3.5v-3.5h-1.5v8.1C103.6,37.8,105.1,37.8,105.1,37.8z M97.4,37.8v-3.4l2.6-4.7h-1.6
	l-1.6,3.2l-1.8-3.2h-1.8l2.6,4.7v3.4H97.4z M92.4,37.8v-1.4h-4.1v-2.2h3.6v-1.4h-3.6v-1.9h3.9v-1.4h-5.4v8.1
	C86.8,37.8,92.4,37.8,92.4,37.8z M85.7,37.8v-1.4h-4.1l4.1-5.4v-1.2h-5.4v1.4h3.5l-3.8,5.2V38h5.8V37.8z M72.9,34.1
	c0,0.8,0,1.5,0.2,2c0,0.3,0.2,0.7,0.5,0.8c0.2,0.3,0.5,0.5,0.8,0.7c0.3,0.2,0.8,0.3,1.6,0.3c0.7,0,1,0,1.5-0.2
	c0.3-0.2,0.7-0.3,0.8-0.7c0.2-0.3,0.3-0.7,0.5-1c0-0.3,0.2-1,0.2-2v-4.2h-1.5v4.4c0,0.7,0,1,0,1.4c0,0.3-0.2,0.5-0.3,0.7
	s-0.5,0.3-1,0.3c-0.5,0-0.8-0.2-1-0.3c-0.2-0.2-0.3-0.5-0.5-0.8c0-0.2,0-0.7,0-1.4v-4.4h-1.5v4.4H72.9z M66.8,37.8v-2.4l1.2-1.4
	l2,3.7h2l-3-4.9l2.8-3.2h-2l-3,3.5v-3.5h-1.5v8.1C65.3,37.8,66.8,37.8,66.8,37.8z"/>
<g>
	<g>
		<defs>
			<path id="SVGID_1_" d="M0.2,16.7c0,0.3,0,0.7,0,1.2c1.6-3.4,4.4-7.1,9.4-9.1c0-0.2-0.2-0.3-0.2-0.3c0-2,1.6-3.7,3.6-3.7
				s3.6,1.7,3.6,3.7S15,12.2,13,12.2c-1,0-1.8-0.3-2.5-1c-2.6,1.5-7.9,5.9-7.2,15.5c0.8,1.2,1.8,2.2,3,3c1-3.7,4.1-11.3,15.1-14.5
				c0.2-1.9,1.6-3.4,3.5-3.4c2,0,3.6,1.7,3.6,3.7s-1.6,3.7-3.6,3.7c-1.2,0-2.3-0.7-3-1.7c-2.8,1.4-10,5.9-10.7,14.9
				c1.5,0.5,3,0.7,4.4,0.7c8.7,0,15.8-7.3,15.8-16.2S24.3,0.7,15.6,0.7C7.2,0.5,0.2,7.8,0.2,16.7"/>
		</defs>
		<clipPath id="SVGID_2_">
			<use xlink:href="#SVGID_1_"  style="overflow:visible;"/>
		</clipPath>
		
			<linearGradient id="SVGID_3_" gradientUnits="userSpaceOnUse" x1="-752.7806" y1="396.8365" x2="-751.0881" y2="396.8365" gradientTransform="matrix(6.7286 -10.1658 10.1658 6.7286 1046.0259 -10304.6465)">
			<stop  offset="0" style="stop-color:#CE3638"/>
			<stop  offset="1.104740e-02" style="stop-color:#CE3638"/>
			<stop  offset="0.4788" style="stop-color:#D87642"/>
			<stop  offset="0.8262" style="stop-color:#E19648"/>
			<stop  offset="1" style="stop-color:#E5A24B"/>
		</linearGradient>
		<polygon class="st1" points="-14.5,23.1 9.7,-14.5 46.4,10.5 22.2,48 		"/>
	</g>
</g>
<g>
	<g>
		<defs>
			<path id="SVGID_4_" d="M0,16.4c0,0.3,0,0.7,0,1.2c1.6-3.4,4.4-6.9,9.4-9c0-0.2,0-0.3,0-0.3c0-2,1.6-3.5,3.6-3.5s3.6,1.7,3.6,3.5
				c0,2-1.6,3.5-3.6,3.5c-1,0-1.8-0.3-2.5-1c-2.6,1.5-7.9,5.9-7.2,15.4c0.8,1.2,1.8,2.2,3,3c1-3.7,4.1-11.1,15.3-14.4
				c0.2-1.9,1.6-3.4,3.5-3.4c2,0,3.6,1.7,3.6,3.5c0,2-1.6,3.5-3.6,3.5c-1.2,0-2.3-0.7-3-1.7c-2.8,1.4-10.2,5.7-10.7,14.7
				c1.5,0.5,3,0.7,4.6,0.7c8.7,0,16-7.3,16-16s-7.1-16-16-16C7.1,0.3,0,7.4,0,16.4"/>
		</defs>
		<clipPath id="SVGID_5_">
			<use xlink:href="#SVGID_4_"  style="overflow:visible;"/>
		</clipPath>
		
			<linearGradient id="SVGID_6_" gradientUnits="userSpaceOnUse" x1="-752.8581" y1="397.1915" x2="-751.1633" y2="397.1915" gradientTransform="matrix(6.7601 -10.0223 10.0223 6.7601 1123.5505 -10212.7227)">
			<stop  offset="0" style="stop-color:#CE3638"/>
			<stop  offset="1.104740e-02" style="stop-color:#CE3638"/>
			<stop  offset="0.4788" style="stop-color:#D87642"/>
			<stop  offset="0.8262" style="stop-color:#E19648"/>
			<stop  offset="1" style="stop-color:#E5A24B"/>
		</linearGradient>
		<polygon class="st2" points="-14.5,22.3 9.9,-14.9 46.2,10.3 21.9,47.5 		"/>
	</g>
</g>
<g>
	<g>
		<defs>
			<path id="SVGID_7_" d="M0.2,16c0,0.3,0,0.7,0,1.2c1.6-3.4,4.4-7.1,9.4-9.1c0-0.2-0.2-0.3-0.2-0.3c0-2,1.6-3.7,3.6-3.7
				s3.6,1.7,3.6,3.7S15,11.5,13,11.5c-1,0-1.8-0.3-2.5-1C7.9,12,2.6,16.4,3.3,26c0.8,1.2,1.8,2.2,3,3c1-3.7,4.1-11.3,15.1-14.5
				c0.2-1.9,1.6-3.4,3.5-3.4c2,0,3.6,1.7,3.6,3.7s-1.6,3.7-3.6,3.7c-1.2,0-2.3-0.7-3-1.7c-2.8,1.4-10,5.9-10.7,14.9
				c1.5,0.5,3,0.7,4.4,0.7c8.7,0,15.8-7.3,15.8-16.2S24.3,0,15.6,0C7.2-0.2,0.2,7.1,0.2,16"/>
		</defs>
		<clipPath id="SVGID_8_">
			<use xlink:href="#SVGID_7_"  style="overflow:visible;"/>
		</clipPath>
		
			<radialGradient id="SVGID_9_" cx="-692.787" cy="374.0182" r="1" gradientTransform="matrix(-9.6871 23.0943 -22.4933 -9.946 1722.9508 19724.7031)" gradientUnits="userSpaceOnUse">
			<stop  offset="0" style="stop-color:#FBF9D2"/>
			<stop  offset="7.451276e-02" style="stop-color:#FAF8CB"/>
			<stop  offset="0.1986" style="stop-color:#F9F5B7"/>
			<stop  offset="0.3568" style="stop-color:#F7F299"/>
			<stop  offset="0.5412" style="stop-color:#F4EE6D"/>
			<stop  offset="0.6354" style="stop-color:#F3EC50"/>
			<stop  offset="0.7306" style="stop-color:#EDD74C"/>
			<stop  offset="0.9345" style="stop-color:#E3A741"/>
			<stop  offset="1" style="stop-color:#E1973E"/>
		</radialGradient>
		<polygon class="st3" points="43.3,4.9 26.8,44.1 -11.3,27.2 5.1,-12 		"/>
	</g>
</g>
</svg>
