<?xml version="1.0" encoding="utf-8"?>
<!-- Generator: Adobe Illustrator 21.1.0, SVG Export Plug-In . SVG Version: 6.00 Build 0)  -->
<svg version="1.1" id="Layer_1" xmlns="http://www.w3.org/2000/svg" xmlns:xlink="http://www.w3.org/1999/xlink" x="0px" y="0px"
	 viewBox="0 0 148 55" style="enable-background:new 0 0 148 55;" xml:space="preserve">
<style type="text/css">
	.st0{fill:#669ED6;}
</style>
<g>
	<path class="st0" d="M144.3,46.3c-1.2,1.7-2.2,3.5-3.4,5.2c-0.7,0.9-1.2,2-1.9,2.9c-0.6,0.8-2.2,0.8-2.7,0
		c-1.6-2.5-3.2-4.9-4.9-7.4c-0.1-0.2-0.3-0.4-0.6-0.5c0,2.7,0,5.6,0,8.5c-1.1,0-2,0-3,0c-0.7,0-0.6-0.5-0.6-0.9c0-2.7,0-5.4,0-8.2
		c0-1.2,0-2.5,0-3.8c0-0.8,0.1-1.1,1-1c0.9,0.1,1.9-0.1,2.8,0.1c0.4,0,0.9,0.3,1.1,0.7c1.7,2.7,3.3,5.4,5,8c0.1,0.1,0.2,0.3,0.4,0.5
		c0.5-0.9,1.1-1.6,1.5-2.4c1.3-2,2.5-4.1,3.8-6.1c0.2-0.3,0.7-0.5,1-0.6c1-0.1,2.1,0,3.1-0.1c0.6,0,0.8,0.2,0.8,0.8
		c0,4.1,0,8.2,0,12.2c0,0.6-0.2,0.9-0.8,0.8c-0.2,0-0.4,0-0.6,0c-2.1,0-2.1,0-2-2.1c0-2.2,0-4.3,0-6.4
		C144.5,46.4,144.4,46.3,144.3,46.3z"/>
	<path class="st0" d="M90.6,51.4c0,1.1,0,2,0,3c0,0.6-0.4,0.5-0.8,0.5c-2.5,0-5.1,0-7.5,0c-1.4,0-2.8,0-4.1,0
		c-0.4,0-0.8-0.1-0.8-0.7c0-4.3,0-8.5,0-12.9c0-0.1,0.1-0.1,0.1-0.2c4.3,0,8.7,0,13,0c0,1.1,0,2.2,0,3.3c-3.2,0-6.4,0-9.6,0
		c0,0.6,0,1.1,0,1.7c0.4,0,0.7,0.1,0.9,0.1c2.5,0,5.1,0,7.5,0c0.7,0,0.9,0.2,0.9,0.9c0,2.5,0.1,2.5-2.5,2.5c-2,0-3.9,0-5.9,0
		c-1.2,0-1.2,0-1.1,1.2c0,0.2,0,0.4,0.1,0.7C84,51.4,87.2,51.4,90.6,51.4z"/>
	<path class="st0" d="M117.9,40.7c1.3,0.2,3.2,0.4,5,0.7c1.4,0.3,2.5,1.6,2.5,3c0.1,2.2,0.1,4.4,0,6.7c-0.1,2.4-1.7,3.3-3.4,3.5
		c-3,0.5-6.2,0.5-9.3,0c-2-0.4-3.3-1-3.5-3.7c-0.1-2.1-0.1-4.2,0-6.2c0.2-2.7,2-3.3,3.8-3.6C114.4,40.9,115.9,40.8,117.9,40.7z
		 M117.4,51.4L117.4,51.4c1.1,0,2.2,0,3.2,0c0.9,0,1.4-0.4,1.4-1.3c0-1.5,0-3.1,0-4.6c0-0.7-0.3-1.1-1-1.1c-2.4,0-4.9,0-7.2,0
		c-0.6,0-0.9,0.4-0.9,0.9c-0.1,1.5-0.2,3.1-0.1,4.6c0.1,1.2,0.5,1.5,1.7,1.5C115.4,51.5,116.3,51.4,117.4,51.4z"/>
	<path class="st0" d="M51.7,49.6c0,0.7,0,1.2,0,1.9c0.4,0,0.7,0,0.9,0c2.6,0,5.2,0,7.8,0c0.7,0,0.9,0.2,0.9,0.9
		c0,2.5,0.1,2.5-2.5,2.5c-3.3,0-6.7,0-10,0c-0.2,0-0.4,0-0.7,0c0-4.6,0-9.1,0-13.7c0.3,0,0.5-0.1,0.8-0.1c3.8,0,7.7,0,11.6,0
		c0.6,0,0.8,0.1,0.8,0.7c0,0.9,0,1.7,0,2.7c-3.3,0-6.4,0-9.6,0c0,0.6,0,1.2,0,1.7c3.1,0,6.1,0,9.3,0c0,1,0.1,2,0,2.9
		c0,0.1-0.5,0.4-0.7,0.4c-2.5,0-5,0-7.5,0C52.5,49.6,52.2,49.6,51.7,49.6z"/>
	<path class="st0" d="M16.8,41.2c4.7,0,9.3,0,14.1,0c0,0.9,0.1,1.7,0,2.5c0,0.3-0.3,0.7-0.6,0.9c-2.5,2.1-4.9,4.1-7.4,6.2
		c-0.2,0.1-0.4,0.4-0.8,0.7c3,0,5.9,0,8.8,0c0,1.2,0,2.2,0,3.4c-0.2,0-0.5,0.1-0.7,0.1c-4.3,0-8.5,0-12.7,0c-0.7,0-0.8-0.2-0.9-0.9
		c-0.3-1.7,0.6-2.7,1.8-3.6c2.2-1.7,4.3-3.5,6.5-5.4c0.1-0.1,0.2-0.3,0.5-0.6c-1.4,0-2.6,0-3.8,0c-1.3,0-2.6,0-3.9,0
		c-0.5,0-0.8-0.1-0.8-0.7C16.8,43,16.8,42.1,16.8,41.2z"/>
	<path class="st0" d="M100.1,51.4c0.9,0,1.7-0.1,2.5,0c0.9,0.1,1.2-0.4,1.3-1.2c0.1-1.4,0.1-1.4,1.7-1.4c2,0,2,0,1.8,2
		c-0.1,2.5-1.5,3.9-4.1,4c-2.4,0.1-4.7,0.1-7.1-0.2c-2.5-0.3-3.3-1.2-3.7-3.2c-0.5-2.5-0.5-4.9,0.1-7.4c0.5-2.1,1.7-2.7,3.5-2.9
		c2.6-0.2,5.2-0.1,7.8,0c2,0.1,3.3,1.4,3.3,3.5c0.1,2.7,0.5,2.2-2.2,2.3c-0.9,0-1.2-0.2-1.2-1.2c0.1-1.2-0.3-1.5-1.6-1.5
		c-1.6,0-3.2,0-4.8,0c-1.2,0-1.7,0.4-1.7,1.4c-0.1,1.5,0,3.1,0,4.7c0,0.9,0.7,1.2,1.4,1.2C98.2,51.5,99.1,51.4,100.1,51.4
		L100.1,51.4z"/>
	<path class="st0" d="M15.1,41.1c0,3.5,0.1,6.9,0,10.2c0,2-0.9,3-2.8,3.3c-3.3,0.5-6.5,0.4-9.8,0c-1.4-0.2-2.4-1.2-2.5-2.7
		C0,48.3,0,44.7,0,41.1c1.2,0,2.2,0,3.5,0c0,0.3,0,0.7,0,0.9c0,2.7,0,5.4,0,8.2c0,1.2,0.1,1.3,1.3,1.3c1.9,0,3.8,0,5.6,0
		c1.1,0,1.2-0.1,1.2-1.2c0-2.7,0-5.4,0-8.2c0-0.3,0-0.7,0-0.9C12.8,41.1,13.9,41.1,15.1,41.1z"/>
	<path class="st0" d="M72.7,27.4c7.1-2,11.4-6.4,11.4-13.8C84,6.3,79.7,2,72.9,0.2c2.6-0.7,7.7,0.7,11,4.2
		c3.9,4.2,4.9,10.8,2.1,15.8C83.3,25.3,77.5,28.1,72.7,27.4z"/>
	<path class="st0" d="M41.4,54.8c-1.2,0-2.3,0-3.5,0c0-3.4,0-6.8,0-10.3c-1.4,0-2.8,0-4.2,0c-1.2,0-1.2,0-1.2-1.2c0-0.7,0-1.3,0-2
		c4.8,0,9.5,0,14.3,0c0,0.9,0.1,1.9,0,2.8c0,0.2-0.4,0.5-0.7,0.5c-1.5,0.1-3,0-4.6,0C41.4,48,41.4,51.4,41.4,54.8z"/>
	<path class="st0" d="M66.7,51.5c2.8,0,5.5,0,8.3,0c0.7,0,1,0.2,1,1c0,2.5,0,2.5-2.5,2.5c-3.1,0-6.2,0-9.3,0c-0.3,0-0.6,0-0.9-0.1
		c0-4.6,0-9,0-13.7c1.1,0,2.2,0,3.4,0C66.7,44.6,66.7,48,66.7,51.5z"/>
	<path class="st0" d="M68,25.8c5.9-1.2,9.7-5.8,10.1-11.2c0.4-5.3-2.5-11.3-10.1-13.2C72,0.8,77.2,3,79.8,7.7
		c2.5,4.4,2,9.8-1.3,13.8C75.6,25.2,70.5,26.6,68,25.8z"/>
	<path class="st0" d="M64.8,3.8c3-0.6,7,1.1,9,4.1c2.5,3.7,2.5,8.2,0.1,11.6c-2.2,3.2-6.2,4.6-9.1,4.1c2.7-0.6,4.8-1.8,6.3-3.8
		c1.6-2.1,2.3-4.4,2-6.9C72.6,8.2,69.6,4.9,64.8,3.8z"/>
	<path class="st0" d="M63,6.3c2.9-0.1,5.2,1.1,6.7,3.6c1.5,2.6,1.5,5.3-0.1,7.8c-1.5,2.5-3.8,3.5-6.7,3.5c3.6-1.2,5.9-3.6,5.9-7.6
		C68.7,9.9,66.4,7.5,63,6.3z"/>
	<path class="st0" d="M61.4,18.4c2.5-1.1,3.6-2.5,3.6-4.7c0-2.4-1.4-3.8-3.7-4.6c3-0.1,5.1,2.2,4.9,5.1
		C66.1,16.6,63.8,18.7,61.4,18.4z"/>
	<path class="st0" d="M60.6,16.7c1.7-2,1.7-3.9,0.1-5.8c1,0.2,2,1.4,2,2.5C62.8,14.8,62,16.2,60.6,16.7z"/>
</g>
</svg>
