<?xml version="1.0" encoding="utf-8"?>
<!-- Generator: Adobe Illustrator 21.1.0, SVG Export Plug-In . SVG Version: 6.00 Build 0)  -->
<svg version="1.1" id="Слой_1" xmlns="http://www.w3.org/2000/svg" xmlns:xlink="http://www.w3.org/1999/xlink" x="0px" y="0px"
	 viewBox="0 0 123 44" style="enable-background:new 0 0 123 44;" xml:space="preserve">
<style type="text/css">
	.st0{clip-path:url(#SVGID_2_);fill:#FFFFFF;}
	.st1{clip-path:url(#SVGID_4_);fill:#8CBE4F;}
	.st2{clip-path:url(#SVGID_6_);fill:#CC2128;}
	.st3{clip-path:url(#SVGID_8_);fill:#FFFFFF;}
	.st4{clip-path:url(#SVGID_10_);fill:#FFFFFF;}
	.st5{clip-path:url(#SVGID_12_);fill:#FFFFFF;}
	.st6{fill:#FFFFFF;}
	.st7{fill:#8CBE4F;}
	.st8{fill:#CC2128;}
	.st9{clip-path:url(#SVGID_14_);fill:#CC2128;}
	.st10{clip-path:url(#SVGID_16_);fill:#CC2128;}
	.st11{clip-path:url(#SVGID_18_);fill:#808183;}
	.st12{fill:#808183;}
	.st13{clip-path:url(#SVGID_20_);fill:#808183;}
	.st14{clip-path:url(#SVGID_22_);fill:#808183;}
	.st15{clip-path:url(#SVGID_24_);fill:#808183;}
	.st16{clip-path:url(#SVGID_26_);fill:#808183;}
	.st17{clip-path:url(#SVGID_28_);fill:#808183;}
	.st18{clip-path:url(#SVGID_30_);fill:#808183;}
	.st19{clip-path:url(#SVGID_32_);fill:#808183;}
</style>
<g>
	<g>
		<defs>
			<rect id="SVGID_1_" width="123" height="44"/>
		</defs>
		<clipPath id="SVGID_2_">
			<use xlink:href="#SVGID_1_"  style="overflow:visible;"/>
		</clipPath>
		<path class="st0" d="M42.8,22.2c0,0.2,0,0.5,0,0.7c-0.5,11-9.6,19.8-20.8,19.8c-7.9,0-15-4.5-18.4-11.2c0-0.2-0.2-0.4-0.2-0.4
			c-1.4-2.7-2.2-6-2.2-9.2C1.3,10.6,10.5,1.3,22,1.3C33.4,1.3,42.8,10.5,42.8,22.2C42.8,22,42.8,22,42.8,22.2 M22,0
			C9.9,0,0,9.9,0,22s9.9,22,22,22s22-9.9,22-22S34.1,0,22,0"/>
	</g>
	<g>
		<defs>
			<rect id="SVGID_3_" width="123" height="44"/>
		</defs>
		<clipPath id="SVGID_4_">
			<use xlink:href="#SVGID_3_"  style="overflow:visible;"/>
		</clipPath>
		<path class="st1" d="M22,1.3C10.5,1.3,1.3,10.5,1.3,22c0,3.2,0.7,6.5,2.2,9.2l10.3-11.5l-0.2,2.2l1.6-1.6L17,6h-0.7l1.3-1.4
			L18.8,6h-0.5L19.1,16l5.2-5.8l0.9,1.3l4.5-5.8l2.3,2h1.4l4.5,9L39,15l3.8,7.2V22C42.8,10.5,33.4,1.3,22,1.3"/>
	</g>
	<g>
		<defs>
			<rect id="SVGID_5_" width="123" height="44"/>
		</defs>
		<clipPath id="SVGID_6_">
			<use xlink:href="#SVGID_5_"  style="overflow:visible;"/>
		</clipPath>
		<path class="st2" d="M32.9,24.2l-0.5,0.5l-3.4-4.3l-1.1,1.1l-0.9-0.5l-1.3,1.8L25.1,22l-4.3,5.4l-0.2-1.1l-4.3,3.2l4.9-5.6v0.9
			l4.9-5.2l0.5,0.7l2-2.7l0.9,0.9H30l2.3,4.3l0.2-0.9l2,3.6L32.9,24.2z M29.3,38.8l1.8-2.9l1.8,2.9H29.3z M26,35.7v-4h2.3l0,0
			L26,35.7z M26,38.8v-1.3l3.6-5.8h2.9l-4.3,7C28.2,38.8,26,38.8,26,38.8z M24.9,32.6h-1.8V33l-2.3,4v-4.3H19v-0.9h6.1v0.9H24.9z
			 M23.1,38.8h-2.3l0,0l2.3-4V38.8z M16.3,38.8L16.3,38.8h-2.7l4-6.5c0.4,0.4,0.5,0.9,0.5,1.4s-0.2,0.9-0.5,1.3
			c0.4,0.4,0.7,0.9,0.7,1.6C18.2,37.9,17.3,38.8,16.3,38.8 M12.3,31.7h4l0,0c0.2,0,0.2,0,0.4,0.2l-4.3,7
			C12.3,39,12.3,31.7,12.3,31.7z M37.9,21.1l-7.6-9.6l-2.5,2.9L26.2,13l-2.7,4l-1.3-1.6l-9.9,12.3v-2.5l-8.7,6.5
			C7,38.2,14.1,42.7,22,42.7c11.2,0,20.2-8.8,20.8-19.8l-4-3.2L37.9,21.1z"/>
	</g>
	<g>
		<defs>
			<rect id="SVGID_7_" width="123" height="44"/>
		</defs>
		<clipPath id="SVGID_8_">
			<use xlink:href="#SVGID_7_"  style="overflow:visible;"/>
		</clipPath>
		<path class="st3" d="M38.1,16.6l-4.5-9h-1.4l-2.3-2l-4.5,6l-1.1-1.3L19,16L18.1,6h0.5l-1.1-1.4L16.3,6h0.5L15,20.2l-1.6,1.6
			l0.2-2.2L3.3,31.2c0,0.2,0.2,0.4,0.2,0.4l8.7-6.9v2.5L22,14.8l1.3,1.6l2.7-4l1.6,1.4l2.5-2.9l7.6,9.6l0.9-1.4l4,3.2
			c0-0.2,0-0.5,0-0.7l-3.8-7.2L38.1,16.6z"/>
	</g>
	<g>
		<defs>
			<rect id="SVGID_9_" width="123" height="44"/>
		</defs>
		<clipPath id="SVGID_10_">
			<use xlink:href="#SVGID_9_"  style="overflow:visible;"/>
		</clipPath>
		<path class="st4" d="M18.1,33.7c0-0.5-0.2-1.1-0.5-1.4l-4,6.5h2.7l0,0c1.1,0,2-0.9,2-2.2c0-0.5-0.2-1.1-0.7-1.6
			C17.9,34.8,18.1,34.3,18.1,33.7"/>
	</g>
	<g>
		<defs>
			<rect id="SVGID_11_" width="123" height="44"/>
		</defs>
		<clipPath id="SVGID_12_">
			<use xlink:href="#SVGID_11_"  style="overflow:visible;"/>
		</clipPath>
		<path class="st5" d="M16.3,31.7L16.3,31.7h-4v7l4.3-7C16.4,31.7,16.3,31.7,16.3,31.7"/>
	</g>
</g>
<polygon class="st6" points="18.8,32.6 20.8,32.6 20.8,37 23.1,33 23.1,32.6 24.9,32.6 24.9,31.7 18.8,31.7 "/>
<polygon class="st6" points="20.8,38.8 23.1,38.8 23.1,34.8 "/>
<polygon class="st6" points="29.3,38.8 32.9,38.8 31.1,35.9 "/>
<polygon class="st6" points="26,31.7 26,35.7 28.5,31.7 28.5,31.7 "/>
<polygon class="st6" points="29.6,31.7 26,37.5 26,38.8 28.2,38.8 32.5,31.7 "/>
<polygon class="st6" points="32.5,22.9 30.2,18.6 29.6,18.6 28.7,17.7 26.6,20.4 26.2,19.8 21.3,25.1 21.3,24.2 16.4,29.8 
	20.8,26.5 20.8,27.4 25.1,22 25.6,22.7 26.9,20.9 27.8,21.5 28.9,20.4 32.1,24.5 32.9,24.2 34.7,25.6 32.7,22 "/>
<polygon class="st7" points="60.1,17.7 63.6,8.1 61.6,8.1 59.2,15.1 56.9,8.1 54.7,8.1 58.2,17.7 "/>
<path class="st7" d="M68.1,10.5l1.3,3.4h-2.5L68.1,10.5z M65.4,17.7l0.7-2.2h3.8l0.9,2.2h2L69,8.3h-2l-3.6,9.4H65.4z"/>
<rect x="74.6" y="8.1" class="st7" width="2" height="9.4"/>
<polygon class="st7" points="80.9,11.4 84.7,17.7 86.5,17.7 86.5,8.1 84.7,8.1 84.7,14.4 80.9,8.1 79.1,8.1 79.1,17.7 80.9,17.7 "/>
<path class="st7" d="M93,10.5l1.3,3.4h-2.5L93,10.5z M91.2,15.5H95l0.7,2.2h2l-3.8-9.4h-1.8l-3.6,9.4h2L91.2,15.5z"/>
<polygon class="st7" points="105.7,17.7 108.2,17.7 104.4,11.9 108,8.1 105.5,8.1 101.5,12.4 101.5,8.1 99.7,8.1 99.7,17.7 
	101.5,17.7 101.5,14.8 103.1,13.2 "/>
<polygon class="st7" points="115.6,17.7 117.4,17.7 117.4,8.1 115.6,8.1 115.6,11.9 111.8,11.9 111.8,8.1 110,8.1 110,17.7 
	111.8,17.7 111.8,13.5 115.6,13.5 "/>
<polygon class="st8" points="59.8,31.6 59.8,23.8 62.5,23.8 62.5,22.2 55.1,22.2 55.1,23.8 57.8,23.8 57.8,31.6 "/>
<polygon class="st8" points="71.5,23.8 71.5,22.2 64.5,22.2 64.5,31.6 71.7,31.6 71.7,29.9 66.5,29.9 66.5,27.4 71.2,27.4 
	71.2,25.8 66.5,25.8 66.5,23.8 "/>
<polygon class="st8" points="80.7,29.9 76,29.9 76,22.2 74.2,22.2 74.2,31.6 80.7,31.6 "/>
<polygon class="st8" points="89.9,23.8 89.9,22.2 82.9,22.2 82.9,31.6 90.1,31.6 90.1,29.9 84.9,29.9 84.9,27.4 89.6,27.4 
	89.6,25.8 84.9,25.8 84.9,23.8 "/>
<g>
	<g>
		<defs>
			<rect id="SVGID_13_" width="123" height="44"/>
		</defs>
		<clipPath id="SVGID_14_">
			<use xlink:href="#SVGID_13_"  style="overflow:visible;"/>
		</clipPath>
		<path class="st9" d="M97.7,29.6c-0.4,0.4-0.7,0.5-1.3,0.5c-0.7,0-1.3-0.2-1.6-0.7c-0.4-0.5-0.7-1.3-0.7-2.5c0-1.1,0.2-2,0.7-2.3
			c0.4-0.5,1.1-0.7,1.6-0.7c0.5,0,0.9,0.2,1.3,0.4c0.4,0.4,0.5,0.7,0.7,1.1l1.8-0.5c-0.2-0.7-0.5-1.3-0.9-1.8
			c-0.7-0.7-1.6-1.1-2.9-1.1s-2.3,0.4-3.3,1.3c-0.7,0.9-1.3,2.2-1.3,3.6s0.4,2.7,1.3,3.4c0.7,0.9,1.8,1.3,3.1,1.3
			c1.1,0,1.8-0.2,2.5-0.7c0.7-0.5,1.1-1.3,1.4-2.3l-1.8-0.5C98.4,28.9,98.1,29.4,97.7,29.6"/>
	</g>
	<g>
		<defs>
			<rect id="SVGID_15_" width="123" height="44"/>
		</defs>
		<clipPath id="SVGID_16_">
			<use xlink:href="#SVGID_15_"  style="overflow:visible;"/>
		</clipPath>
		<path class="st10" d="M108.9,29.4c-0.5,0.5-1.1,0.9-1.8,0.9s-1.4-0.4-1.8-0.9c-0.5-0.5-0.7-1.4-0.7-2.3c0-1.1,0.2-1.8,0.7-2.3
			c0.5-0.5,1.1-0.7,1.8-0.7s1.4,0.2,1.8,0.7c0.5,0.5,0.7,1.3,0.7,2.3C109.6,28,109.5,28.9,108.9,29.4 M106.9,22
			c-0.7,0-1.4,0.2-2,0.4c-0.4,0.2-0.9,0.5-1.3,0.9c-0.4,0.4-0.7,0.7-0.9,1.3c-0.4,0.7-0.4,1.4-0.4,2.3c0,1.4,0.4,2.7,1.3,3.6
			c0.9,0.9,2,1.3,3.3,1.3c1.4,0,2.5-0.4,3.3-1.3c0.9-0.9,1.3-2,1.3-3.6c0-1.4-0.4-2.7-1.3-3.6C109.5,22.5,108.4,22,106.9,22"/>
	</g>
</g>
<polygon class="st8" points="120.1,22.2 118.3,28.7 116.7,22.2 113.8,22.2 113.8,31.6 115.6,31.6 115.6,24.2 117.4,31.6 119.2,31.6 
	121.2,24.2 121.2,31.6 123,31.6 123,22.2 "/>
<g>
	<g>
		<defs>
			<rect id="SVGID_17_" width="123" height="44"/>
		</defs>
		<clipPath id="SVGID_18_">
			<use xlink:href="#SVGID_17_"  style="overflow:visible;"/>
		</clipPath>
		<path class="st11" d="M56.9,37.7c0,0.2,0,0.4,0,0.4s0,0.2-0.2,0.2c0,0-0.2,0-0.4,0c-0.2,0-0.2,0-0.4,0L55.8,38c0,0,0-0.2,0-0.4
			v-1.3h-0.5v1.3c0,0.2,0,0.5,0,0.5s0,0.2,0.2,0.2l0.2,0.2c0.2,0,0.4,0,0.5,0s0.4,0,0.4,0c0.2,0,0.2-0.2,0.2-0.2s0.2-0.2,0.2-0.4
			s0-0.4,0-0.5v-1.3h-0.5v1.4H56.9z"/>
	</g>
</g>
<polygon class="st12" points="59.4,37.9 58.5,36.4 58,36.4 58,38.6 58.5,38.6 58.5,37.1 59.4,38.6 59.8,38.6 59.8,36.4 59.4,36.4 
	"/>
<rect x="60.5" y="36.4" class="st12" width="0.5" height="2.3"/>
<polygon class="st12" points="62.5,38 62,36.4 61.4,36.4 62.3,38.6 62.7,38.6 63.6,36.4 63,36.4 "/>
<polygon class="st12" points="63.9,36.4 63.9,38.6 65.7,38.6 65.7,38.2 64.5,38.2 64.5,37.7 65.6,37.7 65.6,37.3 64.5,37.3 
	64.5,36.8 65.7,36.8 65.7,36.4 "/>
<g>
	<g>
		<defs>
			<rect id="SVGID_19_" width="123" height="44"/>
		</defs>
		<clipPath id="SVGID_20_">
			<use xlink:href="#SVGID_19_"  style="overflow:visible;"/>
		</clipPath>
		<path class="st13" d="M67.2,37.3h-0.4v-0.5h0.4c0.2,0,0.4,0,0.4,0s0.2,0,0.2,0.2v0.2v0.2c0,0,0,0-0.2,0.2
			C67.6,37.3,67.4,37.3,67.2,37.3 M67.7,37.9l-0.2-0.2c0.2,0,0.4-0.2,0.5-0.2c0.2-0.2,0.2-0.2,0.2-0.4s0-0.2-0.2-0.4
			c0-0.2-0.2-0.2-0.2-0.2c-0.2,0-0.4,0-0.5,0h-0.9V39h0.4V38l0,0c0.2,0,0.2,0,0.2,0s0.2,0,0.2,0.2c0,0,0.2,0.2,0.2,0.4l0.4,0.5h0.5
			l-0.4-0.4C67.9,38,67.9,37.9,67.7,37.9"/>
	</g>
	<g>
		<defs>
			<rect id="SVGID_21_" width="123" height="44"/>
		</defs>
		<clipPath id="SVGID_22_">
			<use xlink:href="#SVGID_21_"  style="overflow:visible;"/>
		</clipPath>
		<path class="st14" d="M70.3,37.3c-0.2,0-0.4-0.2-0.5-0.2c-0.2,0-0.4-0.2-0.4-0.2s0,0,0-0.2v-0.2c0,0,0.2,0,0.4,0
			c0.2,0,0.2,0,0.4,0l0.2,0.2h0.5c0-0.2,0-0.4-0.2-0.5c-0.2-0.2-0.4-0.2-0.7-0.2c-0.2,0-0.4,0-0.4,0c-0.2,0-0.2,0.2-0.4,0.2
			c0,0.2-0.2,0.2-0.2,0.4s0,0.4,0.2,0.5c0.2,0,0.4,0.2,0.5,0.2c0.2,0,0.4,0,0.4,0.2c0,0,0.2,0,0.2,0.2c0,0,0,0,0,0.2
			c0,0,0,0.2-0.2,0.2c0,0-0.2,0.2-0.4,0.2s-0.2,0-0.4-0.2c0,0-0.2-0.2-0.2-0.4l-0.5,0.2c0,0.2,0.2,0.5,0.4,0.5
			c0.2,0.2,0.4,0.2,0.7,0.2c0.2,0,0.4,0,0.5,0c0.2,0,0.2-0.2,0.4-0.2c0-0.2,0.2-0.2,0.2-0.4s0-0.2-0.2-0.4
			C70.4,37.5,70.3,37.5,70.3,37.3"/>
	</g>
</g>
<path class="st12" d="M71.7,37.7l0.4-0.9l0.4,0.9H71.7z M71.7,36.4l-0.9,2.3h0.5l0.2-0.5h0.9l0.2,0.5h0.5l-0.9-2.3H71.7z"/>
<polygon class="st12" points="73.7,36.4 73.7,38.6 75.3,38.6 75.3,38.2 74.1,38.2 74.1,36.4 "/>
<g>
	<g>
		<defs>
			<rect id="SVGID_23_" width="123" height="44"/>
		</defs>
		<clipPath id="SVGID_24_">
			<use xlink:href="#SVGID_23_"  style="overflow:visible;"/>
		</clipPath>
		<path class="st15" d="M78.2,38c-0.2,0.2-0.2,0.2-0.5,0.2c-0.2,0-0.4,0-0.5-0.2c-0.2-0.2-0.2-0.4-0.2-0.5s0-0.5,0.2-0.5
			c0.2-0.2,0.2-0.2,0.5-0.2c0.2,0,0.4,0,0.5,0.2c0.2,0.2,0.2,0.4,0.2,0.5C78.4,37.9,78.4,38,78.2,38 M77.8,36.4
			c-0.2,0-0.4,0-0.5,0.2c-0.2,0-0.2,0.2-0.4,0.2c0,0.2-0.2,0.2-0.2,0.4s-0.2,0.4-0.2,0.5c0,0.4,0.2,0.7,0.4,0.9s0.5,0.4,0.9,0.4
			c0.4,0,0.5-0.2,0.7-0.4c0.2-0.2,0.4-0.5,0.4-0.9c0-0.4-0.2-0.7-0.4-0.9C78.4,36.4,78.2,36.4,77.8,36.4"/>
	</g>
	<g>
		<defs>
			<rect id="SVGID_25_" width="123" height="44"/>
		</defs>
		<clipPath id="SVGID_26_">
			<use xlink:href="#SVGID_25_"  style="overflow:visible;"/>
		</clipPath>
		<path class="st16" d="M80.7,37.3C80.7,37.3,80.6,37.3,80.7,37.3c-0.2,0.2-0.4,0.2-0.5,0.2H80v-0.7h0.2c0.2,0,0.4,0,0.4,0
			s0.2,0,0.2,0.2C80.7,37,80.7,37,80.7,37.3C80.7,37.1,80.7,37.1,80.7,37.3 M80.7,36.4c0,0-0.2,0-0.5,0h-0.7v2.3H80v-0.9h0.4
			c0.2,0,0.4,0,0.5,0c0,0,0.2,0,0.2-0.2s0.2-0.2,0.2-0.2c0-0.2,0-0.2,0-0.4s0-0.4-0.2-0.4C81.1,36.6,80.9,36.4,80.7,36.4"/>
	</g>
</g>
<polygon class="st12" points="81.8,36.4 81.8,38.6 83.6,38.6 83.6,38.2 82.4,38.2 82.4,37.7 83.4,37.7 83.4,37.3 82.4,37.3 
	82.4,36.8 83.4,36.8 83.4,36.4 "/>
<g>
	<g>
		<defs>
			<rect id="SVGID_27_" width="123" height="44"/>
		</defs>
		<clipPath id="SVGID_28_">
			<use xlink:href="#SVGID_27_"  style="overflow:visible;"/>
		</clipPath>
		<path class="st17" d="M84.9,37.3h-0.4v-0.5h0.4c0.2,0,0.4,0,0.4,0s0.2,0,0.2,0.2v0.2v0.2c0,0,0,0-0.2,0.2
			C85.3,37.3,85.3,37.3,84.9,37.3 M85.6,37.9l-0.2-0.2c0.2,0,0.4-0.2,0.5-0.2c0.2-0.2,0.2-0.2,0.2-0.4s0-0.2-0.2-0.4
			c0-0.2-0.2-0.2-0.2-0.2c-0.2,0-0.4,0-0.5,0h-0.9V39h0.5V38h0.2c0.2,0,0.2,0,0.2,0s0.2,0,0.2,0.2c0,0,0.2,0.2,0.2,0.4l0.4,0.5h0.5
			l-0.4-0.4C85.8,38,85.8,37.9,85.6,37.9"/>
	</g>
</g>
<path class="st12" d="M87.2,37.7l0.4-0.9l0.4,0.9H87.2z M87.2,36.4l-0.9,2.3h0.5l0.2-0.5H88l0.2,0.5h0.5l-0.9-2.3H87.2z"/>
<polygon class="st12" points="88.7,36.8 89.4,36.8 89.4,38.6 89.9,38.6 89.9,36.8 90.7,36.8 90.7,36.4 88.7,36.4 "/>
<g>
	<g>
		<defs>
			<rect id="SVGID_29_" width="123" height="44"/>
		</defs>
		<clipPath id="SVGID_30_">
			<use xlink:href="#SVGID_29_"  style="overflow:visible;"/>
		</clipPath>
		<path class="st18" d="M92.5,38c-0.2,0.2-0.2,0.2-0.5,0.2c-0.4,0-0.4,0-0.5-0.2c-0.2-0.2-0.2-0.4-0.2-0.5s0-0.5,0.2-0.5
			c0.2-0.2,0.4-0.2,0.5-0.2c0.2,0,0.4,0,0.5,0.2c0.2,0.2,0.2,0.4,0.2,0.5C92.7,37.9,92.7,38,92.5,38 M92.1,36.4
			c-0.2,0-0.4,0-0.5,0.2c-0.2,0-0.2,0.2-0.4,0.2c0,0.2-0.2,0.2-0.2,0.4s-0.2,0.4-0.2,0.5c0,0.4,0.2,0.7,0.4,0.9
			c0.2,0.2,0.5,0.4,0.9,0.4s0.5-0.2,0.7-0.4s0.4-0.5,0.4-0.9c0-0.4-0.2-0.7-0.4-0.9C92.7,36.4,92.3,36.4,92.1,36.4"/>
	</g>
	<g>
		<defs>
			<rect id="SVGID_31_" width="123" height="44"/>
		</defs>
		<clipPath id="SVGID_32_">
			<use xlink:href="#SVGID_31_"  style="overflow:visible;"/>
		</clipPath>
		<path class="st19" d="M94.5,37.3h-0.4v-0.5h0.4c0.2,0,0.4,0,0.4,0s0.2,0,0.2,0.2v0.2v0.2c0,0,0,0-0.2,0.2
			C94.8,37.3,94.6,37.3,94.5,37.3 M95.2,37.9L95,37.7c0.2,0,0.4-0.2,0.5-0.2c0.2-0.2,0.2-0.2,0.2-0.4s0-0.2-0.2-0.4
			c0-0.2-0.2-0.2-0.2-0.2s-0.4,0-0.5,0h-0.9V39h0.5V38h0.2c0.2,0,0.2,0,0.2,0s0.2,0,0.2,0.2c0,0,0.2,0.2,0.2,0.4l0.4,0.5h0.2
			l-0.4-0.4C95.4,38,95.4,37.9,95.2,37.9"/>
	</g>
</g>
</svg>
