<?xml version="1.0" encoding="utf-8"?>
<!-- Generator: Adobe Illustrator 21.1.0, SVG Export Plug-In . SVG Version: 6.00 Build 0)  -->
<svg version="1.1" id="Yota_x5F_logo" xmlns="http://www.w3.org/2000/svg" xmlns:xlink="http://www.w3.org/1999/xlink" x="0px"
	 y="0px" viewBox="0 0 31 49" style="enable-background:new 0 0 31 49;" xml:space="preserve">
<style type="text/css">
	.st0{fill:#60BDF0;}
</style>
<g>
	<g>
		<path class="st0" d="M26.5,16.9c2.8-2.7,4.5-6.5,4.5-10.7V3.3C31,1.5,29.4,0,27.5,0c-1.9,0-3.5,1.5-3.5,3.3v2.9c0,2.4-1,4.5-2.5,6
			c-1.6,1.5-3.7,2.4-6,2.4s-4.5-0.9-6-2.4c-1.6-1.5-2.5-3.6-2.5-6V3.3C6.9,1.5,5.4,0,3.5,0C1.6,0,0,1.5,0,3.3v2.9
			c0,4.1,1.7,7.9,4.5,10.7c2,2,4.6,3.4,7.5,4.1v7c-2.9,0.6-5.5,2.1-7.5,4.1C1.7,34.8,0,38.6,0,42.8v2.9C0,47.5,1.6,49,3.5,49
			c1.9,0,3.5-1.5,3.5-3.3v-2.9c0-2.4,1-4.5,2.5-6c1.6-1.5,3.7-2.4,6-2.4s4.5,0.9,6,2.4c1.6,1.5,2.5,3.6,2.5,6v2.9
			c0,1.8,1.6,3.3,3.5,3.3c1.9,0,3.5-1.5,3.5-3.3v-2.9c0-4.1-1.7-7.9-4.5-10.7c-2-2-4.6-3.4-7.5-4.1v-7
			C21.9,20.3,24.5,18.9,26.5,16.9"/>
		<path class="st0" d="M15.5,48.3c3.3,0,6-2.6,6-5.8c0-3.2-2.7-5.8-6-5.8c-3.3,0-6,2.6-6,5.8C9.5,45.7,12.2,48.3,15.5,48.3"/>
	</g>
</g>
</svg>
